<svg xmlns="http://www.w3.org/2000/svg" width="15.09" height="17.353" viewBox="0 0 15.09 17.353"><defs><style>.a{fill:#fff;}</style></defs><path class="a" d="M11.036,3a.755.755,0,0,0-.765.754H5.754a.755.755,0,1,0,0,1.509H19.335a.755.755,0,1,0,0-1.509H14.819A.755.755,0,0,0,14.054,3ZM5.754,6.772V18.844a1.509,1.509,0,0,0,1.509,1.509H17.826a1.509,1.509,0,0,0,1.509-1.509V6.772Zm4.527,3.772a.752.752,0,0,1,.533.221l1.73,1.73,1.73-1.73a.754.754,0,0,1,1.067,1.067l-1.73,1.73,1.73,1.73a.754.754,0,1,1-1.067,1.067l-1.73-1.73-1.73,1.73a.754.754,0,0,1-1.067-1.067l1.73-1.73-1.73-1.73a.754.754,0,0,1,.533-1.288Z" transform="translate(-5 -3)"/></svg>