<svg xmlns="http://www.w3.org/2000/svg" width="17.626" height="11.751" viewBox="0 0 17.626 11.751"><defs><style>.a{fill:#fff;}</style></defs><path class="a" d="M8.813,5C3.573,5,.189,10.412.127,10.51A.586.586,0,0,0,.1,11.2l0,0c.01.021,2.851,5.552,8.715,5.552,5.839,0,8.676-5.477,8.711-5.544l.007-.012a.587.587,0,0,0-.031-.684h0C17.437,10.412,14.053,5,8.813,5Zm0,1.763A4.113,4.113,0,1,1,4.7,10.875,4.113,4.113,0,0,1,8.813,6.763Zm0,2.35a1.763,1.763,0,1,0,1.763,1.763A1.763,1.763,0,0,0,8.813,9.113Z" transform="translate(0 -5)"/></svg>