<?xml version="1.0" encoding="UTF-8"?>
<svg version="1.1" viewBox="0 0 985.57 550.82" xmlns="http://www.w3.org/2000/svg">
 <defs>
  <style>.a{fill:none;}.b{clip-path:url(#a);}.c{fill:#6da6c7;}.d{fill:#97c4de;}.e{fill:#f7f6f1;}.f{fill:#4c98c4;}.g{fill:#2e6c9e;}.h{fill:#fff;}.i{fill:#88c7f5;}.j{fill:#bf323f;}.k{fill:#fcfcfc;}.l{fill:#ffdac7;}.m{fill:#dff2fd;}.n{fill:#cfd0d0;}.o{fill:#999;}.p{fill:url(#b);}.q{fill:#ffd79e;}.r{fill:#d14754;}.s{fill:#597099;}.t{fill:#ebf6ff;}.u{fill:#24b3c9;}.v{fill:#b3d2cd;opacity:0.33;}</style>
  <clipPath id="a">
   <rect class="a" transform="translate(.068 -.448)" width="1401" height="790"/>
  </clipPath>
  <linearGradient id="b" x1="424.07" x2="496.18" y1="420.57" y2="420.57" gradientTransform="scale(2.0453 .48893)" gradientUnits="userSpaceOnUse">
   <stop stop-color="#bdbdbd" offset="0"/>
   <stop stop-color="#959595" offset="1"/>
  </linearGradient>
 </defs>
 <g transform="translate(56.984,30.387)">
  <g transform="translate(-210.15 -113.77)">
   <g class="b" clip-path="url(#a)">
    <path class="c" transform="translate(-178.45 -235.12)" d="m660 872.9h2.591l0.686 0.387c2.131 1.175 4.38 2.38 6.628 3.6 5.19 2.788 10.716 5.672 16.5 8.584l1.6 0.81c7.84 3.934 16.1 7.913 24.519 11.76l2.424 1.1c7.482 3.387 15.074 6.65 22.585 9.679a0.668 0.668 0 0 1 0.226 0.161 0.576 0.576 0 0 1 0.131 0.62 0.28 0.28 0 0 1 0 0.036 0.642 0.642 0 0 1-0.5 0.409 0.731 0.731 0 0 1-0.314-0.051c-4.212-1.657-8.65-3.5-13.234-5.482l-3.008-1.314c-6.832-3.007-13.927-6.292-21.015-9.708l-1.577-0.766c-8.278-4.007-16.512-8.175-24.271-12.263l-1.46-0.73q-1.46-0.766-2.92-1.548c-3.35-1.824-6.554-3.576-9.591-5.284z"/>
    <path class="c" transform="translate(-207.04 -248.63)" d="m765.86 922.91c10.811 4.248 20.752 7.825 32.381 10.424z"/>
    <path class="c" transform="translate(-207.04 -247.94)" d="m778.3 933.42c-8.03-2.708-12.84-10.219-12.409-11.2 0.5-1.285 11.679-4.482 22.672 2.526a56.453 56.453 0 0 1 9.708 7.9c-5 2.052-13.409 3.059-19.971 0.774z"/>
    <path class="c" transform="translate(-199.88 -246.16)" d="m742.78 913.78c0.956-0.146 3.4 2.8 4.022 3.584 8.03 10.125 6.051 19.8 7.5 27.1-2.642-0.416-7.3-3.131-10.665-7.664-8.436-11.304-2.047-22.859-0.857-23.02z"/>
    <path class="c" transform="translate(-190.55 -242.35)" d="m710.46 899.84c1.46-0.883 1.292 1.343 4.752 9.781 2.715 6.679 8.46 21.972 3.723 27.388-1.869-4.745-7.073-6.9-11.074-13.606-6.482-10.876-1.277-21.212 2.599-23.563z"/>
    <path class="c" transform="translate(-179.06 -237.58)" d="m664.35 890.34a19.337 19.337 0 0 1 3.226-4.628c3.394-3.38 6.38-3.978 6.752-3.65 0.511 0.474-0.044 3.037-0.19 6.234-0.153 2.555 0.131 25.351 2.037 31.5a3.864 3.864 0 0 0 0.3 0.8c-4.08-0.65-11.234-6.847-13.475-15.482a20.764 20.764 0 0 1 1.35-14.774z"/>
    <path class="c" transform="translate(-171.45 -235.12)" d="m634.08 905.96c0.212-3.4 0.548-9.336 0.84-13.826 0.058-0.934 0.117-1.8 0.175-2.562s0.1-1.46 0.153-1.971a5.844 5.844 0 0 1 0.066-0.73c0.095-1.073 0.285-2.591 0.533-4.38 0.409-2.759 0.971-6.088 1.548-9.124a2.6 2.6 0 0 1 0.095-0.474h9.125a25.26 25.26 0 0 1 1.277 8.993 29.521 29.521 0 0 1-5.562 16.169c-0.256 0.358-0.518 0.73-0.8 1.066-0.423 0.547-0.869 1.073-1.336 1.6a28.592 28.592 0 0 1-5.8 5.1z"/>
    <path class="c" transform="translate(-197.86 -239.4)" d="m731.97 903.08c-0.555-0.818 1.416-6.19 6.832-10.278 6.256-4.715 13.774-5.073 19.256-2.321a18.628 18.628 0 0 1 7.3 6.708c-4.65 0.927-5.161 0.241-14.6 3.175-8.755 2.862-18.204 3.57-18.788 2.716z"/>
    <path class="c" transform="translate(-188.19 -235.11)" d="m699.67 875.05a21.934 21.934 0 0 1 1.825-2.19h17.519c-5.329 5.351-8.365 7.8-12.833 10.008a54.74 54.74 0 0 1-8.453 3.373c-0.62 0.153-1.066 0.2-1.226 0.08a1.409 1.409 0 0 1-0.372-0.891c-0.292-1.818 0.416-6.125 3.54-10.38z"/>
    <path class="c" transform="translate(-179.05 -235.12)" d="m662.21 872.9h3.343c-0.139 0.044-0.277 0.088-0.409 0.117a10.139 10.139 0 0 1-1.3 0.27c-0.818 0.109-1.372 0.051-1.533-0.146a0.615 0.615 0 0 1-0.1-0.241z"/>
    <path class="d" transform="translate(-126.65 -235.12)" d="m472.82 872.9h82.091c-0.044 0.92-0.117 1.84-0.212 2.767-2.007 19.709-14.409 42.447-32.782 61.827-0.38 0.4-0.766 0.81-1.161 1.212a159.75 159.75 0 0 1-24.2 20.512c-0.46 0.321-0.927 0.642-1.394 0.949a143.67 143.67 0 0 1-14.563 8.621l-0.73 0.372-0.314 0.161c-0.059-0.117-0.117-0.226-0.168-0.343s-0.219-0.423-0.321-0.635a104.78 104.78 0 0 1-8.314-26.724c-0.1-0.562-0.2-1.117-0.292-1.679-3.648-21.462-2.983-46.368 2.36-67.04z"/>
    <path class="e" transform="translate(-130.69 -235.12)" d="m483.14 968.34a0.863 0.863 0 0 1 0.051-0.3l8.8-24.9a1.229 1.229 0 0 1 0.044-0.117l4.38-12.453 0.81-2.3 13.825-39.1 0.73-2 5.044-14.271h1.776l-5.365 15.183-7.891 22.3-0.664 1.883-5.942 16.789a0.574 0.574 0 0 1-0.036 0.1l-5.002 14.186-0.818 2.314-8.11 22.943c0 0.058-0.058 0.124-0.095 0.182a0.839 0.839 0 0 1-0.73 0.372 0.991 0.991 0 0 1-0.248-0.044 0.945 0.945 0 0 1-0.234-0.139 0.832 0.832 0 0 1-0.325-0.628z"/>
    <path class="e" transform="translate(-133.96 -260.89)" d="m496.06 968.31a0.833 0.833 0 0 1 0.766 0.5l7.132 16.322a0.839 0.839 0 1 1-1.533 0.672l-7.132-16.322a0.839 0.839 0 0 1 0.431-1.1 0.913 0.913 0 0 1 0.336-0.066z"/>
    <path class="e" transform="translate(-127.3 -255.52)" d="m494.54 948.43a0.832 0.832 0 0 1 0.38 1.577l-23.242 11.935a0.839 0.839 0 0 1-0.766-1.46l23.249-11.935a0.852 0.852 0 0 1 0.379-0.117z"/>
    <path class="e" transform="translate(-138.28 -248.77)" d="m512.04 923.45a0.833 0.833 0 0 1 0.664 0.328l20.986 27.468a0.836 0.836 0 1 1-1.328 1.015l-20.957-27.468a0.832 0.832 0 0 1 0.664-1.343z"/>
    <path class="e" transform="translate(-126.87 -240.34)" d="m508.62 892.21a0.839 0.839 0 0 1 0.788 0.577 0.825 0.825 0 0 1-0.525 1.051l-38.785 12.993a0.836 0.836 0 1 1-0.533-1.584l38.782-12.993a0.85 0.85 0 0 1 0.273-0.044z"/>
    <path class="e" transform="translate(-145.72 -235.12)" d="m538.81 872.9h2.73l16.825 13.052 0.328 0.256 9.825 7.613a0.83509 0.83509 0 0 1-1.022 1.321z"/>
    <path class="f" transform="translate(-167.17 -235.12)" d="m618.21 872.9h1.613q3.1 3.832 6.088 7.8c0.343 0.453 0.73 0.912 1.036 1.38 1.358 1.825 2.693 3.65 4.015 5.519q3.65 5.146 7.081 10.446c0.985 1.526 1.956 3.066 2.92 4.606 0.4 0.65 0.8 1.3 1.2 1.949 3.971 6.519 7.657 13.139 10.993 19.811a0.73 0.73 0 0 1 0.073 0.241 0.613 0.613 0 0 1-0.358 0.6h-0.051a0.606 0.606 0 0 1-0.606-0.066 0.686 0.686 0 0 1-0.19-0.234q-2.876-5.759-6.1-11.468l-1.518-2.665q-3.431-5.912-7.168-11.723-1.978-3.08-4.044-6.1c-0.292-0.431-0.591-0.869-0.9-1.307-0.489-0.73-0.985-1.46-1.46-2.139-4.018-5.701-8.259-11.277-12.624-16.65z"/>
    <path class="f" transform="translate(-179.88 -254.28)" d="m665.3 943.86a178.46 178.46 0 0 1 11.555 28.972z"/>
    <path class="f" transform="translate(-179.36 -254.25)" d="m663.43 949.04c0.168-2.431 0.8-4.971 1.343-5.234 1.256-0.628 8.446 3.073 11.533 10.468 2.365 5.8 1.949 13.329 0 18.5a47.657 47.657 0 0 1-8.31-8.339 21.391 21.391 0 0 1-4.566-15.395z"/>
    <path class="f" transform="translate(-171.82 -249.13)" d="m637.54 936.01c3.533-7.57 11.27-11.679 12.256-11.212 0.847 0.409 1.226 4.935 0.255 9.241-2 8.759-8.613 13.519-12.73 18.555-1.942-2.248-3.081-9.562 0.219-16.584z"/>
    <path class="f" transform="translate(-166.93 -242.07)" d="m621.78 905.78c4.686-6.256 10.584-7.555 11.088-7.044s-0.219 2.752-0.92 5.526c-0.781 3.037-1.007 4.38-1.664 6.927-1.693 6.657-6.314 18.249-12.833 20.242a7.759 7.759 0 0 0 0.613-3.336c-0.029-4.001-3.166-13.132 3.716-22.315z"/>
    <path class="f" transform="translate(-159.46 -235.12)" d="m601.41 872.9h7.8c-0.5 0.861-1.234 2.051-2.131 3.708-1.321 2.358-2.066 4-4.723 9.563-5.168 10.219-7.935 15.015-8.7 18.417-6.154-3.811-6.319-23.374 7.754-31.688z"/>
    <path class="f" transform="translate(-152.87 -235.12)" d="m565.28 886.4 0.234-0.445c4.088-7.686 4.38-8.621 6.569-13.052h11.132a34.934 34.934 0 0 1-2.234 2.767 40.582 40.582 0 0 1-15.11 10.541z"/>
    <path class="f" transform="translate(-175.46 -244.54)" d="m648.9 912.66c0-0.6 1.642-1.679 2.19-2 12.563-7.584 29.468 0.285 27.337 17.11-4.956-3.2-5.241-4.168-13.139-7.11-5.788-2.037-16.432-6.803-16.388-8z"/>
    <path class="f" transform="translate(-169.96 -235.12)" d="m628.71 880.7a5.992 5.992 0 0 1 0.489-1.015 10.47 10.47 0 0 1 0.781-1.16 20.67 20.67 0 0 1 5.927-5.154c0.277-0.168 0.555-0.321 0.847-0.474h19.081l0.226 0.117a21.17 21.17 0 0 1 5.329 3.869 11.409 11.409 0 0 1 0.81 0.942l-1.139 0.307c-6.781 1.839-11.008 3.059-14.672 3.752a40.389 40.389 0 0 1-7.876 0.73c-0.569 0-2.3 0-4.161-0.109a40.694 40.694 0 0 1-4.613-0.416c-0.62-0.11-1.037-0.248-1.117-0.409a1.3 1.3 0 0 1 0.088-0.978z"/>
    <path class="d" transform="translate(-136.57 -108.05)" d="m752.47 626.49a0.971 0.971 0 0 1-0.569 0.423c-22.249 6.1-46.637 3.2-72.492-8.635-23.278-10.657-47.133-28.206-70.908-52.148-21.6-21.76-42.68-48.564-60.966-77.514-17.65-27.957-32.337-57.323-42.556-84.952a0.9724 0.9724 0 0 1 1.825-0.672c20.972 56.863 60.469 118.85 103.08 161.76 49.849 50.228 100.12 71.652 141.51 60.28a0.985 0.985 0 0 1 1.2 0.686 0.971 0.971 0 0 1-0.12 0.767z"/>
    <path class="d" transform="translate(-125.69,-69.903)" d="m495.01 365.18c3.095-1.161 5.993-25.242 0.766-49.352-2.54-11.489-6.321-22.709-19.023-54.747-5.774 8.46-10.891 22.271-11.949 37.892-2.824 42.972 27.556 67.163 30.206 66.207z"/>
    <path class="d" transform="translate(-114.8 -110.37)" d="m506.27 454.98c-0.073-3.132-11.927-14.263-21.8-21.351-23.818-17.1-44.33-16.147-60.177-22.709 1.715 9.555 9.789 25.132 22.629 37.228 31.121 29.147 59.465 10.613 59.348 6.832z"/>
    <path class="d" transform="translate(-122.2 -140.27)" d="m553.14 555.49c4.526-8.76-0.905-5.183-27.651-15.971-26.381-10.643-63.907-25.665-73.776-13.044 13.219 6.394 22.4 23.49 43.673 36.111 26.738 15.73 49.768 8.007 57.754-7.096z"/>
    <path class="d" transform="translate(-143.95 -174.99)" d="m637.18 669.04c1.314-5.314 1.46-12.293-0.248-16.906-0.781-2.124-1.278-2.6-6.519-0.73-11.373 4.2-16.628 6-38.688 8.5-16.059 2.022-44.1 4.986-59.491-0.19 7.3 13.811 34.206 33.943 61.1 36.235 24.348 2.147 39.663-10.018 43.846-26.909z"/>
    <path class="d" transform="translate(-179.69 -190.61)" d="m747.74 724.08c1.292-1.6 9.657-12.052 8.533-13.789-2.329-3.73-58.966-6.65-82.8 25.592a47.506 47.506 0 0 0-8.876 27.424 42.055 42.055 0 0 0 1.949 13.227c50.171-18.095 66.354-33.475 81.194-52.454z"/>
    <path class="d" transform="translate(-149.14 -100.54)" d="m555.34 471.5c0.81 0.54 2.62 0.263 5.044-0.905 9.752-4.694 20.753-19.234 22.694-38.505a65.172 65.172 0 0 0-11.738-43.936 76.654 76.654 0 0 0-12.84-13.614c-0.153 0.832-0.423 3.073-0.584 5.11-0.81 9.373-0.2 7.409-2.372 24.454 0 0-0.175 1.2-1.986 12.066-4.591 27.19-0.678 53.717 1.782 55.33z"/>
    <path class="d" transform="translate(-169.62 -132.42)" d="m628.29 547.37c-1.46 11.066-1.38 26.658 0.526 28.351 0.73 0.679 2.664 0.876 5.351 0.4a21.615 21.615 0 0 0 4.482-1.365c9.1-3.526 18.825-13.869 22.84-28.308 6.5-23.658-2.92-47.294-7.146-53.856-6.978 10.358-14.854 22.154-20.03 33.527a69.685 69.685 0 0 0-6.022 21.249z"/>
    <path class="d" transform="translate(-192.43 -156.16)" d="m712.26 629.12c-2.387 14.767 4.511 27.008 6.57 27.468s6.518-3.752 8.073-5.416a113.6 113.6 0 0 0 13.592-17.205c7.146-10.519 10.694-20.84 27.213-53.469a123.66 123.66 0 0 0-23.767 9.606c-16.367 9.161-28.538 20.454-31.681 39.016z"/>
    <path class="f" transform="translate(-354.96 -63.733)" d="m1342.2 610.48a1.124 1.124 0 0 1-0.73-0.38c-17.687-20.154-27.052-47.119-27.826-80.156-0.73-29.746 5.511-63.594 18.446-100.62 11.759-33.636 29.052-69.295 50.016-103.12 20.242-32.658 43.461-62.973 67.156-87.66a1.131 1.131 0 0 1 1.635 1.562c-48.775 50.827-93.478 123.62-116.67 189.96-27.132 77.645-23.957 141.06 8.949 178.54a1.131 1.131 0 0 1-0.964 1.869z"/>
    <path class="f" transform="translate(-405.33 -37.265)" d="m1500.5 212.86c2.781 2.635 29.425-6.57 51.958-24.293 10.723-8.5 20.526-18.154 47.564-47.717-11.781-1.737-28.818-0.058-45.68 6.774-46.352 18.898-56.229 62.965-53.842 65.236z"/>
    <path class="f" transform="translate(-380.68 -41.994)" d="m1435.5 265.82c3.241-1.664 8.847-19.709 11.234-33.636 5.767-33.578-5.65-54.52-6.861-74.455-9.117 6.65-21.285 23-27.351 42.6-14.694 47.337 19.095 67.542 22.978 65.491z"/>
    <path class="f" transform="translate(-356.96 -65.849)" d="m1358.1 366.83c11.446 0.277 4.949-3.591 2.635-37.023-2.3-32.979-5.672-79.842-23.877-83.733 0 17.066-13.139 35.344-15.533 64-2.847 35.953 16.935 56.078 36.775 56.756z"/>
    <path class="f" transform="translate(-331.14 -107.08)" d="m1281.5 513.2c6.219-1.329 13.614-4.686 17.519-8.854 1.825-1.891 2.058-2.657-2.57-7.175-10.168-9.752-14.723-14.322-28.571-36.133-10.277-15.76-27.629-43.556-30.037-62.272-10.723 14.657-18.1 53-6.811 82.288 10.206 26.581 30.71 36.392 50.47 32.146z"/>
    <path class="f" transform="translate(-315.18 -158.99)" d="m1262.4 663.36c2.329 0.54 17.519 3.964 18.752 1.905 2.686-4.336-23.045-64.966-68.878-73.506a55.206 55.206 0 0 0-33.169 4.665 49.206 49.206 0 0 0-12.833 8.759c44.432 43.242 68.725 52.33 96.128 58.177z"/>
    <path class="f" transform="translate(-383.12 -75.622)" d="m1417.9 328.25c-0.153 1.124 1.058 2.861 3.518 4.81 9.862 7.8 30.658 11.906 51.776 4.146a75.82 75.82 0 0 0 39.95-34.607 87.919 87.919 0 0 0 7.7-20.344c-0.949 0.263-3.431 1.124-5.643 1.993-10.219 3.913-7.847 3.548-26.76 9.949 0 0-1.335 0.423-13.621 4.059-30.751 9.03-56.482 26.607-56.92 29.994z"/>
    <path class="f" transform="translate(-365.1 -119.51)" d="m1380.6 449.32c-12.314 4.11-28.563 12.11-29.366 14.964-0.328 1.131 0.438 3.234 2.307 5.8a24.33 24.33 0 0 0 3.694 3.986c8.307 7.716 24.089 12.628 41.2 9.489 28.03-5.241 47.936-27.125 52.651-34.855-14.373-2.029-30.709-4.263-45.257-3.891a81.234 81.234 0 0 0-25.229 4.507z"/>
    <path class="f" transform="translate(-355.66 -154.91)" d="m1341.6 578.16c-16.643 5.022-25.906 18.439-25.366 20.826 0.555 2.511 7.234 4.913 9.767 5.686a132.81 132.81 0 0 0 24.891 5.46c14.6 2.117 27.213 0.584 69.711 1.248a143.92 143.92 0 0 0-22.118-19.95c-17.877-12.459-35.863-19.427-56.885-13.27z"/>
    <rect class="g" transform="translate(501.84 126.72)" width="409.58" height="514.62" rx="14.54"/>
    <rect class="h" transform="translate(517.86 144.88)" width="377.39" height="485.14"/>
    <path class="i" transform="translate(-203.73 -65.11)" d="m1063.7 246.34h-308.57a1.5035 1.5035 0 1 1 0-3.007h308.57a1.5035 1.5035 0 1 1 0 3.007z"/>
    <path class="i" transform="translate(-203.77 -83.119)" d="m1063.7 313.02h-308.57a1.5 1.5 0 0 1 0-3h308.57a1.5 1.5 0 0 1 0 3z"/>
    <ellipse class="j" transform="translate(551.22 184.56)" cx="18.526" cy="19.118" rx="18.526" ry="19.118"/>
    <path class="k" transform="translate(3.307,43.059)" d="m577.94 157.48h-8.307v-8.154h-6.394v8.154h-8.307v6.278h8.307v8.161h6.394v-8.161h8.307z"/>
    <path class="d" transform="translate(-226.16 -69.475)" d="m836.67 260.07a41.619 41.619 0 0 1 7.453-0.569c3.57 0 6.153 0.774 7.854 2.248a7.884 7.884 0 0 1 2.621 6.1 8.563 8.563 0 0 1-2.263 6.227c-1.985 2-5 2.985-8.445 2.985a10.512 10.512 0 0 1-2.38-0.2v10.438h-4.84zm4.84 12.811a7.9 7.9 0 0 0 2.38 0.248c3.65 0 5.839-1.883 5.839-5.11 0-3.066-2.066-4.664-5.438-4.664a12.891 12.891 0 0 0-2.81 0.248z"/>
    <path class="d" transform="translate(-232.59 -69.552)" d="m867.81 279.55-2.3 7.818h-5.036l8.562-27.585h6.227l8.686 27.585h-5.27l-2.423-7.818zm7.65-3.81-2.1-6.789c-0.518-1.679-0.956-3.562-1.351-5.161h-0.08c-0.394 1.6-0.832 3.518-1.27 5.161l-2.059 6.789z"/>
    <path class="d" transform="translate(-240.54 -69.552)" d="m897.53 263.99h-7.621v-4.212h20.19v4.212h-7.715v23.358h-4.876z"/>
    <path class="d" transform="translate(-249.17 -69.552)" d="m926.74 259.78v27.585h-4.883v-27.585z"/>
    <path class="d" transform="translate(-253.04 -69.552)" d="m951.16 275.12h-10.074v8.1h11.263v4.139h-16.139v-27.583h15.548v4.132h-10.672v7.117h10.074z"/>
    <path class="d" transform="translate(-260.58 -69.552)" d="m964.14 287.36v-27.585h5.592l6.9 11.825a82.607 82.607 0 0 1 4.562 9.249h0.08c-0.358-3.65-0.438-7.241-0.438-11.46v-9.614h4.526v27.585h-5.11l-6.98-12.165a95.221 95.221 0 0 1-4.759-9.489h-0.161c0.2 3.562 0.277 7.2 0.277 11.745v9.869z"/>
    <path class="d" transform="translate(-269.59 -69.552)" d="m1005.1 263.99h-7.613v-4.212h20.191v4.212h-7.7v23.358h-4.876z"/>
    <path class="d" transform="translate(-280.73 -69.37)" d="m1059.3 286.4a17.152 17.152 0 0 1-6.942 1.226c-8.49 0-13.643-5.482-13.643-13.913 0-9.088 6.146-14.6 14.314-14.6a14.716 14.716 0 0 1 6.467 1.226l-1.029 4.015a12.745 12.745 0 0 0-5.234-1.066c-5.438 0-9.365 3.518-9.365 10.146 0 6.1 3.409 9.949 9.322 9.949a14.313 14.313 0 0 0 5.314-0.986z"/>
    <path class="d" transform="translate(-289.26 -69.552)" d="m1077.6 279.55-2.3 7.818h-5.037l8.533-27.585h6.227l8.686 27.585h-5.27l-2.423-7.818zm7.657-3.81-2.1-6.789c-0.518-1.679-0.956-3.562-1.35-5.161h-0.088c-0.394 1.6-0.832 3.518-1.27 5.161l-2.066 6.789z"/>
    <path class="d" transform="translate(-299.32 -69.476)" d="m1107.6 260.11a40.337 40.337 0 0 1 7.38-0.613c3.847 0 6.424 0.65 8.248 2.19a7.123 7.123 0 0 1 2.3 5.57 7.226 7.226 0 0 1-4.876 6.876v0.124c1.941 0.73 3.088 2.657 3.723 5.321a73.842 73.842 0 0 0 2.1 7.694h-4.993a35.662 35.662 0 0 1-1.788-6.511c-0.788-3.6-2.022-4.745-4.8-4.832h-2.46v11.344h-4.84zm4.84 12.154h2.92c3.3 0 5.321-1.8 5.321-4.54 0-2.993-2.022-4.424-5.2-4.424a13.462 13.462 0 0 0-3.015 0.248z"/>
    <path class="d" transform="translate(-307.67 -69.476)" d="m1138.5 260.07a53.28 53.28 0 0 1 7.781-0.569c4.993 0 8.409 1.058 10.861 3.19 2.621 2.19 4.2 5.482 4.2 10.146 0 4.956-1.621 8.6-4.161 10.949-2.657 2.5-6.905 3.767-12.1 3.767a52.677 52.677 0 0 1-6.57-0.372zm4.883 23.41a17.405 17.405 0 0 0 2.693 0.124c6.351 0.044 10.117-3.6 10.117-10.6 0-6.059-3.372-9.577-9.49-9.577a15.618 15.618 0 0 0-3.329 0.285z"/>
    <rect class="l" transform="translate(590.29 295.15)" width="12.103" height="22.534"/>
    <path class="l" transform="translate(-218.69 -108.37)" d="m809 417.01v-13.49h12.1v5.657a30.978 30.978 0 0 1-9.906 7.1c-0.734 0.28-1.464 0.528-2.194 0.733z"/>
    <path class="l" transform="translate(-222.38 -102.4)" d="m823.2 385.8s0.854-5.387 3.708-4.219 2 12.811-1.854 12.475-1.854-8.256-1.854-8.256z"/>
    <path class="l" transform="translate(-222.38 -102.4)" d="m823.2 385.8s0.854-5.387 3.708-4.219 2 12.811-1.854 12.475-1.854-8.256-1.854-8.256z"/>
    <rect class="m" transform="translate(551.39 251.84)" width="101.05" height="104.26"/>
    <ellipse class="n" transform="translate(578.06 265.02)" cx="23.687" cy="24.446" rx="23.687" ry="24.446"/>
    <path class="n" transform="translate(-209.66 -114.24)" d="m847.25 459.78c-4.54-19.935-18.862-34.5-35.841-34.5s-31.293 14.6-35.833 34.5z"/>
    <path class="d" transform="translate(-287.89 -91.455)" d="m1146.8 345.7h-79.288a2.409 2.409 0 0 1 0-4.81h79.288a2.409 2.409 0 0 1 0 4.81z"/>
    <path class="d" transform="translate(-252.12 -91.455)" d="m1039.3 345.7h-104.26a2.409 2.409 0 0 1 0-4.81h104.26a2.409 2.409 0 0 1 0 4.81z"/>
    <path class="d" transform="translate(-203.81 -138.89)" d="m848.92 521.33h-92.609a2.4 2.4 0 0 1 0-4.8h92.609a2.4 2.4 0 0 1 0 4.8z"/>
    <path class="o" transform="translate(-243.67 -161.13)" d="m996.52 603.7h-92.61a2.4 2.4 0 1 1 0-4.8h92.609a2.4 2.4 0 1 1 0 4.8z"/>
    <path class="o" transform="translate(-243.72 -168.96)" d="m996.57 632.69h-92.609a2.409 2.409 0 0 1 0-4.81h92.609a2.409 2.409 0 0 1 0 4.81z"/>
    <path class="o" transform="translate(-243.72 -176.78)" d="m996.57 661.67h-92.609a2.409 2.409 0 0 1 0-4.811h92.609a2.409 2.409 0 0 1 0 4.811z"/>
    <path class="o" transform="translate(-243.67 -184.61)" d="m996.52 690.65h-92.61a2.4 2.4 0 1 1 0-4.8h92.609a2.4 2.4 0 1 1 0 4.8z"/>
    <path class="o" transform="translate(-283.01 -161.13)" d="m1142.2 603.7h-92.609a2.4 2.4 0 1 1 0-4.8h92.609a2.4 2.4 0 1 1 0 4.8z"/>
    <path class="o" transform="translate(-283.06 -168.96)" d="m1142.2 632.69h-92.609a2.409 2.409 0 0 1 0-4.81h92.609a2.409 2.409 0 0 1 0 4.81z"/>
    <path class="o" transform="translate(-283.06 -176.78)" d="m1142.2 661.67h-92.609a2.409 2.409 0 0 1 0-4.811h92.609a2.409 2.409 0 0 1 0 4.811z"/>
    <path class="o" transform="translate(-283.01 -184.61)" d="m1142.2 690.65h-92.609a2.4 2.4 0 1 1 0-4.8h92.609a2.4 2.4 0 1 1 0 4.8z"/>
    <path class="d" transform="translate(-243.41 -138.89)" d="m995.56 521.33h-92.609a2.4 2.4 0 1 1 0-4.8h92.609a2.4 2.4 0 0 1 0 4.8z"/>
    <path class="d" transform="translate(-283.01 -138.89)" d="m1142.2 521.33h-92.609a2.4 2.4 0 1 1 0-4.8h92.609a2.4 2.4 0 1 1 0 4.8z"/>
    <path class="o" transform="translate(-301.64 -99.16)" d="m1160.6 374.22h-42a2.4 2.4 0 1 1 0-4.8h42a2.4 2.4 0 1 1 0 4.8z"/>
    <path class="o" transform="translate(-252.08 -99.16)" d="m1039.3 374.22h-104.26a2.4 2.4 0 1 1 0-4.8h104.26a2.4 2.4 0 0 1 0 4.8z"/>
    <path class="o" transform="translate(-290.69 -106.88)" d="m1135.6 402.83h-57.732a2.409 2.409 0 0 1 0-4.81h57.732a2.409 2.409 0 0 1 0 4.81z"/>
    <path class="o" transform="translate(-252.12 -106.88)" d="m994.49 402.83h-59.411a2.409 2.409 0 0 1 0-4.81h59.411a2.409 2.409 0 0 1 0 4.81z"/>
    <path class="o" transform="translate(-290.69 -114.6)" d="m1117.6 431.4h-39.673a2.409 2.409 0 0 1 0-4.81h39.673a2.409 2.409 0 0 1 0 4.81z"/>
    <path class="o" transform="translate(-252.12 -114.6)" d="m1006.1 431.4h-71.061a2.409 2.409 0 0 1 0-4.81h71.061a2.409 2.409 0 0 1 0 4.81z"/>
    <path class="o" transform="translate(-282.29 -122.31)" d="m1141.2 459.96h-94.434a2.409 2.409 0 0 1 0-4.81h94.434a2.409 2.409 0 0 1 0 4.81z"/>
    <path class="o" transform="translate(-252.12 -122.31)" d="m982.26 459.96h-47.184a2.409 2.409 0 0 1 0-4.81h47.184a2.409 2.409 0 0 1 0 4.81z"/>
    <path class="o" transform="translate(-294.14 -130.03)" d="m1153.1 488.53h-62.389a2.409 2.409 0 0 1 0-4.81h62.389a2.409 2.409 0 0 1 0 4.81z"/>
    <path class="o" transform="translate(-252.12 -130.03)" d="m1016 488.53h-80.959a2.409 2.409 0 0 1 0-4.81h80.959a2.409 2.409 0 0 1 0 4.81z"/>
    <path class="d" transform="translate(-286.71 -192.71)" d="m1105.4 807.64c-24.534 0-44.491-20.592-44.491-45.9s19.957-45.9 44.491-45.9 44.483 20.592 44.483 45.9-19.957 45.9-44.483 45.9zm0-87.485c-22.22 0-40.3 18.657-40.3 41.607s18.081 41.607 40.3 41.607 40.3-18.65 40.3-41.607-18.08-41.607-40.3-41.607z"/>
    <ellipse class="d" transform="translate(785.7 535.01)" cx="32.972" cy="34.023" rx="32.972" ry="34.023"/>
    <path class="p" transform="translate(-234.44 -50.168)" d="m1009.1 223.26h-136.01c-3.161 0-5.738-2.3-5.738-5.11v-25.037c0-2.832 2.577-5.11 5.738-5.11h136.01c3.161 0 5.737 2.3 5.737 5.11v24.99c0 2.857-2.577 5.157-5.737 5.157zm-136.01-32.739a2.789 2.789 0 0 0-2.92 2.621v24.994a2.788 2.788 0 0 0 2.92 2.613h136.01a2.789 2.789 0 0 0 2.92-2.613v-25.023a2.789 2.789 0 0 0-2.92-2.621z" fill="url(#b)"/>
    <rect class="q" transform="translate(642.26 127.13)" width="128.76" height="24.461"/>
    <path class="f" transform="translate(-123.56 -230.27)" d="m458.2 876.78c-0.818 0-1.46-3.65-1.46-8.132s0.693-8.161 1.518-8.161l759.73-5.569c0.825 0 1.46 3.65 1.46 8.139s-0.73 8.154-1.518 8.161l-759.74 5.562z"/>
    <path class="f" transform="translate(-324.66 -152.1)" d="m1203.3 794.01a0.927 0.927 0 0 1-0.38-0.606c-4.277-22.672 0.606-46.717 14.5-71.536 12.519-22.329 31.943-44.68 57.747-66.426 23.439-19.76 51.87-38.585 82.215-54.455 29.3-15.329 59.776-27.592 88.135-35.5a0.971 0.971 0 1 1 0.518 1.869c-58.4 16.278-123.36 50.593-169.62 89.573-54.112 45.608-79.565 93.96-71.594 136.14a0.971 0.971 0 0 1-1.526 0.964z"/>
    <path class="f" transform="translate(-415.06 -142.97)" d="m1536.2 557.28c0.905 3.175 24.665 8.03 49.119 4.774 11.679-1.6 23.154-4.453 56.134-14.5-7.964-6.438-21.314-12.665-36.8-14.993-42.613-6.311-69.227 21.975-68.453 24.719z"/>
    <path class="f" transform="translate(-393.43 -130.23)" d="m1463.6 562.6c3.124 0.19 15.183-10.723 23.052-19.986 18.979-22.351 19.709-42.856 27.526-58.134-9.657 0.934-25.84 7.708-38.914 19.563-31.621 28.607-15.438 58.367-11.664 58.557z"/>
    <path class="f" transform="translate(-363.99 -135.03)" d="m1360.5 600.99c8.358 5.219 5.241-0.489 18.169-26.279 12.752-25.424 30.782-61.608 18.979-72.47-7.46 12.657-25.241 20.439-39.549 40.593-17.818 25.381-11.993 48.968 2.401 58.156z"/>
    <path class="f" transform="translate(-329.11 -153.72)" d="m1242.1 675.32c5.19 1.737 12.132 2.489 16.869 1.131 2.19-0.606 2.694-1.066 1.241-6.445-3.256-11.679-4.628-17.059-5.329-39.272-0.73-16.176-1.372-44.366 5.037-59.28-14.358 6.154-36.614 31.33-41.089 57.958-4.139 24.141 6.745 40.39 23.271 45.908z"/>
    <path class="f" transform="translate(-304.37 -186.65)" d="m1171.9 779.65c1.46 1.416 11.219 10.6 13.044 9.621 3.862-2 11.409-58.207-18.767-84.6a47.446 47.446 0 0 0-26.607-11.081 42.377 42.377 0 0 0-13.344 0.861c13.914 51.483 27.931 68.856 45.674 85.199z"/>
    <path class="f" transform="translate(-385.91 -163.01)" d="m1428.6 607.94c-0.606 0.73-0.467 2.584 0.5 5.11 3.883 10.1 17.482 22.242 36.5 25.746a65.126 65.126 0 0 0 44.746-8.124 74.079 74.079 0 0 0 14.6-11.679c-0.818-0.212-3.037-0.664-5.051-0.993-9.271-1.577-7.366-0.81-24.176-4.38 0 0-1.183-0.263-11.869-2.956-26.679-6.79-53.435-5.045-55.25-2.724z"/>
    <path class="f" transform="translate(-357.44 -180.82)" d="m1352 674.45c-10.949-2.35-26.461-3.548-28.3-1.781-0.73 0.693-1.095 2.584-0.832 5.3a21.042 21.042 0 0 0 0.992 4.577c2.767 9.351 12.3 19.9 26.352 25.074 23.052 8.4 47.381 0.913 54.257-2.752-9.752-7.789-20.869-16.6-31.782-22.687a69.97 69.97 0 0 0-20.687-7.731z"/>
    <path class="f" transform="translate(-334.66 -202.18)" d="m1266.4 752.03c-14.526-3.57-27.271 2.307-27.913 4.307s3.2 6.811 4.745 8.5a112.97 112.97 0 0 0 16.059 14.942c9.906 7.978 19.906 12.358 51.1 31.468a123.73 123.73 0 0 0-7.642-24.46c-7.844-17.055-18.108-30.1-36.349-34.757z"/>
    <path class="r" transform="translate(-160.69 -62.379)" d="m594.95 233.37a4.329 4.329 0 0 0 0.9-0.153 9.236 9.236 0 0 1-1.635 0.38l0.664-0.2z"/>
    <path class="r" transform="translate(-161.06 -62.381)" d="m595.59 233.31c0.431-0.087 0.847-0.131 0 0z"/>
    <path class="s" transform="translate(-140.27 -144.26)" d="m640.8 737.75c-24.928-8.248-52.922-24.169-74.886-42.593-19.329-16.212-43.067-42.023-46.535-72.952-1.825-16.388-0.4-31.658 4.219-45.389 4.891-14.512 12.19-23.76 17.446-28.965 7.3-7.241 15.541-11.4 22.556-11.417h86.361v13h-86.321c-1.854 0-6.519 1.905-11.8 7.132-14.19 14.037-20.913 38.089-17.986 64.353 1.65 14.855 10.285 38.147 42.016 64.761 20.311 17.04 47.13 32.316 69.984 39.88z"/>
    <rect class="h" transform="translate(508.98 403.16)" width="57.564" height="59.798"/>
    <path class="m" transform="translate(30.257,-48.435)" d="m473.28 488.14h72.09a18.169 18.169 0 0 1 18.183 18.147v169.47a4.146 4.146 0 0 1-4.146 4.146h-100.14a4.146 4.146 0 0 1-4.146-4.146v-169.47a18.169 18.169 0 0 1 18.154-18.147z"/>
    <path class="e" transform="translate(-182.57 -163.85)" d="m769 633.5c0-21.125-19.169-24.541-42.8-24.541h-8.132c-23.636 0-42.8 3.416-42.8 24.541v87.763h93.732z"/>
    <path class="d" transform="translate(-182.57 -205.39)" d="m675.26 762.81v55.615c0 4.869 4.423 8.818 9.876 8.818h73.988c5.453 0 9.876-3.949 9.876-8.818v-55.615z"/>
    <rect class="t" transform="translate(512.83 403.16)" width="50.228" height="59.798"/>
    <rect class="j" transform="translate(503.03 394.18)" width="69.149" height="8.978" rx="2.06"/>
    <path class="h" transform="translate(-187.06 -167.48)" d="m696.8 655.89a4.632 4.632 0 0 1-4.84-4.168c-0.73-16.322 2.993-21.293 9.154-27.534l0.3-0.307a5.263 5.263 0 0 1 6.84-0.387 4.022 4.022 0 0 1 0.431 6.117l-0.3 0.307c-4.577 4.635-7.3 7.438-6.737 21.475a4.58 4.58 0 0 1-4.657 4.5z"/>
    <path class="h" transform="translate(-187.06 -185.96)" d="m696.72 758.69a4.616 4.616 0 0 1-4.847-4.336v-59.177a4.881 4.881 0 0 1 9.7 0v59.178a4.619 4.619 0 0 1-4.853 4.335z"/>
    <rect class="m" transform="translate(474.54 410.76)" width="22.789" height="26.132" rx="5.23"/>
    <rect class="h" transform="translate(478.65 400.98)" width="13.803" height="14.599"/>
    <rect class="m" transform="translate(470.04 394.85)" width="30.687" height="7.65"/>
    <path class="r" transform="translate(-111.87 -192.27)" d="m479.21 743.71c7.767-24.089-42.761-35.038-65.769-26.731 13.227 33.49 55.272 59.243 65.769 26.731z"/>
    <path class="e" transform="translate(-112.14 -193.3)" d="m479.26 749.25a0.672 0.672 0 0 0-0.343-0.876l-63.506-30.3a0.66576 0.66576 0 1 0-0.577 1.2l63.506 30.3a0.679 0.679 0 0 0 0.905-0.307z"/>
    <path class="e" transform="translate(-113.39 -195.31)" d="m428.44 726.42a0.606 0.606 0 0 0 0-0.467 0.73 0.73 0 0 0-0.861-0.445l-8.03 2.394a0.657 0.657 0 0 0-0.438 0.832 0.73 0.73 0 0 0 0.861 0.445l8.031-2.394a0.657 0.657 0 0 0 0.437-0.365z"/>
    <path class="e" transform="translate(-117.12 -192.27)" d="m438.81 726.55a0.621 0.621 0 0 0 0-0.511l-4.6-11.4a0.73 0.73 0 0 0-0.891-0.394 0.657 0.657 0 0 0-0.38 0.861l4.613 11.4a0.73 0.73 0 0 0 0.89 0.394 0.649 0.649 0 0 0 0.368-0.35z"/>
    <path class="e" transform="translate(-116.76 -197.98)" d="m446.81 736.28a0.657 0.657 0 0 0-0.044-0.613 0.73 0.73 0 0 0-0.942-0.241l-13.941 8.17a0.65 0.65 0 0 0-0.219 0.912 0.73 0.73 0 0 0 0.942 0.241l13.942-8.2a0.65 0.65 0 0 0 0.263-0.27z"/>
    <path class="e" transform="translate(-124.15 -192.91)" d="m464.65 736.17a0.728 0.728 0 0 0 0.036-0.416l-4.423-18.636a0.73 0.73 0 0 0-0.818-0.518 0.65 0.65 0 0 0-0.511 0.788l4.424 18.636a0.73 0.73 0 0 0 0.825 0.518 0.672 0.672 0 0 0 0.467-0.372z"/>
    <path class="e" transform="translate(-123.95 -201.39)" d="m473.38 748.89a0.657 0.657 0 0 0-0.161-0.73 0.73 0.73 0 0 0-0.964 0l-13.869 14.117a0.657 0.657 0 0 0 0 0.942 0.686 0.686 0 0 0 0.964 0l13.869-14.11a0.583 0.583 0 0 0 0.161-0.219z"/>
    <path class="e" transform="translate(-132.06 -195.51)" d="m491.04 747.58a0.73 0.73 0 0 0 0.051-0.307l-1.518-20.439a0.73 0.73 0 0 0-0.73-0.635 0.65 0.65 0 0 0-0.628 0.73l1.518 20.439a0.73 0.73 0 0 0 0.73 0.628 0.657 0.657 0 0 0 0.577-0.416z"/>
    <path class="e" transform="translate(-171.52 -105.02)" d="m661.87 470.41c-24.819 3.212-33.315-55.557-23.68-79.3 33.272 22.305 57.214 74.957 23.68 79.3z"/>
    <path class="f" transform="translate(-172.95 -105.02)" d="m667.56 469.63c-8.46-13.957-18.292-51.214-27.943-78.521 33.271 22.307 56.68 75.105 27.943 78.521z"/>
    <path class="f" transform="translate(38.591,2.917)" d="m435.94 307.07 0.766-1.139-11.665-7.949-0.766 1.139z"/>
    <path class="f" transform="translate(38.469,-5.174)" d="m444.5 338.86 0.591-1.241-19.791-9.679-0.584 1.241z"/>
    <path class="f" transform="translate(-172.73 -104.9)" d="m671.33 475.68a0.687 0.687 0 0 0 0-0.818c-8.168-12.022-15.176-34.651-21.359-54.615-3.453-11.132-6.708-21.65-9.8-29.118a0.73 0.73 0 0 0-0.92-0.409 0.679 0.679 0 0 0-0.372 0.9c3.058 7.409 6.307 17.9 9.745 29 6.219 20.059 13.256 42.8 21.548 54.995a0.752 0.752 0 0 0 1.153 0.066z"/>
    <path class="f" transform="translate(35.936,-14.939)" d="m455.36 371.93 0.372-1.329-21.264-6.5-0.372 1.328z"/>
    <path class="f" transform="translate(-171.26 -104.63)" d="m661.72 470.72c-5.956 0.766-11.292-1.774-15.855-7.555-5.964-7.54-10.292-20.541-11.884-35.658-1.518-14.395-0.285-28.249 3.292-37.06l0.314-0.774 0.73 0.482c11.57 7.752 22.629 19.621 30.344 32.556s11.146 25.6 9.3 34.359a16.886 16.886 0 0 1-3.234 7.11c-2.829 3.562-7.218 5.788-13.007 6.54zm-14.76-8.387c4.227 5.35 9.117 7.708 14.541 7.008l0.11 0.686-0.11-0.686c8.482-1.1 13.563-5.343 15.1-12.606 1.781-8.453-1.547-20.607-9.146-33.344a103.71 103.71 0 0 0-29.2-31.6c-6.704 17.832-3.813 54.702 8.706 70.542z"/>
    <path class="e" transform="translate(-174.65 -107.08)" d="m647.16 408.57a0.775 0.775 0 0 0 0.11-0.2l2.92-8.679a0.73 0.73 0 0 0-0.445-0.891 0.679 0.679 0 0 0-0.883 0.409l-2.92 8.686a0.711 0.711 0 0 0 1.219 0.679z"/>
    <path class="e" transform="translate(-177.13,-112.06)" d="m656.35 432.43 0.037-0.051 9.285-14.11a0.711 0.711 0 0 0-1.183-0.788l-9.289 14.117a0.71 0.71 0 0 0 1.146 0.832z"/>
    <path class="e" transform="translate(-180.31 -121.49)" d="m684 453.25a0.7 0.7 0 0 0-0.986-0.985l-15.891 12.964a0.686 0.686 0 0 0-0.08 0.978 0.73 0.73 0 0 0 0.985 0.11l15.9-12.964z"/>
    <path class="f" transform="translate(-431.84 -111.84)" d="m1601.3 419.1h-1.644a1.3725 1.3725 0 1 1 0-2.745h1.642a1.3725 1.3725 0 1 1 0 2.745z"/>
    <path class="f" transform="translate(-435.27 -111.84)" d="m1635.2 419.1h-7.6a1.3725 1.3725 0 1 1 0-2.745h7.6a1.3725 1.3725 0 1 1 0 2.745zm-15.2 0h-7.6a1.3725 1.3725 0 0 1 0-2.745h7.6a1.3725 1.3725 0 1 1 0 2.745z"/>
    <path class="f" transform="translate(-446.5 -110.62)" d="m1657.3 417.89h-3.292a1.3725 1.3725 0 1 1 0-2.745h1.919v-1.92a1.373 1.373 0 0 1 2.745 0v3.292a1.373 1.373 0 0 1-1.373 1.372z"/>
    <path class="f" transform="translate(-447.72,-74.92)" d="m1658.5 372.01a1.372 1.372 0 0 1-1.372-1.372v-6.9a1.3725 1.3725 0 0 1 2.745 0v6.9a1.373 1.373 0 0 1-1.373 1.372zm0-13.789a1.372 1.372 0 0 1-1.372-1.372v-6.862a1.3725 1.3725 0 0 1 2.745 0v6.891a1.373 1.373 0 0 1-1.373 1.343zm0-13.782a1.372 1.372 0 0 1-1.372-1.372v-6.891a1.3725 1.3725 0 0 1 2.745 0v6.891a1.373 1.373 0 0 1-1.373 1.372zm0-13.781a1.372 1.372 0 0 1-1.372-1.372v-6.9a1.3725 1.3725 0 0 1 2.745 0v6.9a1.373 1.373 0 0 1-1.373 1.372zm0-13.789a1.372 1.372 0 0 1-1.372-1.372v-6.894a1.3725 1.3725 0 0 1 2.745 0v6.891a1.373 1.373 0 0 1-1.373 1.372zm0-13.782a1.372 1.372 0 0 1-1.372-1.372v-6.891a1.3725 1.3725 0 0 1 2.745 0v6.891a1.373 1.373 0 0 1-1.373 1.372zm0-13.781a1.372 1.372 0 0 1-1.372-1.372v-6.9a1.3725 1.3725 0 0 1 2.745 0v6.905a1.373 1.373 0 0 1-1.373 1.365z"/>
    <path class="f" transform="translate(-446.5 -71.159)" d="m1657.3 271.77a1.372 1.372 0 0 1-1.373-1.372v-1.92h-1.919a1.3725 1.3725 0 1 1 0-2.745h3.292a1.372 1.372 0 0 1 1.372 1.372v3.292a1.373 1.373 0 0 1-1.373 1.372z"/>
    <path class="f" transform="translate(-359.46 -71.153)" d="m1338.2 265.71h-6.569a1.3725 1.3725 0 0 0 0 2.745h6.569a1.3725 1.3725 0 0 0 0-2.745z"/>
    <path class="f" transform="translate(-383.64 -71.153)" d="m1427.8 265.71h-6.57a1.3725 1.3725 0 0 0 0 2.745h6.57a1.3725 1.3725 0 1 0 0-2.745z"/>
    <path class="f" transform="translate(-364.31 -71.153)" d="m1356.2 265.71h-6.533a1.3725 1.3725 0 0 0 0 2.745h6.533a1.3725 1.3725 0 1 0 0-2.745z"/>
    <path class="f" transform="translate(-354.63 -71.153)" d="m1320.3 265.71h-6.569a1.3725 1.3725 0 1 0 0 2.745h6.569a1.3725 1.3725 0 0 0 0-2.745z"/>
    <path class="f" transform="translate(-373.97 -71.153)" d="m1392 265.71h-6.569a1.3725 1.3725 0 0 0 0 2.745h6.569a1.3725 1.3725 0 1 0 0-2.745z"/>
    <path class="f" transform="translate(-378.8 -71.153)" d="m1409.9 265.71h-6.57a1.3725 1.3725 0 0 0 0 2.745h6.57a1.3725 1.3725 0 0 0 0-2.745z"/>
    <path class="f" transform="translate(-369.14 -71.153)" d="m1374.1 265.71h-6.57a1.3725 1.3725 0 0 0 0 2.745h6.57a1.3725 1.3725 0 0 0 0-2.745z"/>
    <path class="f" transform="translate(-349.79 -71.153)" d="m1302.4 265.71h-6.57a1.3725 1.3725 0 0 0 0 2.745h6.57a1.3725 1.3725 0 0 0 0-2.745z"/>
    <path class="f" transform="translate(-345.06 -71.153)" d="m1284.6 265.71h-6.569a1.365 1.365 0 0 0-1.1 0.555v1.628a1.373 1.373 0 0 0 1.1 0.562h6.569a1.3725 1.3725 0 1 0 0-2.745z"/>
    <path class="f" transform="translate(-417.48 -71.153)" d="m1553.1 265.71h-6.57a1.3725 1.3725 0 1 0 0 2.745h6.57a1.3725 1.3725 0 0 0 0-2.745z"/>
    <path class="f" transform="translate(-422.34 -71.153)" d="m1571.1 265.71h-6.57a1.3725 1.3725 0 0 0 0 2.745h6.57a1.3725 1.3725 0 1 0 0-2.745z"/>
    <path class="f" transform="translate(-431.99 -71.153)" d="m1606.8 265.71h-6.57a1.3725 1.3725 0 0 0 0 2.745h6.57a1.3725 1.3725 0 0 0 0-2.745z"/>
    <path class="f" transform="translate(-427.16 -71.153)" d="m1588.9 265.71h-6.569a1.3725 1.3725 0 0 0 0 2.745h6.569a1.3725 1.3725 0 1 0 0-2.745z"/>
    <path class="f" transform="translate(-436.83 -71.153)" d="m1624.7 265.71h-6.57a1.3725 1.3725 0 0 0 0 2.745h6.57a1.3725 1.3725 0 1 0 0-2.745z"/>
    <path class="f" transform="translate(-441.66 -71.153)" d="m1642.6 265.71h-6.57a1.3725 1.3725 0 0 0 0 2.745h6.57a1.3725 1.3725 0 0 0 0-2.745z"/>
    <path class="f" transform="translate(-388.49 -71.153)" d="m1445.7 265.71h-6.533a1.3725 1.3725 0 0 0 0 2.745h6.533a1.3725 1.3725 0 0 0 0-2.745z"/>
    <path class="f" transform="translate(-393.31 -71.153)" d="m1463.6 265.71h-6.57a1.3725 1.3725 0 0 0 0 2.745h6.57a1.3725 1.3725 0 0 0 0-2.745z"/>
    <path class="f" transform="translate(-398.14 -71.153)" d="m1481.5 265.71h-6.57a1.3725 1.3725 0 0 0 0 2.745h6.57a1.3725 1.3725 0 0 0 0-2.745z"/>
    <path class="f" transform="translate(-402.98 -71.153)" d="m1499.4 265.71h-6.57a1.3725 1.3725 0 0 0 0 2.745h6.57a1.3725 1.3725 0 0 0 0-2.745z"/>
    <path class="f" transform="translate(-407.82 -71.153)" d="m1517.3 265.71h-6.57a1.3725 1.3725 0 1 0 0 2.745h6.57a1.3725 1.3725 0 0 0 0-2.745z"/>
    <path class="f" transform="translate(-412.65 -71.153)" d="m1535.2 265.71h-6.57a1.3725 1.3725 0 0 0 0 2.745h6.57a1.3725 1.3725 0 0 0 0-2.745z"/>
    <path class="f" transform="translate(-68.378 -116.48)" d="m253.77 442.98a1.372 1.372 0 0 0 1.372-1.372v-6.57a1.38 1.38 0 1 0-2.752 0v6.57a1.38 1.38 0 0 0 1.38 1.372z"/>
    <path class="f" transform="translate(-68.379 -121.43)" d="m253.77 461.12a1.372 1.372 0 0 0 1.372-1.372v-6.57a1.38 1.38 0 0 0-2.752 0v6.57a1.38 1.38 0 0 0 1.38 1.372z"/>
    <path class="f" transform="translate(-68.379 -111.68)" d="m253.77 425a1.379 1.379 0 0 0 1.372-1.38v-6.57a1.38 1.38 0 0 0-2.752 0v6.57a1.38 1.38 0 0 0 1.38 1.38z"/>
    <path class="f" transform="translate(-68.652 -130.88)" d="m261.34 486.89h-6.57a1.3725 1.3725 0 0 0 0 2.745h6.57a1.3725 1.3725 0 0 0 0-2.745z"/>
    <path class="f" transform="translate(-68.379 -126.31)" d="m255.14 477.82v-6.57a1.38 1.38 0 0 0-2.752 0v6.57a1.38 1.38 0 0 0 2.752 0z"/>
    <path class="f" transform="translate(-68.378,-62.823)" d="m253.77 244.28a1.372 1.372 0 0 0 1.372-1.372v-6.57a1.38 1.38 0 1 0-2.752 0v6.57a1.38 1.38 0 0 0 1.38 1.372z"/>
    <path class="f" transform="translate(-68.379,-67.774)" d="m253.77 262.42a1.372 1.372 0 0 0 1.372-1.372v-6.57a1.38 1.38 0 0 0-2.752 0v6.57a1.38 1.38 0 0 0 1.38 1.372z"/>
    <path class="f" transform="translate(-68.379 -106.8)" d="m253.77 406.93a1.372 1.372 0 0 0 1.372-1.372v-6.57a1.38 1.38 0 0 0-2.752 0v6.57a1.38 1.38 0 0 0 1.38 1.372z"/>
    <path class="f" transform="translate(-68.379,-72.651)" d="m253.77 280.49a1.38 1.38 0 0 0 1.372-1.38v-6.57a1.38 1.38 0 0 0-2.752 0v6.57a1.38 1.38 0 0 0 1.38 1.38z"/>
    <path class="f" transform="translate(-68.378,-77.467)" d="m253.77 298.51a1.372 1.372 0 0 0 1.372-1.372v-6.57a1.38 1.38 0 1 0-2.752 0v6.57a1.38 1.38 0 0 0 1.38 1.372z"/>
    <path class="f" transform="translate(-68.436,-56.271)" d="m252.6 210.6a1.365 1.365 0 0 0 2.445 0z"/>
    <path class="f" transform="translate(-68.379,-58.017)" d="m253.77 226.29a1.372 1.372 0 0 0 1.372-1.372v-6.57a1.38 1.38 0 0 0-2.752 0v6.57a1.38 1.38 0 0 0 1.38 1.372z"/>
    <path class="f" transform="translate(-73.532 -130.88)" d="m279.41 486.89h-6.57a1.3725 1.3725 0 0 0 0 2.745h6.57a1.3725 1.3725 0 0 0 0-2.745z"/>
    <path class="f" transform="translate(-68.379,-97.042)" d="m253.77 370.8a1.372 1.372 0 0 0 1.372-1.372v-6.57a1.38 1.38 0 0 0-2.752 0v6.57a1.38 1.38 0 0 0 1.38 1.372z"/>
    <path class="f" transform="translate(-68.378 -101.85)" d="m253.77 388.79a1.372 1.372 0 0 0 1.372-1.372v-6.57a1.38 1.38 0 1 0-2.752 0v6.57a1.38 1.38 0 0 0 1.38 1.372z"/>
    <path class="f" transform="translate(-68.379,-92.165)" d="m253.77 352.74a1.372 1.372 0 0 0 1.372-1.372v-6.567a1.38 1.38 0 0 0-2.752 0v6.57a1.38 1.38 0 0 0 1.38 1.369z"/>
    <path class="f" transform="translate(-68.379,-82.403)" d="m253.77 316.59a1.372 1.372 0 0 0 1.372-1.372v-6.57a1.38 1.38 0 0 0-2.752 0v6.57a1.38 1.38 0 0 0 1.38 1.372z"/>
    <path class="f" transform="translate(-68.379,-87.288)" d="m253.77 334.68a1.372 1.372 0 0 0 1.372-1.372v-6.57a1.38 1.38 0 0 0-2.752 0v6.57a1.38 1.38 0 0 0 1.38 1.372z"/>
    <path class="f" transform="translate(-78.409 -130.88)" d="m297.47 486.89h-6.572a1.3725 1.3725 0 1 0 0 2.745h6.57a1.3725 1.3725 0 0 0 0-2.745z"/>
    <path class="f" transform="translate(-151.58 -130.88)" d="m568.43 486.89h-6.57a1.3725 1.3725 0 0 0 0 2.745h6.57a1.3725 1.3725 0 0 0 0-2.745z"/>
    <path class="f" transform="translate(-155.28,-117.52)" d="m575.57 437.41a1.38 1.38 0 0 0-1.379 1.372v6.569a1.38 1.38 0 0 0 2.752 0v-6.569a1.372 1.372 0 0 0-1.373-1.372z"/>
    <path class="f" transform="translate(-155.28 -122.4)" d="m575.57 455.47a1.38 1.38 0 0 0-1.379 1.372v6.57a1.38 1.38 0 0 0 2.752 0v-6.57a1.372 1.372 0 0 0-1.373-1.372z"/>
    <path class="f" transform="translate(-141.82 -130.88)" d="m532.3 486.89h-6.57a1.3725 1.3725 0 0 0 0 2.745h6.57a1.3725 1.3725 0 0 0 0-2.745z"/>
    <path class="f" transform="translate(-146.7 -130.88)" d="m550.36 486.89h-6.57a1.3725 1.3725 0 1 0 0 2.745h6.57a1.3725 1.3725 0 0 0 0-2.745z"/>
    <path class="f" transform="translate(-136.95 -130.88)" d="m514.24 486.89h-6.57a1.3725 1.3725 0 1 0 0 2.745h6.57a1.3725 1.3725 0 0 0 0-2.745z"/>
    <path class="f" transform="translate(-155.28,-93.129)" d="m575.57 347.09a1.38 1.38 0 0 0-1.379 1.372v6.57a1.38 1.38 0 0 0 2.752 0v-6.57a1.372 1.372 0 0 0-1.373-1.372z"/>
    <path class="f" transform="translate(-155.28 -98.007)" d="m575.57 365.15a1.38 1.38 0 0 0-1.379 1.372v6.569a1.38 1.38 0 1 0 2.752 0v-6.569a1.372 1.372 0 0 0-1.373-1.372z"/>
    <path class="f" transform="translate(-155.28 -102.88)" d="m575.57 383.21a1.38 1.38 0 0 0-1.38 1.38v6.57a1.38 1.38 0 0 0 2.752 0v-6.57a1.38 1.38 0 0 0-1.372-1.38z"/>
    <path class="f" transform="translate(-155.28 -107.76)" d="m575.57 401.28a1.38 1.38 0 0 0-1.379 1.372v6.57a1.38 1.38 0 0 0 2.752 0v-6.57a1.372 1.372 0 0 0-1.373-1.372z"/>
    <path class="f" transform="translate(-155.28,-112.64)" d="m575.57 419.34a1.379 1.379 0 0 0-1.379 1.372v6.57a1.38 1.38 0 0 0 2.752 0v-6.57a1.372 1.372 0 0 0-1.373-1.372z"/>
    <path class="f" transform="translate(-155.28 -127.27)" d="m575.57 473.53a1.38 1.38 0 0 0-1.379 1.372v6.569a1.38 1.38 0 0 0 2.752 0v-6.571a1.372 1.372 0 0 0-1.373-1.37z"/>
    <path class="f" transform="translate(-93.042 -130.88)" d="m351.66 486.89h-6.57a1.3725 1.3725 0 0 0 0 2.745h6.57a1.3725 1.3725 0 0 0 0-2.745z"/>
    <path class="f" transform="translate(-97.922 -130.88)" d="m369.73 486.89h-6.57a1.3725 1.3725 0 0 0 0 2.745h6.57a1.3725 1.3725 0 0 0 0-2.745z"/>
    <path class="f" transform="translate(-83.288 -130.88)" d="m315.54 486.89h-6.57a1.3725 1.3725 0 1 0 0 2.745h6.57a1.3725 1.3725 0 1 0 0-2.745z"/>
    <path class="f" transform="translate(-102.8 -130.88)" d="m387.79 486.89h-6.57a1.3725 1.3725 0 0 0 0 2.745h6.57a1.3725 1.3725 0 1 0 0-2.745z"/>
    <path class="f" transform="translate(-88.165 -130.88)" d="m333.6 486.89h-6.57a1.3725 1.3725 0 0 0 0 2.745h6.57a1.3725 1.3725 0 0 0 0-2.745z"/>
    <path class="f" transform="translate(-132.07 -130.88)" d="m496.17 486.89h-6.572a1.3725 1.3725 0 0 0 0 2.745h6.57a1.3725 1.3725 0 1 0 0-2.745z"/>
    <path class="f" transform="translate(-122.32 -130.88)" d="m460.06 486.89h-6.57a1.3725 1.3725 0 0 0 0 2.745h6.57a1.3725 1.3725 0 0 0 0-2.745z"/>
    <path class="f" transform="translate(-127.19 -130.88)" d="m478.11 486.89h-6.57a1.3725 1.3725 0 0 0 0 2.745h6.57a1.3725 1.3725 0 0 0 0-2.745z"/>
    <path class="f" transform="translate(-107.68 -130.88)" d="m405.85 486.89h-6.57a1.3725 1.3725 0 0 0 0 2.745h6.57a1.3725 1.3725 0 0 0 0-2.745z"/>
    <path class="f" transform="translate(-112.56 -130.88)" d="m423.92 486.89h-6.57a1.3725 1.3725 0 0 0 0 2.745h6.57a1.3725 1.3725 0 0 0 0-2.745z"/>
    <path class="f" transform="translate(-117.43 -130.88)" d="m441.98 486.89h-6.57a1.3725 1.3725 0 0 0 0 2.745h6.57a1.3725 1.3725 0 0 0 0-2.745z"/>
    <path class="f" transform="translate(-368.68 -35.721)" d="m1365.8 143.82a1.38 1.38 0 0 0 1.372-1.38v-6.57a1.3725 1.3725 0 0 0-2.745 0v6.57a1.38 1.38 0 0 0 1.373 1.38z"/>
    <path class="f" transform="translate(-368.68 -40.6)" d="m1365.8 161.88a1.372 1.372 0 0 0 1.372-1.372v-6.57a1.3725 1.3725 0 0 0-2.745 0v6.57a1.372 1.372 0 0 0 1.373 1.372z"/>
    <path class="f" transform="translate(-368.68 -45.477)" d="m1365.8 179.94a1.372 1.372 0 0 0 1.372-1.372v-6.572a1.3725 1.3725 0 1 0-2.745 0v6.57a1.372 1.372 0 0 0 1.373 1.374z"/>
    <path class="f" transform="translate(-368.68 -69.86)" d="m1367.2 262.39v-0.095a1.3725 1.3725 0 1 0-2.745 0v0.095z"/>
    <path class="f" transform="translate(-368.68 -50.354)" d="m1365.8 198.01a1.379 1.379 0 0 0 1.372-1.38v-6.57a1.3725 1.3725 0 0 0-2.745 0v6.57a1.38 1.38 0 0 0 1.373 1.38z"/>
    <path class="f" transform="translate(-368.68 -64.991)" d="m1365.8 252.2a1.372 1.372 0 0 0 1.372-1.372v-6.57a1.3725 1.3725 0 0 0-2.745 0v6.57a1.372 1.372 0 0 0 1.373 1.372z"/>
    <path class="f" transform="translate(-368.68 -60.111)" d="m1365.8 234.13a1.372 1.372 0 0 0 1.372-1.372v-6.57a1.3725 1.3725 0 1 0-2.745 0v6.57a1.372 1.372 0 0 0 1.373 1.372z"/>
    <path class="f" transform="translate(-368.68 -55.234)" d="m1365.8 216.07a1.372 1.372 0 0 0 1.372-1.372v-6.57a1.3725 1.3725 0 0 0-2.745 0v6.57a1.372 1.372 0 0 0 1.373 1.372z"/>
    <circle class="e" transform="matrix(1 -.04 .04 1 388.23 187.32)" cx="30.987" cy="30.987" r="30.987"/>
    <path class="f" transform="translate(-143.57 -68.253)" d="m562.83 256.97a29.994 29.994 0 1 1-29.987 29.991 30 30 0 0 1 29.987-29.991zm0-2a31.981 31.981 0 1 1 0 0.022z"/>
    <path class="f" transform="translate(-147.53 -74.231)" d="m564.6 286.73a0.066 0.066 0 0 1-0.124 0c-1.241-13.395-18.979-12.723-18.979 1.511 0 14.438 18.249 24.512 19.037 24.95h0.051c0.8-0.438 19.037-10.511 19.037-24.95-0.011-14.235-17.771-14.906-19.022-1.511z"/>
    <path class="e" transform="translate(-147.41 -70.999)" d="m570.09 315.08a2.467 2.467 0 0 1-2.387-1.869l-3.869-15.6-0.912 3.4a2.452 2.452 0 0 1-2.372 1.818h-13.052a2.46 2.46 0 1 1 0-4.92h11.161l2.92-10.781a2.46 2.46 0 0 1 2.372-1.825 2.475 2.475 0 0 1 2.365 1.869l2.782 11.225 3.241-31.074a2.453 2.453 0 0 1 2.423-2.19 2.467 2.467 0 0 1 2.445 2.153l3.825 30.658h5.11a2.46 2.46 0 1 1 0 4.92h-7.3a2.453 2.453 0 0 1-2.438-2.153l-1.46-11.5-2.475 23.694a2.453 2.453 0 0 1-2.277 2.19z"/>
    <path class="f" transform="translate(-147.89 -71.493)" d="m570.58 314.17a1.066 1.066 0 0 1-1.029-0.8l-5.175-20.877-2.328 8.657a1.051 1.051 0 0 1-1.015 0.781h-13.052a1.058 1.058 0 1 1 0-2.11h12.241l3.175-11.825a1.058 1.058 0 0 1 2.044 0l4.716 18.979 4.073-39.053a1.066 1.066 0 0 1 1.037-0.949 1.051 1.051 0 0 1 1.044 0.927l4 31.943h6.336a1.058 1.058 0 1 1 0 2.11h-7.3a1.058 1.058 0 0 1-1.044-0.927l-2.92-23.665-3.752 35.892a1.051 1.051 0 0 1-0.971 0.942z"/>
    <path class="e" transform="translate(-434.57 -58.947)" d="m1640.3 284.26a31.877 31.877 0 1 1 31.878-31.877 31.877 31.877 0 0 1-31.878 31.877z"/>
    <path class="f" transform="translate(-434.16 -58.526)" d="m1639.9 221.18a30.768 30.768 0 1 1-30.739 30.789 30.768 30.768 0 0 1 30.739-30.789zm0-2.226a32.994 32.994 0 1 0 32.994 32.994 32.994 32.994 0 0 0-32.994-32.994z"/>
    <path class="f" transform="translate(-436.71 -73.478)" d="m1628.4 278.3a0.85 0.85 0 0 1-0.343-0.073c-4.738-2.124-8.292-3.139-10.219-1.175a0.84853 0.84853 0 0 1-1.2-1.2c2.92-2.92 7.8-1.117 12.139 0.825a0.847 0.847 0 0 1-0.35 1.621z"/>
    <path class="f" transform="translate(-442.72 -64.905)" d="m1647.3 274.4c-2.54 0-5.468-1.175-8.19-2.4a0.839 0.839 0 0 1-0.43-1.117 0.854 0.854 0 0 1 1.124-0.423c4.774 2.146 8.358 3.168 10.322 1.212 2.475-2.482 0-7.737-2.365-12.825-2.621-5.613-5.336-11.417-2.022-14.73 2.92-2.92 7.774-1.124 12.081 0.8a0.85213 0.85213 0 1 1-0.73 1.54c-4.708-2.1-8.242-3.1-10.22-1.146-2.475 2.475 0 7.73 2.358 12.818 2.628 5.613 5.343 11.416 2.03 14.738a5.462 5.462 0 0 1-3.957 1.533z"/>
    <path class="f" transform="translate(-451.3 -66.618)" d="m1679 252.94c-2.533 0-5.467-1.175-8.19-2.394a0.85553 0.85553 0 1 1 0.729-1.548c4.781 2.146 8.365 3.175 10.329 1.212a0.84853 0.84853 0 1 1 1.2 1.2 5.439 5.439 0 0 1-4.066 1.533z"/>
    <path class="f" transform="translate(-440.51 -69.19)" d="m1636.9 288.98a0.858 0.858 0 0 1-0.6-0.248 0.846 0.846 0 0 1 0-1.2c2.474-2.482 0-7.737-2.365-12.825-2.62-5.613-5.336-11.417-2.022-14.731 2.919-2.92 7.752-1.131 12.044 0.781a0.856 0.856 0 0 1-0.73 1.548c-4.051-1.81-8.088-3.2-10.154-1.131-2.474 2.475 0 7.73 2.358 12.818 2.628 5.613 5.343 11.417 2.029 14.738a0.862 0.862 0 0 1-0.56 0.25z"/>
    <path class="f" transform="translate(-447.14 -61.091)" d="m1663.3 258.99c-2.365 0-5.11-1.022-7.854-2.234a0.847 0.847 0 0 1 0.686-1.548c3.971 1.759 7.927 3.11 9.979 1.058 2.474-2.475 0-7.738-2.365-12.825-2.62-5.613-5.336-11.417-2.022-14.73a0.84853 0.84853 0 1 1 1.2 1.2c-2.482 2.475 0 7.73 2.358 12.818 2.628 5.613 5.343 11.416 2.029 14.738a5.41 5.41 0 0 1-4.011 1.523z"/>
    <path class="f" transform="translate(-450.26,-61.807)" d="m1679.7 244.68a0.423 0.423 0 0 1-0.3-0.124l-12.73-12.73a0.416 0.416 0 0 1 0-0.6 0.431 0.431 0 0 1 0.606 0l12.752 12.723a0.431 0.431 0 0 1 0 0.606 0.46 0.46 0 0 1-0.328 0.125z"/>
    <path class="f" transform="translate(-450.32 -63.76)" d="m1674.5 246.48a0.425 0.425 0 0 1-0.307-0.124l-7.3-7.3a0.43 0.43 0 0 1 0-0.606 0.438 0.438 0 0 1 0.606 0l7.3 7.3a0.43 0.43 0 0 1 0 0.606 0.394 0.394 0 0 1-0.299 0.124z"/>
    <path class="f" transform="translate(-448.06 -66.142)" d="m1665.8 255.07a0.422 0.422 0 0 1-0.3-0.124l-7.029-7.03a0.431 0.431 0 1 1 0.605-0.606l7 7.029a0.431 0.431 0 0 1 0 0.606 0.461 0.461 0 0 1-0.276 0.125z"/>
    <path class="f" transform="translate(-445.97 -66.229)" d="m1663.5 260.81a0.4 0.4 0 0 1-0.3-0.124l-12.475-12.475a0.431 0.431 0 0 1 0-0.606 0.416 0.416 0 0 1 0.6 0l12.482 12.475a0.43 0.43 0 0 1-0.306 0.73z"/>
    <path class="f" transform="translate(-445.87 -68.318)" d="m1657.8 263.13a0.424 0.424 0 0 1-0.3-0.124l-7.03-7.03a0.431 0.431 0 1 1 0.606-0.606l7.029 7.029a0.438 0.438 0 0 1 0 0.606 0.46 0.46 0 0 1-0.306 0.124z"/>
    <path class="f" transform="translate(-443.85 -70.321)" d="m1650.2 270.51a0.4 0.4 0 0 1-0.3-0.131l-7.03-7.029a0.417 0.417 0 0 1 0-0.6 0.431 0.431 0 0 1 0.606 0l7.03 7.029a0.416 0.416 0 0 1 0 0.6 0.431 0.431 0 0 1-0.306 0.131z"/>
    <path class="f" transform="translate(-441.75 -70.406)" d="m1647.9 276.28a0.423 0.423 0 0 1-0.3-0.124l-12.475-12.482a0.42639 0.42639 0 1 1 0.6-0.606l12.483 12.482a0.431 0.431 0 0 1 0 0.606 0.462 0.462 0 0 1-0.307 0.124z"/>
    <path class="f" transform="translate(-441.68 -72.519)" d="m1642.2 278.62a0.423 0.423 0 0 1-0.3-0.124l-7.03-7.029a0.431 0.431 0 0 1 0.606-0.606l7.029 7.029a0.438 0.438 0 0 1 0 0.606 0.458 0.458 0 0 1-0.305 0.124z"/>
    <path class="f" transform="translate(-439.55 -74.621)" d="m1634.3 286.43a0.409 0.409 0 0 1-0.3-0.124l-7.03-7.03a0.431 0.431 0 0 1 0-0.606 0.438 0.438 0 0 1 0.606 0l7.03 7.029a0.431 0.431 0 0 1-0.307 0.73z"/>
    <path class="f" transform="translate(-437.45 -74.708)" d="m1632 292.21a0.46 0.46 0 0 1-0.307-0.124l-12.474-12.483a0.43 0.43 0 0 1 0-0.606 0.437 0.437 0 0 1 0.605 0l12.475 12.482a0.431 0.431 0 0 1-0.3 0.73z"/>
    <circle class="e" transform="translate(965.07,84.48)" cx="30.768" cy="30.768" r="30.768"/>
    <path class="f" transform="translate(-356.93 -30.025)" d="m1352.8 177.14a31.863 31.863 0 1 1 31.863-31.863 31.862 31.862 0 0 1-31.863 31.863zm0-61.528a29.665 29.665 0 1 0 29.665 29.665 29.665 29.665 0 0 0-29.665-29.665z"/>
    <path class="e" transform="translate(-360.71 -36.309)" d="m1363.5 166.11h-13.869a14.709 14.709 0 0 1-14.716-14.712 14.709 14.709 0 0 1 14.716-14.716h13.869a14.716 14.716 0 0 1 14.723 14.716 14.716 14.716 0 0 1-14.723 14.712z"/>
    <path class="f" transform="translate(-360.4 -35.996)" d="m1370.9 166.6h-29.352a7.81 7.81 0 0 1-7.8-7.8v-15.477a7.81 7.81 0 0 1 7.8-7.8h29.352a7.811 7.811 0 0 1 7.8 7.8v15.477a7.811 7.811 0 0 1-7.8 7.8zm-29.352-29.439a6.168 6.168 0 0 0-6.16 6.161v15.478a6.168 6.168 0 0 0 6.16 6.154h29.352a6.168 6.168 0 0 0 6.161-6.154v-15.477a6.168 6.168 0 0 0-6.161-6.161z"/>
    <circle class="e" transform="translate(987.08 106.31)" cx="8.752" cy="8.752" r="8.752"/>
    <path class="f" transform="translate(-365.22 -38.254)" d="m1361.1 162.76a9.438 9.438 0 1 1 9.431-9.438 9.438 9.438 0 0 1-9.431 9.438zm0-17.519a8.059 8.059 0 1 1 0 0.015z"/>
    <rect class="f" transform="translate(994.13 110.36)" width="3.409" height="9.402"/>
    <rect class="f" transform="rotate(90 443.59 556.95)" width="3.409" height="9.402"/>
    <path class="f" transform="translate(-365.21 -33.971)" d="m1370.5 129.73a1.7 1.7 0 0 1-1.7 1.7h-15.526a1.7 1.7 0 0 1-1.7-1.7 1.7 1.7 0 0 1 1.7-1.708h15.526a1.7 1.7 0 0 1 1.7 1.708z"/>
    <circle class="e" transform="matrix(.026 -1 1 .026 169.68 381.62)" cx="30.768" cy="30.768" r="30.768"/>
    <path class="f" transform="translate(-62.97,-117.49)" d="m264.22 501.02a31.862 31.862 0 1 1 31.87-31.826 31.861 31.861 0 0 1-31.87 31.826zm0-61.528a29.665 29.665 0 1 0 29.673 29.7 29.665 29.665 0 0 0-29.673-29.7z"/>
    <rect class="e" transform="rotate(180 111.98 183.89)" width="43.381" height="29.483" rx="14.741"/>
    <path class="f" transform="translate(-66.805 -124.02)" d="m283.77 492.62h-29.4a7.818 7.818 0 0 1-7.81-7.81v-15.5a7.818 7.818 0 0 1 7.811-7.811h29.4a7.818 7.818 0 0 1 7.81 7.811v15.5a7.818 7.818 0 0 1-7.81 7.811zm-29.4-29.483a6.175 6.175 0 0 0-6.161 6.168v15.5a6.168 6.168 0 0 0 6.161 6.161h29.4a6.168 6.168 0 0 0 6.161-6.161v-15.5a6.168 6.168 0 0 0-6.161-6.168z"/>
    <path class="f" transform="translate(-71.625 -136.3)" d="m264.41 508.68a1.708 1.708 0 0 1 1.708-1.708h15.548a1.708 1.708 0 0 1 1.708 1.708 1.708 1.708 0 0 1-1.708 1.708h-15.548a1.708 1.708 0 0 1-1.708-1.708z"/>
    <path class="e" transform="translate(-67.914,-121.19)" d="m275.52 492.07a2.022 2.022 0 0 1-1.964-1.533l-3.183-12.818-0.73 2.788a2.036 2.036 0 0 1-1.956 1.5h-15.11a2.029 2.029 0 0 1 0-4.051h13.556l2.38-8.854a2.029 2.029 0 0 1 1.956-1.5 2.029 2.029 0 0 1 1.942 1.54l2.285 9.227 2.672-25.548a2.022 2.022 0 0 1 2.013-1.825 2.022 2.022 0 0 1 2.007 1.774l3.153 25.176h4.183a2.029 2.029 0 0 1 0 4.051h-5.971a2.022 2.022 0 0 1-2.007-1.774l-1.183-9.446-2.029 19.468a2.036 2.036 0 0 1-1.876 1.81z"/>
    <path class="f" transform="translate(-68.322 -121.61)" d="m275.92 491.34a0.869 0.869 0 0 1-0.839-0.657l-4.263-17.161-1.905 7.1a0.869 0.869 0 0 1-0.84 0.642h-15.11a0.869 0.869 0 0 1 0-1.73h14.446l2.606-9.716a0.867 0.867 0 0 1 1.679 0.015l3.876 15.621 3.35-32.118a0.869 0.869 0 0 1 0.854-0.774 0.861 0.861 0 0 1 0.861 0.73l3.277 26.191h5.2a0.869 0.869 0 1 1 0 1.73h-5.971a0.861 0.861 0 0 1-0.861-0.73l-2.431-19.446-3.08 29.5a0.869 0.869 0 0 1-0.8 0.774z"/>
    <circle class="e" transform="rotate(-1.69 3928.5 -5142.6)" cx="30.768" cy="30.768" r="30.768"/>
    <path class="f" transform="translate(-56.97,-40.468)" d="m242 215.8a31.863 31.863 0 1 1 31.862-31.863 31.862 31.862 0 0 1-31.862 31.863zm0-61.528a29.665 29.665 0 1 0 29.665 29.665 29.665 29.665 0 0 0-29.665-29.665z"/>
    <path class="f" transform="translate(-62.333,-45.321)" d="m247.72 209.33a17.709 17.709 0 0 1-17.723-17.694v-14.081a7.518 7.518 0 0 1 7.511-7.5h4.562v2.19h-4.562a5.321 5.321 0 0 0-5.314 5.307v14.081a15.5 15.5 0 1 0 30.99 0v-14.074a5.314 5.314 0 0 0-5.314-5.307h-4.6v-2.19h4.6a7.511 7.511 0 0 1 7.511 7.5v14.081a17.709 17.709 0 0 1-17.661 17.687z"/>
    <path class="f" transform="translate(-68.482,-59.444)" d="m271.96 241.54a19.212 19.212 0 0 1-19.19-19.19h2.19a16.992 16.992 0 1 0 33.983 0h2.186a19.2 19.2 0 0 1-19.169 19.19z"/>
    <circle class="f" transform="translate(177.78 123.85)" cx="1.978" cy="1.978" r="1.978"/>
    <path class="f" transform="translate(-70.253,-44.994)" d="m259.33 170.82a1.978 1.978 0 1 1 1.978 1.978 1.978 1.978 0 0 1-1.978-1.978z"/>
    <circle class="e" transform="translate(215.09 156.44)" cx="6.467" cy="6.467" r="6.467"/>
    <path class="f" transform="translate(-79.47,-56.644)" d="m301.04 227.12a7.57 7.57 0 1 1 7.562-7.57 7.57 7.57 0 0 1-7.562 7.57zm0-12.935a5.372 5.372 0 1 0 5.365 5.365 5.373 5.373 0 0 0-5.365-5.365z"/>
    <path class="e" transform="translate(-81.268,-58.445)" d="m305.54 221.35a2.708 2.708 0 1 1-2.7-2.7 2.708 2.708 0 0 1 2.7 2.7z"/>
    <path class="f" transform="translate(-80.866,-58.037)" d="m302.43 224.75a3.8 3.8 0 1 1 3.8-3.8 3.8 3.8 0 0 1-3.8 3.8zm0-5.4a1.606 1.606 0 1 0 1.6 1.6 1.606 1.606 0 0 0-1.6-1.6z"/>
    <circle class="e" transform="translate(1128.7 276.32)" cx="29.592" cy="29.592" r="29.592"/>
    <path class="f" transform="translate(-417.48 -101)" d="m1575.8 437.57a30.658 30.658 0 1 1 30.658-30.658 30.658 30.658 0 0 1-30.658 30.658zm0-59.177a28.534 28.534 0 1 0 28.534 28.534 28.534 28.534 0 0 0-28.534-28.534z"/>
    <path class="f" transform="translate(-424.64 -105.95)" d="m1581.4 422.56-8.76-1.526-0.993-8.869 18.7-17.592 9.774 10.394zm-7.343-2.92 6.832 1.19 16.964-15.964-7.606-8.088-16.964 15.964z"/>
    <path class="e" transform="translate(-431.22 -106.02)" d="m1596 394.81 10.475 11.132z"/>
    <path class="f" transform="translate(-430.71 -105.53)" d="m1605.9 406.77a1.323 1.323 0 0 1-0.964-0.416l-10.472-11.132a1.322 1.322 0 1 1 1.927-1.81l10.475 11.132a1.321 1.321 0 0 1-0.964 2.226z"/>
    <path class="e" transform="translate(-432.95 -104.37)" d="m1602.4 388.72 10.468 11.154z"/>
    <path class="f" transform="translate(-432.46 -103.89)" d="m1612.4 400.7a1.3 1.3 0 0 1-0.964-0.416l-10.475-11.1a1.322 1.322 0 0 1 1.927-1.81l10.468 11.132a1.322 1.322 0 0 1-0.059 1.869 1.285 1.285 0 0 1-0.897 0.325z"/>
    <rect class="f" transform="matrix(.685 .728 -.728 .685 1172.4 287.66)" width="6.453" height="5.84"/>
    <path class="f" transform="translate(-421.86 -115.18)" d="m1562.2 438.25a0.774 0.774 0 0 1-0.577-0.248 0.8 0.8 0 0 1 0-1.124l8.373-7.876a0.8 0.8 0 1 1 1.087 1.153l-8.38 7.884a0.788 0.788 0 0 1-0.503 0.211z"/>
    <path class="f" transform="translate(-430.62 -107.58)" d="m1597.8 405.66a0.789 0.789 0 0 1-0.576-0.248l-3.263-3.467a0.794 0.794 0 0 1 0.6-1.338 0.787 0.787 0 0 1 0.551 0.25l3.263 3.467a0.8 0.8 0 0 1 0 1.124 0.782 0.782 0 0 1-0.575 0.212z"/>
    <path class="f" transform="translate(-429.44 -108.68)" d="m1593.5 409.72a0.8 0.8 0 0 1-0.584-0.248l-3.263-3.472a0.776 0.776 0 0 1 0.566-1.338 0.787 0.787 0 0 1 0.551 0.25l3.27 3.475a0.788 0.788 0 0 1-0.577 1.329z"/>
    <path class="f" transform="translate(-428.29 -109.78)" d="m1589.2 413.79a0.783 0.783 0 0 1-0.577-0.255l-3.27-3.467a0.8 0.8 0 0 1 1.16-1.088l3.263 3.474a0.8 0.8 0 0 1-0.577 1.336z"/>
    <path class="f" transform="translate(-427.12 -110.87)" d="m1584.9 417.84a0.8 0.8 0 0 1-0.577-0.248l-3.263-3.474a0.79232 0.79232 0 1 1 1.124-1.117l3.263 3.475a0.788 0.788 0 0 1 0 1.117 0.773 0.773 0 0 1-0.547 0.247z"/>
    <path class="f" transform="translate(-425.96 -111.97)" d="m1580.6 421.91a0.788 0.788 0 0 1-0.576-0.248l-3.263-3.475a0.79 0.79 0 1 1 1.153-1.08l3.263 3.467a0.8 0.8 0 0 1 0 1.124 0.818 0.818 0 0 1-0.577 0.212z"/>
    <path class="j" transform="translate(-298.68 -127.57)" d="m1113.1 474.76c4.708 0.766 8.76 4.927 9.146 9.3 0.73 9.438 1.109 14.161 1.876 23.607a27.332 27.332 0 0 0-7.767 0.438 0.117 0.117 0 0 1-0.08 0 26.8 26.8 0 0 0-9.044-0.1c-0.825-10.708-1.227-16.059-2.022-26.768-0.328-4.332 3.234-7.244 7.891-6.477z"/>
    <path class="j" transform="translate(-288.97 -130.92)" d="m1074.1 488.75c-3.73 2.613-5.73 7.256-4.468 10.395 2.723 6.767 4.081 10.161 6.781 16.935a32.85 32.85 0 0 1 6.752-3.139 0.176 0.176 0 0 0 0.088 0 31.932 31.932 0 0 1 7.65-4.088c-3.1-7.664-4.657-11.5-7.789-19.154-1.269-3.131-5.327-3.54-9.014-0.949z"/>
    <path class="j" transform="translate(-309.28 -129.18)" d="m1157.8 511.7a50.943 50.943 0 0 0-13.336-4.307c1.372-9.694 3.562-22.855 3.577-22.972 0.526-3.1 3.9-4.613 7.562-3.394s6.241 4.716 5.723 7.825c0 0-1.044 6.394-2.146 13.468-0.46 3.136-0.971 6.45-1.38 9.38z"/>
    <path class="j" transform="translate(-288.12 -136.27)" d="m1146.8 539.69v-1.686c-0.664-17.694-19.256-31.636-41.52-31.14s-39.76 15.241-39.1 32.936a16.024 16.024 0 0 0 0.124 1.686z"/>
    <path class="r" transform="translate(-298.08 -136.54)" d="m1205.4 509.6a10.949 10.949 0 0 0-3.584-1.387c-31.286-3.862-99.924 22.286-98.807 62.776a23.653 23.653 0 0 0 3.423 12.3c3.65 5.548 10.146 8.533 16.154 3.905 20.964-20.8 41.235-38.593 70.345-47.045 1.256-0.365 18.38-4.1 18.87-2.365 0.709-8.762-2.116-22.471-6.401-28.184z"/>
    <path class="j" transform="translate(-267.29 -122.82)" d="m1036.9 541.89c0.73-7.358-0.285-14.6-1.46-21.607-1.621-9.752-6.285-15.453-4.73-25.957s3.445-20.665 4.38-31.191a4.774 4.774 0 0 0-4.38-5.11l-10.635-0.949a8.453 8.453 0 0 0-9.132 6.847c-2.241 12.621-3.65 25.191-6.934 37.476-1.139 5.584-2.372 11.124-3.774 16.614-4.168 16.307-8.759 31.8-11.322 47.827 0.964 10.592 4.27 20.118 11.453 26.454 13.621 12.008 26.592-1.883 32.49-20.081 1.942-5.978 2.679-12.971 3.212-19.789 0.321-3.636 0.518-7.198 0.832-10.534z"/>
    <path class="r" transform="translate(-265.14 -141.51)" d="m1120.7 535.13a97.131 97.131 0 0 0-38.6-8.854c-24.089-0.394-47.228 8.46-68.492 19.2-45.257 22.852-41.757 141.61-0.157 182.14 20.95 20.439 70.849 64.966 103.4 48.243 21.585-11.11 22.672-34.768 26.016-55.907 3.876-24.432 7.92-48 14.971-71.762 6.5-21.9 12.606-44.914 5.57-67.535-6.371-20.513-22.766-36.338-42.708-45.528z"/>
    <path class="j" transform="translate(-274.27 -161.27)" d="m1017.4 685.16a2.62 2.62 0 0 1-0.233-5.226c17.57-1.584 34.826-11.679 52.754-30.76 3.4-3.65 6.949-8.029 10.7-12.635 13.38-16.5 28.534-35.191 49.411-36.95 22.5-1.9 29.556 12.635 29.848 13.256a2.62 2.62 0 0 1-4.752 2.19c-0.226-0.467-5.942-11.825-24.658-10.256s-33.06 19.344-45.775 35.038c-3.818 4.708-7.424 9.161-10.949 12.92-18.848 20.088-37.228 30.658-56.1 32.4z"/>
    <path class="j" transform="translate(-298.52 -175.06)" d="m1171.5 709.31a2.011 2.011 0 0 1-0.365 0c-32.848-4.584-58.309-25.8-66.36-55.374a2.62 2.62 0 1 1 5.051-1.372c7.5 27.5 31.264 47.265 62.046 51.557a2.62 2.62 0 0 1-0.358 5.219z"/>
    <path class="j" transform="translate(-292.08 -186.01)" d="m1083.4 751.1a2.3 2.3 0 0 1-0.445-0.044 2.612 2.612 0 0 1-2.139-3.022c5.343-31.155 11.591-38.52 35.987-56.5a2.621 2.621 0 0 1 3.11 4.219c-23.746 17.519-28.848 23.5-33.936 53.163a2.629 2.629 0 0 1-2.577 2.184z"/>
    <path class="j" transform="translate(-276.44 -142.99)" d="m1041.4 559.9c-7.226 0-13.869-1.46-17.753-5.11a2.621 2.621 0 0 1 3.606-3.8c7.219 6.847 31.5 3.227 41.505-2.752 2.54-1.518 5.11-3.248 7.584-4.92 7.57-5.11 15.409-10.373 24.818-11.533a2.621 2.621 0 1 1 0.643 5.2c-8.183 1.007-15.161 5.708-22.556 10.687-2.533 1.708-5.154 3.475-7.818 5.066-6.342 3.76-18.904 7.162-30.029 7.162z"/>
    <path class="j" transform="translate(-271.16 -152.11)" d="m1005.9 612.11a2.628 2.628 0 0 1-2.533-3.285c2.518-9.635 10.949-15.329 19.066-20.855 8.628-5.839 16.059-10.906 15.417-19.526a2.621 2.621 0 1 1 5.219-0.4c0.9 11.679-8.555 18.059-17.694 24.264-7.3 4.971-14.92 10.117-16.942 17.847a2.621 2.621 0 0 1-2.533 1.955z"/>
    <path class="j" transform="translate(-277.87 -158.11)" d="m1030.8 627.26a2.621 2.621 0 0 1-2.322-3.832c7.3-13.957 9.942-24.585 8.117-32.49a2.622 2.622 0 0 1 5.11-1.175c2.825 12.22-3.541 26.454-8.57 36.089a2.613 2.613 0 0 1-2.335 1.408z"/>
    <path class="j" transform="translate(-308.08 -167.26)" d="m1158.6 664.51a2.621 2.621 0 0 1-2.6-2.321 71.387 71.387 0 0 0-15.387-36.323 2.6205 2.6205 0 1 1 4.066-3.307 76.711 76.711 0 0 1 16.5 39.023 2.62 2.62 0 0 1-2.3 2.92z"/>
    <path class="j" transform="translate(-295.16 -195.2)" d="m1111.9 750.64a2.627 2.627 0 0 1-2.569-2.117 25.63 25.63 0 0 0-15.526-18.395 2.6202 2.6202 0 1 1 1.92-4.876 31.009 31.009 0 0 1 18.745 22.264 2.621 2.621 0 0 1-2.022 3.051 3.107 3.107 0 0 1-0.548 0.073z"/>
    <path class="d" transform="translate(-314.56 -173.52)" d="m1251.9 698.7a37.228 37.228 0 1 0-74.164 0c-6.022 7.03-13.723 2.854-13.723-3.117a50.804 50.804 0 1 1 101.61 0c0 5.973-7.701 10.148-13.722 3.117z"/>
    <rect class="d" transform="translate(826.22 523.56)" width="200.57" height="119.96" rx="29.95"/>
    <rect class="f" transform="translate(793.43 523.56)" width="200.57" height="119.96" rx="29.95"/>
    <path class="h" transform="translate(-320.91 -198.25)" d="m1210.1 819.26c0 9.884-12.665 16.789-22.628 5.445v-82.484c9.993-11.365 22.628-4.438 22.628 5.453z"/>
    <path class="h" transform="translate(-307.65 -211.5)" d="m1221.3 808.05h-77.01c-11.365-9.993-4.438-22.629 5.445-22.629h77.04c11.357 9.971 4.43 22.629-5.475 22.629z"/>
    <path class="u" transform="translate(-372.37 -230.6)" d="m1452.9 903.76a16.387 16.387 0 0 0-6.745-22.176l-43.972-23.479a16.388 16.388 0 0 0-22.176 6.738 16.4 16.4 0 0 0 6.738 22.184l43.98 23.475a16.4 16.4 0 0 0 22.176-6.745z"/>
    <path class="k" transform="translate(-372.37 -230.6)" d="m1380 864.84a16.388 16.388 0 0 1 22.176-6.738l21.987 11.738-15.439 28.921-21.957-11.738a16.4 16.4 0 0 1-6.767-22.183z"/>
    <path class="v" transform="translate(-372.37 -232.63)" d="m1380 866.86a16.452 16.452 0 0 1 2.241-3.2 16.387 16.387 0 0 0 8.176 18.534l43.972 23.475a16.4 16.4 0 0 0 19.942-3.533 16.509 16.509 0 0 1-1.416 3.65 16.4 16.4 0 0 1-22.176 6.745l-43.972-23.483a16.4 16.4 0 0 1-6.767-22.188z"/>
    <path class="q" transform="translate(-342.99 -223.74)" d="m1328.6 835.39a15.2 15.2 0 0 1-0.336 21.5l-33.205 32.184a15.2 15.2 0 0 1-21.5-0.336 15.2 15.2 0 0 1 0.336-21.5l33.213-32.184a15.2 15.2 0 0 1 21.492 0.336z"/>
    <path class="k" transform="translate(-342.99 -231.3)" d="m1273.6 896.3a15.2 15.2 0 0 0 21.5 0.336l16.606-16.059-21.168-21.833-16.609 16.056a15.2 15.2 0 0 0-0.329 21.5z"/>
    <path class="v" transform="translate(-342.99 -223.74)" d="m1273.6 888.74a15.167 15.167 0 0 0 2.817 2.285 15.2 15.2 0 0 1 2.533-18.614l33.205-32.191a15.227 15.227 0 0 1 18.687-1.949 14.936 14.936 0 0 0-2.19-2.883 15.2 15.2 0 0 0-21.5-0.336l-33.213 32.184a15.205 15.205 0 0 0-0.343 21.5z"/>
    <path class="m" transform="translate(-225.78 -185.05)" d="m954.37 816.52h-116.76a2.35 2.35 0 0 1-2.109-3.387l42.075-85.624v-37.68a2.35 2.35 0 0 1 2.35-2.35h32.118a2.35 2.35 0 0 1 2.35 2.35v37.68l42.067 85.624a2.343 2.343 0 0 1-2.109 3.387zm-52.5-4.7h48.724l-40.644-82.726a2.35 2.35 0 0 1-0.248-1.037v-35.877h-27.423v35.877a2.346 2.346 0 0 1-0.241 1.037l-40.651 82.725z"/>
    <path class="q" transform="translate(-21.737,-93.017)" d="m706.44 653.23h-28.994l-29.775 60.338h88.551z"/>
    <path class="m" transform="translate(-240.02 -182.5)" d="m932.56 685.02a7.037 7.037 0 0 1-7.051 6.971h-30.556a6.971 6.971 0 1 1 0-13.942h30.556a7.037 7.037 0 0 1 7.051 6.971z"/>
    <path class="m" transform="translate(-248.11 -176.79)" d="m1057.7 808.26h-136.95a2.759 2.759 0 0 1-2.475-3.978l49.382-100.44v-44.2a2.759 2.759 0 0 1 2.759-2.759h37.688a2.752 2.752 0 0 1 2.752 2.759v44.2l49.359 100.44a2.767 2.767 0 0 1-2.482 3.978zm-61.579-5.518h57.156l-47.666-97.04a2.709 2.709 0 0 1-0.285-1.212v-42.083h-32.183v42.082a2.806 2.806 0 0 1-0.285 1.212l-47.68 97.04z"/>
    <path class="u" transform="translate(-45.123,-88.456)" d="m803.21 636.34h-34.007l-34.93 70.776h103.86z"/>
    <path class="m" transform="translate(-264.72 -173.79)" d="m1032 653.97a8.249 8.249 0 0 1-8.27 8.168h-35.845a8.175 8.175 0 1 1 0-16.344h35.848a8.249 8.249 0 0 1 8.267 8.176z"/>
   </g>
  </g>
 </g>
</svg>
