<?xml version="1.0" encoding="UTF-8" standalone="no"?>
<svg
   xmlns:dc="http://purl.org/dc/elements/1.1/"
   xmlns:cc="http://creativecommons.org/ns#"
   xmlns:rdf="http://www.w3.org/1999/02/22-rdf-syntax-ns#"
   xmlns:svg="http://www.w3.org/2000/svg"
   xmlns="http://www.w3.org/2000/svg"
   xmlns:sodipodi="http://sodipodi.sourceforge.net/DTD/sodipodi-0.dtd"
   xmlns:inkscape="http://www.inkscape.org/namespaces/inkscape"
   inkscape:version="1.0 (4035a4fb49, 2020-05-01)"
   height="2663.8394"
   width="2599.5642"
   sodipodi:docname="illust.svg"
   id="svg512"
   xml:space="preserve"
   viewBox="0 0 2599.5641 2663.8395"
   version="1.1"><metadata
     id="metadata518"><rdf:RDF><cc:Work
         rdf:about=""><dc:format>image/svg+xml</dc:format><dc:type
           rdf:resource="http://purl.org/dc/dcmitype/StillImage" /><dc:title></dc:title></cc:Work></rdf:RDF></metadata><defs
     id="defs516" /><sodipodi:namedview
     inkscape:current-layer="svg512"
     inkscape:window-maximized="1"
     inkscape:window-y="30"
     inkscape:window-x="0"
     inkscape:cy="1152.9195"
     inkscape:cx="1249.8025"
     inkscape:zoom="0.30427832"
     fit-margin-bottom="0"
     fit-margin-right="100"
     fit-margin-left="0"
     fit-margin-top="600"
     showgrid="false"
     id="namedview514"
     inkscape:window-height="1021"
     inkscape:window-width="1920"
     inkscape:pageshadow="2"
     inkscape:pageopacity="0"
     guidetolerance="10"
     gridtolerance="10"
     objecttolerance="10"
     borderopacity="1"
     bordercolor="#666666"
     pagecolor="#ffffff" /><g
     id="g510"
     transform="matrix(1.3333,0,0,-1.3333,-83.528578,2965.194)"><g
       id="g508"
       transform="scale(0.1)"><g
         id="g4"
         transform="scale(1.227)"><path
           id="path2"
           fill="#d7e9f4"
           d="m 3151.9,1856.1 c 0,0 -2551.2,666.84 -2233.3,4463.2 317.88,3796.3 4147,2182.4 6413.8,4480.9 2266.8,2298.6 2235.3,4377 5662.1,2812.1 3426.9,-1565 370.4,-5538.5 712.7,-6412.7 342.3,-874.2 2176.3,-1968.2 2078.5,-3120.6 -97.8,-1152.4 -880.3,-2098.7 -1393.9,-2224.6 l -11240,1.71" /></g><g
         id="g8"
         transform="scale(1.0056)"><path
           id="path6"
           fill="#ffffff"
           d="m 15057,14751 c 47.3,-149.5 39.7,-292.4 18.9,-401.3 217.5,447.9 375.4,734.3 379.7,742 4,7.2 13.1,9.8 20.3,5.8 7.3,-4 9.8,-13 5.8,-20.3 -4.8,-8.6 -203.3,-368.7 -462.4,-914.1 -2.9,-6.7 -4.9,-11 -5.5,-12.2 -0.2,-0.3 -0.4,-0.5 -0.6,-0.8 -133.6,-281.6 -282.7,-611.8 -429.5,-967.9 119.8,171.1 345.3,466.3 524.4,544.8 l 61.6,26.9 c 106,46.3 253.1,110.6 386.9,172.8 313.6,645.8 743.1,1416.5 298.9,1760.9 -405.8,314.6 -692.7,-161.5 -880,-639.4 21.7,-90.8 48.8,-193.8 81.5,-297.2" /></g><path
         id="path10"
         fill="#ffffff"
         d="m 15623,13962 c -109.4,-50.3 -232.6,-104.6 -356.5,-158.7 l -61.9,-27.1 c -231.5,-101.4 -558.8,-600.4 -594.7,-656.1 -246.9,-612.8 -480.5,-1291.6 -614.6,-1928.8 -1.5,-7.1 -7.7,-11.9 -14.7,-11.9 -1,0 -2,0.1 -3.1,0.3 -8.1,1.7 -13.3,9.7 -11.6,17.8 134,636.4 366.8,1314 613.1,1926.2 0.1,2.6 0.8,5.1 2.3,7.4 0.4,0.7 1.1,1.8 1.9,3.1 166.7,413.5 339.2,796.8 491.2,1117.1 21.1,47.8 123.4,303.2 38.1,573.1 -28.1,89.1 -52.2,177.7 -72.2,258.8 -108.7,-287.2 -181.8,-565.4 -223.3,-664.4 -113.4,-269.9 -381.7,-389.9 -891.6,-789 -510,-399 -270,-1921.5 -270,-1921.5 l -56.4,-61.7 c 0,0 461.4,-1727.5 1465.2,-1560.5 1003.9,167.1 376.1,2532.8 317.1,3117.8 -18.6,184.1 96.3,456 241.7,758.1" /><path
         id="path12"
         fill="#ffffff"
         d="m 4626.5,5006.8 c -2.92,-4.2 -7.57,-6.4 -12.3,-6.4 -2.97,0 -5.97,0.9 -8.58,2.7 -407.05,284.9 -886.7,366.7 -1217.4,385.2 -358.66,20.1 -623.8,-27.9 -626.44,-28.4 -8.12,-1.6 -15.96,3.8 -17.47,12 -1.51,8.1 3.87,16 12.02,17.5 2.68,0.5 271.36,49.1 633.56,28.9 334.6,-18.7 820.11,-101.7 1232.9,-390.6 6.79,-4.8 8.45,-14.1 3.69,-20.9 z m -120.66,841.4 c -509.31,988.7 -974.21,1752.5 -978.85,1760.1 -4.31,7 -2.08,16.3 4.99,20.6 7.06,4.3 16.3,2 20.62,-5 4.64,-7.6 470.11,-772.3 979.91,-1762 401.35,-779.1 900.91,-1837.7 1171.6,-2749.3 l 413.68,2698.2 c 0,0 -1093.7,1418.4 -1277.8,1972.2 -184.11,553.8 -1846,540.3 -1846,540.3 235.45,-617.7 -333.96,-1873.5 -333.96,-1873.5 l 188.05,-589.2 h -391.61 c -234.94,-697.4 134.25,-1665 134.25,-1665 l 403.27,-238.9 -334.61,-101.4 c 208.74,-1338.2 2924.9,-1524.2 2924.9,-1524.2 l 109.06,711.4 c -265.29,922.8 -777.7,2010 -1187.5,2805.7" /><g
         id="g16"
         transform="scale(1.079)"><path
           id="path14"
           fill="#ffffff"
           d="m 16300,4758.2 c -29.7,-2.88 -60,-5.75 -90.7,-8.63 -974.5,-90.08 -1333.2,-249.4 -1464.2,-346.44 l -1675.8,-1925 c -2.8,-3.15 -6.6,-4.73 -10.5,-4.73 -3.2,0 -6.5,1.11 -9.1,3.34 -5.8,5.1 -6.4,13.9 -1.4,19.65 l 1596,1833.3 c 3.8,12.61 19.7,48.57 83.6,96.02 l 231.9,266.36 c 37.8,43.47 62.3,508.45 -18.4,877.23 -12.1,55.05 -16.2,112.89 -14.7,171.18 -48,-28.45 -97.7,-56.35 -149.4,-82.95 -607.7,-312.8 -782.6,227.35 -1063.1,145.79 -280.5,-81.65 -831.7,-1170.5 -831.7,-1170.5 0,0 -1019.5,-2103 143.3,-2462.7 0,0 2461.9,-317.34 2788.5,598.16 160.9,451.27 -345.3,729.68 41.3,1261.6 139.5,191.76 315.1,449.5 444.4,728.29" /></g><g
         id="g20"
         transform="scale(1.0981)"><path
           id="path18"
           fill="#ffffff"
           d="M 15931,5983.8 14719.8,4592.5 h -0.1 l -168.8,-193.98 c 181.4,97.72 564.6,220.84 1373.4,295.61 35.9,3.37 70.8,6.64 104.8,10.01 196,436.21 270.8,920.87 -98.1,1279.7" /></g><g
         id="g24"
         transform="scale(1.0719)"><path
           id="path22"
           fill="#ffffff"
           d="m 15067,5612 c 64.3,-293.87 66.4,-676.55 36.2,-837.2 l 1196.6,1374.4 c -31.3,28.83 -65.5,56.91 -102.7,83.97 -325.7,236.58 -639.7,-131.73 -1143.1,-437.36 -3.2,-62.97 0.2,-125.2 13,-183.78" /></g><g
         id="g28"
         transform="scale(1.1351)"><path
           id="path26"
           fill="#2e6b99"
           d="m 13237,7231.8 c -149,0 -281.4,38.32 -396.8,114.97 -391.1,260.15 -450.8,872.6 -177.1,1820.4 213.6,740.04 581.2,1524.5 851.9,2052.3 72.9,142.1 200,245.9 348.6,284.6 132.1,34.5 264.8,13.6 373.7,-58.8 l 214.5,-142.7 -92.7,-139.3 -214.6,142.7 c -68.5,45.6 -153.4,58.4 -238.7,36.2 -102.6,-26.8 -190.7,-99.3 -241.8,-199.1 -267.4,-521.2 -630.2,-1295.1 -840.1,-2022.3 -117.1,-405.79 -171.5,-747.87 -161.4,-1016.6 11.1,-298.12 102.2,-506.03 270.4,-618 168.4,-111.89 395.3,-115.41 674.5,-10.4 251.8,94.62 546.2,276.98 875.1,541.98 589.4,474.76 1162.9,1108.6 1540.1,1556.7 72.2,85.81 105.1,195.17 90.1,300.04 -12.5,87.36 -57.2,160.59 -125.7,206.19 l -187.7,124.8 92.6,139.4 187.8,-124.8 c 108.8,-72.4 179.3,-186.7 198.7,-321.89 21.7,-152.02 -24.8,-309.31 -127.7,-431.55 -382.1,-453.74 -963.4,-1096 -1563.2,-1579.3 -541.7,-436.43 -993.8,-655.53 -1350.5,-655.53" /></g><g
         id="g32"
         transform="scale(1.113)"><path
           id="path30"
           fill="#0e2549"
           d="m 15861,10314 49.7,-33.1 c 49.4,-32.8 116.7,-19.3 149.5,30.1 l 207.2,311.6 c 32.9,49.4 19.3,116.6 -30,149.5 l -49.8,33 c -49.4,32.9 -116.6,19.4 -149.5,-30 l -207.2,-311.6 c -32.8,-49.4 -19.3,-116.6 30.1,-149.5" /></g><g
         id="g36"
         transform="scale(1.0273)"><path
           id="path34"
           fill="#0e2549"
           d="m 15824,12078 53.9,-35.8 c 53.5,-35.6 126.4,-20.9 161.9,32.5 l 224.6,337.6 c 35.5,53.5 20.8,126.4 -32.6,161.9 l -54,35.9 c -53.4,35.6 -126.3,20.9 -161.9,-32.6 l -224.5,-337.5 c -35.5,-53.5 -20.9,-126.4 32.6,-162" /></g><g
         id="g40"
         transform="scale(1.0461)"><path
           id="path38"
           fill="#0e2549"
           d="m 15574,3623.5 c -32.2,0 -64.3,14.05 -86.1,41.1 -38.5,47.51 -31.1,117.29 16.4,155.73 5.5,4.49 562.8,464.68 569.5,1072.2 4,362.4 -188.4,711.41 -571.6,1037.5 -859.5,731.38 -1485.1,1627.5 -1511.3,1665.3 -34.9,50.19 -22.4,119.2 27.8,154 50.3,34.89 119.2,22.46 154.1,-27.82 6.3,-8.99 636.1,-910.82 1472.9,-1622.8 436.4,-371.29 654.8,-778.42 649.4,-1210.3 -8.7,-712.26 -625.2,-1219 -651.5,-1240.2 -20.5,-16.54 -45.1,-24.66 -69.6,-24.66" /></g><g
         id="g44"
         transform="scale(1.0413)"><path
           id="path42"
           fill="#2e6b99"
           d="m 14646,3012 c 0,-456.73 370.2,-826.94 827,-826.94 456.7,0 827,370.21 827,826.94 0,456.74 -370.3,827.05 -827,827.05 -456.8,0 -827,-370.31 -827,-827.05" /></g><g
         id="g48"
         transform="scale(1.0252)"><path
           id="path46"
           fill="#ffffff"
           d="m 15132,3041 c 0,-322.57 261.5,-584.08 584,-584.08 322.6,0 584.1,261.51 584.1,584.08 0,322.47 -261.5,583.98 -584.1,583.98 -322.5,0 -584,-261.51 -584,-583.98" /></g><g
         id="g52"
         transform="scale(1.0261)"><path
           id="path50"
           fill="#0e2549"
           d="m 15702,3607.1 c -313.6,0 -568.8,-255.23 -568.8,-568.84 0,-313.7 255.2,-568.93 568.8,-568.93 313.7,0 569,255.23 569,568.93 0,313.61 -255.3,568.84 -569,568.84 z m 0,-1167 c -329.8,0 -598,268.29 -598,598.17 0,329.79 268.2,598.08 598,598.08 329.9,0 598.2,-268.29 598.2,-598.08 0,-329.88 -268.3,-598.17 -598.2,-598.17" /></g><g
         id="g56"
         transform="scale(1.0883)"><path
           id="path54"
           fill="#0e2549"
           d="m 11025,15641 817.1,-860.3 652.8,620.1 -817.1,860.3 z m 816.1,-899.3 -855.2,900.3 692.9,658.1 855.2,-900.3 -692.9,-658.1" /></g><g
         id="g60"
         transform="scale(1.0503)"><path
           id="path58"
           fill="#0e2549"
           d="m 11790,16263 c -12.9,0 -25.6,-4.7 -35.6,-14.2 -20.7,-19.6 -21.5,-52.4 -1.9,-73.1 19.6,-20.7 52.4,-21.5 73.1,-1.9 20.7,19.7 21.5,52.5 1.9,73.1 -10.2,10.7 -23.8,16.1 -37.5,16.1 z m 0,-131.9 c -21.2,0 -42.5,8.4 -58.2,25 -14.7,15.5 -22.7,35.9 -22.1,57.3 0.6,21.4 9.4,41.4 25,56.1 32.1,30.5 83,29.2 113.5,-2.9 30.4,-32.1 29.2,-83 -2.9,-113.5 -15.5,-14.7 -35.4,-22 -55.3,-22" /></g><g
         id="g64"
         transform="scale(1.0327)"><path
           id="path62"
           fill="#0e2549"
           d="m 12247,16270 c -13.6,0 -26.4,-5.1 -36.3,-14.4 -21,-20 -21.8,-53.4 -1.8,-74.4 9.6,-10.2 22.7,-16 36.7,-16.3 14,-0.5 27.4,4.7 37.6,14.4 10.1,9.7 16,22.7 16.3,36.8 0.4,14 -4.7,27.3 -14.4,37.5 -9.7,10.2 -22.7,16 -36.8,16.4 z m 0.1,-134.2 h -2.2 c -21.9,0.6 -42.1,9.6 -57.1,25.4 -15,15.8 -23,36.5 -22.4,58.3 0.5,21.8 9.5,42.1 25.4,57.1 15.8,15 36.3,23 58.3,22.4 21.8,-0.5 42,-9.5 57.1,-25.4 15,-15.8 23,-36.5 22.4,-58.3 -0.6,-21.8 -9.6,-42.1 -25.4,-57.1 -15.3,-14.5 -35.1,-22.4 -56.1,-22.4" /></g><g
         id="g68"
         transform="scale(1.0156)"><path
           id="path66"
           fill="#0e2549"
           d="m 12714,16270 c -13.7,0 -26.8,-5.2 -36.7,-14.7 -21.4,-20.3 -22.3,-54.2 -2,-75.6 9.9,-10.4 23.2,-16.3 37.4,-16.6 14.4,-0.4 27.8,4.8 38.2,14.6 10.4,9.9 16.3,23.2 16.7,37.4 0.3,14.3 -4.9,27.9 -14.8,38.2 -9.8,10.4 -23,16.3 -37.3,16.7 z m 0.1,-136.5 h -2.1 c -22.2,0.6 -42.9,9.8 -58.1,25.8 -15.3,16.1 -23.4,37.2 -22.8,59.4 0.6,22.1 9.8,42.7 25.8,58 16.1,15.3 36.8,23.4 59.3,22.8 22.2,-0.6 42.8,-9.7 58.1,-25.8 15.2,-16.1 23.3,-37.2 22.8,-59.3 -0.6,-22.2 -9.7,-42.8 -25.9,-58.1 -15.5,-14.7 -35.7,-22.8 -57.1,-22.8" /></g><g
         id="g72"
         transform="scale(1.0674)"><path
           id="path70"
           fill="#0e2549"
           d="m 11876,16264 c -12.7,0 -25.2,-4.6 -35.1,-14 -20.3,-19.3 -21.1,-51.6 -1.8,-71.9 19.3,-20.3 51.6,-21.2 71.9,-1.8 20.3,19.3 21.2,51.5 1.9,71.9 -10,10.5 -23.4,15.8 -36.9,15.8 z m 0,-129.8 c -20.9,0 -41.8,8.2 -57.3,24.5 -29.9,31.6 -28.7,81.7 2.8,111.7 31.7,30 81.7,28.7 111.7,-2.9 30,-31.5 28.8,-81.6 -2.8,-111.6 -15.3,-14.5 -34.8,-21.7 -54.4,-21.7" /></g><g
         id="g76"
         transform="scale(1.0504)"><path
           id="path74"
           fill="#0e2549"
           d="m 12321,16263 c -12.8,0 -25.6,-4.7 -35.6,-14.2 -10,-9.5 -15.7,-22.3 -16.1,-36.2 -0.3,-13.7 4.8,-26.9 14.3,-36.9 19.6,-20.7 52.3,-21.5 73,-1.9 20.7,19.7 21.5,52.5 1.9,73.1 -10.1,10.7 -23.8,16.1 -37.5,16.1 z m 0.1,-131.9 c -21.3,0 -42.5,8.4 -58.3,24.9 -14.7,15.6 -22.5,36 -22,57.4 0.5,21.4 9.5,41.4 25,56.1 32.1,30.5 82.9,29.2 113.5,-2.9 30.4,-32.1 29.1,-83 -3,-113.5 -15.5,-14.7 -35.4,-22 -55.2,-22" /></g><g
         id="g80"
         transform="scale(1.0333)"><path
           id="path78"
           fill="#0e2549"
           d="m 12781,16262 c -13,0 -26,-4.8 -36.2,-14.4 -10.1,-9.7 -15.9,-22.8 -16.3,-36.8 -0.4,-14 4.7,-27.4 14.4,-37.5 19.9,-21 53.3,-21.9 74.3,-1.9 21,19.9 21.9,53.2 2,74.3 -10.4,10.8 -24.3,16.3 -38.2,16.3 z m 0,-134.1 c -21.6,0 -43.1,8.5 -59.1,25.4 -15.1,15.8 -23,36.5 -22.5,58.3 0.6,21.7 9.6,42 25.4,57 32.6,31 84.4,29.7 115.4,-2.9 30.9,-32.7 29.6,-84.4 -3,-115.4 -15.7,-15 -35.9,-22.4 -56.2,-22.4" /></g><g
         id="g98"
         fill="#0e2549"><path
           id="path82"
           d="m 666.18,5537.5 892.78,-404.1 532.46,1176.6 -892.78,404 z m 907.74,-443.8 -947.44,428.8 557.2,1231.2 947.44,-428.8 -557.2,-1231.2" /><path
           id="path84"
           d="m 1410.1,6331.2 h 0.1 z m -63.11,82.9 c -6.47,0 -12.95,-1.2 -19.18,-3.5 -13.57,-5.1 -24.34,-15.2 -30.32,-28.5 -5.98,-13.2 -6.46,-27.9 -1.34,-41.5 5.11,-13.6 15.21,-24.3 28.42,-30.3 27.26,-12.4 59.52,-0.2 71.87,27.1 12.34,27.2 0.2,59.5 -27.08,71.8 -7.15,3.3 -14.76,4.9 -22.37,4.9 z m -0.15,-138.7 c -11.61,0 -23.39,2.5 -34.64,7.5 -42.35,19.2 -61.21,69.3 -42.04,111.6 19.16,42.4 69.2,61.2 111.57,42.1 42.34,-19.2 61.2,-69.3 42.04,-111.6 -14.08,-31.1 -44.83,-49.6 -76.93,-49.6" /><path
           id="path86"
           d="m 1251.8,5981.2 h 0.1 z m -63.12,82.9 c -6.46,0 -12.94,-1.1 -19.18,-3.5 -13.57,-5.1 -24.34,-15.2 -30.32,-28.4 -5.98,-13.2 -6.46,-28 -1.34,-41.5 5.12,-13.6 15.21,-24.4 28.43,-30.4 27.28,-12.3 59.51,-0.2 71.86,27.1 12.34,27.3 0.19,59.5 -27.08,71.9 -7.15,3.2 -14.75,4.8 -22.37,4.8 z m -0.15,-138.6 c -11.61,0 -23.39,2.4 -34.64,7.5 -42.35,19.2 -61.21,69.2 -42.04,111.6 19.17,42.3 69.22,61.2 111.57,42 42.34,-19.2 61.21,-69.2 42.05,-111.6 -14.09,-31.1 -44.83,-49.5 -76.94,-49.5" /><path
           id="path88"
           d="m 1030.3,5714.2 c -20.69,0 -40.486,-11.9 -49.552,-31.9 -5.988,-13.3 -6.461,-28 -1.348,-41.6 5.117,-13.6 15.207,-24.3 28.43,-30.3 13.22,-6 27.97,-6.5 41.54,-1.4 13.57,5.2 24.35,15.2 30.32,28.5 5.98,13.2 6.46,27.9 1.34,41.5 -5.11,13.6 -15.21,24.3 -28.42,30.3 -7.24,3.3 -14.84,4.9 -22.31,4.9 z m -0.2,-138.6 c -11.61,0 -23.4,2.4 -34.645,7.5 -20.516,9.2 -36.188,26 -44.125,47 -7.942,21.1 -7.203,44 2.082,64.5 19.172,42.4 69.208,61.2 111.57,42.1 42.35,-19.2 61.21,-69.2 42.05,-111.6 -14.08,-31.1 -44.82,-49.5 -76.93,-49.5" /><path
           id="path90"
           d="m 1780,6163.7 h 0.1 z m -63.12,83 c -6.46,0 -12.94,-1.2 -19.17,-3.6 -13.57,-5.1 -24.34,-15.2 -30.32,-28.4 -5.98,-13.2 -6.46,-27.9 -1.34,-41.5 5.12,-13.6 15.21,-24.4 28.43,-30.3 27.25,-12.4 59.51,-0.2 71.86,27 5.98,13.3 6.46,28 1.34,41.6 -5.12,13.5 -15.21,24.3 -28.43,30.3 -7.15,3.2 -14.74,4.9 -22.37,4.9 z m -0.14,-138.7 c -11.6,0 -23.39,2.4 -34.64,7.5 -42.35,19.2 -61.21,69.2 -42.04,111.6 9.28,20.5 26,36.2 47.07,44.1 21.08,8 43.97,7.2 64.49,-2.1 42.35,-19.1 61.22,-69.2 42.05,-111.5 -14.08,-31.1 -44.82,-49.6 -76.93,-49.6" /><path
           id="path92"
           d="m 1558.6,5896.7 c -6.46,0 -12.94,-1.2 -19.18,-3.5 -13.57,-5.1 -24.34,-15.2 -30.32,-28.4 -5.98,-13.2 -6.46,-28 -1.34,-41.6 5.12,-13.5 15.21,-24.3 28.43,-30.3 13.21,-6 27.97,-6.4 41.54,-1.3 13.57,5.1 24.34,15.2 30.32,28.4 12.35,27.3 0.2,59.5 -27.08,71.9 -7.15,3.2 -14.75,4.8 -22.37,4.8 z m -0.15,-138.6 c -11.61,0 -23.39,2.4 -34.64,7.5 -42.34,19.1 -61.21,69.2 -42.04,111.5 19.17,42.4 69.21,61.2 111.57,42.1 42.35,-19.2 61.21,-69.2 42.04,-111.6 -14.08,-31.1 -44.82,-49.5 -76.93,-49.5" /><path
           id="path94"
           d="m 1400.2,5546.7 c -20.68,0 -40.48,-11.8 -49.56,-31.9 -12.35,-27.3 -0.19,-59.5 27.09,-71.8 13.22,-6 27.97,-6.5 41.54,-1.4 13.58,5.1 24.35,15.2 30.32,28.4 5.99,13.3 6.46,28 1.35,41.6 -5.12,13.6 -15.21,24.3 -28.43,30.3 -7.24,3.3 -14.83,4.8 -22.31,4.8 z m -0.2,-138.6 c -11.61,0 -23.39,2.4 -34.64,7.5 -42.35,19.2 -61.22,69.2 -42.05,111.6 19.17,42.3 69.22,61.2 111.57,42 42.35,-19.1 61.21,-69.2 42.05,-111.5 -14.08,-31.1 -44.82,-49.6 -76.93,-49.6" /><path
           id="path96"
           d="m 3911.8,11177 -28.84,-163.8 -310.36,54.7 28.84,163.8 c 15.06,85.5 96.96,142.9 182.5,127.8 85.56,-15 142.92,-96.9 127.86,-182.5 z m -245.38,-485 c -85.57,15 -142.92,96.9 -127.87,182.5 l 28.84,163.8 310.36,-54.6 -28.83,-163.8 c -15.08,-85.6 -96.94,-143 -182.5,-127.9 z m 122.72,697.1 c -101.92,17.9 -199.32,-50.4 -217.25,-152.2 l -62.88,-357.2 c -17.93,-101.9 50.35,-199.3 152.2,-217.3 10.96,-1.9 21.85,-2.8 32.61,-2.8 89.28,0 168.63,64.1 184.64,155.1 l 62.88,357.1 c 17.93,101.9 -50.34,199.3 -152.2,217.3" /></g><g
         id="g102"
         transform="scale(1.1469)"><path
           id="path100"
           fill="#0e2549"
           d="m 16223,5437 -186.9,-219.37 -359.6,306.39 186.9,219.38 c 70.5,82.57 195,92.51 277.6,22.14 l 59.9,-51 c 39.8,-34.01 64,-81.61 68.2,-134.28 4.3,-52.58 -12.1,-103.41 -46.1,-143.26 z m -390.9,-458.71 c -70.3,-82.57 -194.8,-92.51 -277.5,-22.15 l -59.8,51.1 c -82.7,70.36 -92.6,194.87 -22.2,277.53 l 187,219.37 359.5,-306.48 z m 463.1,604.07 c -4.7,59.54 -32.2,113.6 -77.3,152.06 l -59.9,51 c -93.7,79.78 -234.7,68.54 -314.4,-25.11 l -390.9,-458.63 c -79.8,-93.55 -68.5,-234.63 25.1,-314.41 l 59.9,-51 c 41.8,-35.67 93.3,-53.19 144.5,-53.19 63.1,0 125.8,26.59 169.9,78.3 l 390.8,458.62 c 38.5,45.17 57.1,102.8 52.3,162.36" /></g><g
         id="g106"
         transform="scale(1.0757)"><path
           id="path104"
           fill="#0e2549"
           d="m 16232,7086.9 c -27.2,-34.59 -66,-56.43 -109.3,-61.64 -43.4,-5.11 -86.2,6.97 -120.8,34.12 -34.5,27.15 -56.4,66.01 -61.6,109.33 l -20.5,171.8 325.7,39.05 20.6,-171.9 c 5.2,-43.32 -6.9,-86.18 -34.1,-120.76 z m -192.7,635.52 c 6.6,0.84 13.1,1.21 19.6,1.21 81.8,0 152.8,-61.36 162.8,-144.57 l 20.6,-171.89 -325.8,-38.96 -20.5,171.9 c -10.8,89.8 53.5,171.62 143.3,182.31 z m 254.5,-511.5 -44.5,371.49 c -12.5,105.05 -108.4,180.26 -213.3,167.71 -105.1,-12.55 -180.4,-108.3 -167.8,-213.36 l 22.3,-185.65 v -0.09 l 22.1,-185.66 c 6.1,-50.66 31.7,-96.12 72.1,-127.92 34.3,-26.96 75.6,-41.18 118.3,-41.18 7.6,0 15.3,0.46 23,1.3 50.7,6.13 96.2,31.7 127.9,72.14 31.8,40.35 45.9,90.55 39.9,141.22" /></g><path
         id="path108"
         fill="#2e6b99"
         d="M 14315,2275.7 H 5546.8 v 12511 H 14315 v -12511" /><path
         id="path110"
         fill="#ffffff"
         d="M 13411,3094.5 H 6375.6 v 10847 H 13411 v -10847" /><g
         id="g136"
         fill="#0e2549"><path
           id="path112"
           d="m 6390.4,3109.5 h 7005.4 v 10817 H 6390.4 Z m 7035.4,-30 H 6360.4 v 10877 h 7065.4 v -10877" /><path
           id="path114"
           d="m 8015.3,11102 c 0,-315 -256.29,-571.3 -571.31,-571.3 -315.01,0 -571.3,256.3 -571.3,571.3 0,109.2 30.87,211.4 84.28,298.3 l 395.52,-424.4 555.85,458.3 c 67.22,-93.7 106.96,-208.4 106.96,-332.2 z m -571.31,571.3 c 180.41,0 341.45,-84.2 446.23,-215.2 l -535.03,-441.1 -381.29,409.1 c 103.18,149.2 275.37,247.2 470.09,247.2 z m 821.42,74.7 c -5.27,6.4 -14.72,7.3 -21.11,2 l -330.95,-272.8 c -110.28,137.7 -279.64,226.1 -469.36,226.1 -202.58,0 -381.96,-100.8 -490.96,-254.8 l -42.46,45.6 c -5.65,6 -15.15,6.4 -21.2,0.7 -6.06,-5.7 -6.4,-15.1 -0.75,-21.2 l 47.25,-50.7 c -58.91,-92.9 -93.18,-203 -93.18,-320.9 0,-331.6 269.74,-601.3 601.3,-601.3 331.56,0 601.31,269.7 601.31,601.3 0,131.1 -42.29,252.4 -113.77,351.3 l 331.85,273.6 c 6.39,5.3 7.3,14.7 2.03,21.1" /><path
           id="path116"
           d="m 7930.6,9006.1 c 0,-315 -256.28,-571.3 -571.3,-571.3 -315.02,0 -571.31,256.3 -571.31,571.3 0,109.3 30.88,211.4 84.29,298.3 l 395.52,-424.3 555.85,458.2 c 67.21,-93.6 106.95,-208.3 106.95,-332.2 z m -571.3,571.3 c 180.41,0 341.45,-84.1 446.22,-215.1 l -535.03,-441.1 -381.29,409.1 c 103.19,149.2 275.38,247.1 470.1,247.1 z m 821.42,74.8 c -5.27,6.4 -14.73,7.3 -21.12,2 l -330.94,-272.8 c -110.29,137.6 -279.65,226 -469.36,226 -202.59,0 -381.96,-100.8 -490.96,-254.7 l -42.47,45.5 c -5.65,6.1 -15.14,6.4 -21.2,0.8 -6.06,-5.7 -6.39,-15.2 -0.74,-21.2 l 47.25,-50.7 c -58.92,-93 -93.19,-203 -93.19,-321 0,-331.5 269.75,-601.3 601.31,-601.3 331.56,0 601.3,269.8 601.3,601.3 0,131.1 -42.29,252.5 -113.76,351.4 l 331.85,273.6 c 6.39,5.2 7.3,14.7 2.03,21.1" /><path
           id="path118"
           d="m 7903.5,6910.5 c 0,-315 -256.28,-571.3 -571.3,-571.3 -315.02,0 -571.31,256.3 -571.31,571.3 0,109.2 30.87,211.4 84.29,298.3 l 395.51,-424.3 555.85,458.2 c 67.22,-93.7 106.96,-208.4 106.96,-332.2 z m -571.3,571.3 c 180.41,0 341.44,-84.1 446.22,-215.1 l -535.04,-441.1 -381.28,409 c 103.18,149.2 275.38,247.2 470.1,247.2 z m 821.41,74.7 c -5.27,6.4 -14.72,7.3 -21.12,2.1 l -330.94,-272.9 c -110.28,137.7 -279.64,226.1 -469.35,226.1 -202.59,0 -381.97,-100.8 -490.97,-254.8 l -42.46,45.6 c -5.65,6 -15.14,6.4 -21.2,0.7 -6.06,-5.6 -6.39,-15.1 -0.74,-21.2 l 47.24,-50.7 c -58.91,-92.9 -93.18,-203 -93.18,-320.9 0,-331.6 269.74,-601.3 601.31,-601.3 331.55,0 601.3,269.7 601.3,601.3 0,131.1 -42.29,252.4 -113.77,351.3 l 331.85,273.6 c 6.39,5.3 7.3,14.7 2.03,21.1" /><path
           id="path120"
           d="M 12872,11579 H 8604.2 c -8.29,0 -15,6.7 -15,15 0,8.3 6.71,15 15,15 H 12872 c 8.3,0 15,-6.7 15,-15 0,-8.3 -6.7,-15 -15,-15" /><path
           id="path122"
           d="M 11707,10888 H 8567.6 c -8.29,0 -15,6.8 -15,15 0,8.3 6.71,15 15,15 H 11707 c 8.2,0 15,-6.7 15,-15 0,-8.2 -6.8,-15 -15,-15" /><path
           id="path124"
           d="M 12828,9403.4 H 8513.8 c -8.29,0 -15,6.8 -15,15 0,8.3 6.71,15 15,15 H 12828 c 8.3,0 15,-6.7 15,-15 0,-8.2 -6.7,-15 -15,-15" /><path
           id="path126"
           d="M 10539,8712.6 H 8477.4 c -8.29,0 -15,6.7 -15,15 0,8.2 6.71,15 15,15 H 10539 c 8.3,0 15,-6.8 15,-15 0,-8.3 -6.7,-15 -15,-15" /><path
           id="path128"
           d="M 12872,7228.1 H 8434.2 c -8.29,0 -15,6.7 -15,15 0,8.2 6.71,15 15,15 H 12872 c 8.3,0 15,-6.8 15,-15 0,-8.3 -6.7,-15 -15,-15" /><path
           id="path130"
           d="M 11880,6537.2 H 8398 c -8.29,0 -15,6.7 -15,15 0,8.3 6.71,15 15,15 h 3482 c 8.2,0 15,-6.7 15,-15 0,-8.3 -6.8,-15 -15,-15" /><path
           id="path132"
           d="M 11196,5601.3 H 7037.8 c -8.29,0 -15,6.7 -15,15 0,8.2 6.71,15 15,15 H 11196 c 8.3,0 15,-6.8 15,-15 0,-8.3 -6.7,-15 -15,-15" /><path
           id="path134"
           d="M 11160,4893.3 H 7001.8 c -8.28,0 -15,6.7 -15,15 0,8.3 6.72,15 15,15 H 11160 c 8.3,0 15,-6.7 15,-15 0,-8.3 -6.7,-15 -15,-15" /></g><g
         id="g148"><path
           id="path138"
           fill="#d2ebfc"
           d="m 8226.1,14715 c 0,-1514.6 -705.07,-2742.4 -1574.8,-2742.4 -869.73,0 -1574.8,1227.8 -1574.8,2742.4 0,0 579.91,194.9 764.44,279.2 215.87,98.7 837.12,452.7 837.12,452.7 0,0 607.21,-356.8 809.94,-452.7 184.29,-87.1 738.13,-279.2 738.13,-279.2" /><path
           id="path140"
           fill="#0e2549"
           d="m 5091.4,14704 c 3.32,-1499 701.76,-2716.6 1559.8,-2716.6 858.03,0 1556.5,1217.8 1559.8,2716.7 -76.14,26.6 -560.36,196.4 -729.53,276.4 -188.82,89.3 -733.24,407.6 -803.64,448.9 -71.54,-40.7 -629.64,-357.1 -830.77,-449 -169.61,-77.5 -677.09,-249.8 -755.67,-276.4 z m 1559.8,-2746.6 c -426.25,0 -826.35,287.9 -1126.6,810.7 -298.73,520.3 -463.24,1211.6 -463.24,1946.7 v 10.8 l 10.22,3.4 c 5.79,1.9 581.28,195.6 762.99,278.7 212.79,97.2 829.72,448.5 835.93,452 l 7.54,4.3 7.48,-4.4 c 6.07,-3.5 608.95,-357.5 808.76,-452 181.44,-85.8 731.09,-276.7 736.63,-278.6 l 10.08,-3.5 v -10.7 c 0,-735.1 -164.52,-1426.4 -463.25,-1946.7 -300.23,-522.8 -700.31,-810.7 -1126.6,-810.7" /><path
           id="path142"
           fill="#ffffff"
           d="m 7939.3,14505 c 0,-1238.8 -576.69,-2243.1 -1288.1,-2243.1 -711.41,0 -1288.1,1004.3 -1288.1,2243.1 0,0 514.19,165.8 676.81,240.4 166.3,76.3 638.9,363.2 638.9,363.2 0,0 467.77,-300.6 634.51,-380.5 148.36,-71 625.91,-223.1 625.91,-223.1" /><path
           id="path144"
           fill="#0e2549"
           d="m 5378.2,14494 c 3.41,-1223.5 573.18,-2217.2 1273.1,-2217.2 699.86,0 1269.6,993.6 1273,2217.1 -72.53,23.3 -480.18,154.9 -617.37,220.6 -155.8,74.6 -564.2,335.3 -628.26,376.4 -63.07,-38.2 -479.16,-288.9 -632.42,-359.3 -150.72,-69.1 -592.35,-213.1 -668.05,-237.6 z m 1273.1,-2247.2 c -349.66,0 -677.74,236 -923.81,664.5 -244.57,425.9 -379.26,991.9 -379.26,1593.6 v 10.9 l 10.39,3.4 c 5.14,1.6 515.21,166.3 675.16,239.7 163.63,75.1 632.65,359.6 637.37,362.5 l 8.01,4.8 7.89,-5 c 4.67,-3 468.89,-301.1 632.88,-379.6 145.73,-69.8 619.21,-220.9 623.98,-222.4 l 10.45,-3.4 v -10.9 c 0,-601.7 -134.69,-1167.7 -379.26,-1593.6 -246.07,-428.5 -574.15,-664.5 -923.8,-664.5" /><path
           id="path146"
           fill="#0e2549"
           d="m 7487.9,13970 h -576.47 v 576.4 H 6391 V 13970 h -576.48 v -520.5 H 6391 v -576.4 h 520.43 v 576.4 h 576.47 v 520.5" /></g><g
         id="g152"
         transform="scale(1.0846)"><path
           id="path150"
           fill="#0e2549"
           d="m 15889,12336 133.7,-28.3 37.8,178.2 178.2,-37.8 28.3,133.8 -178.2,37.7 37.8,178.1 -133.8,28.4 -37.7,-178.2 -178.2,37.8 -28.3,-133.8 178.2,-37.7 z m 155.1,-61.1 -187.9,39.8 37.7,178.1 -178.1,37.8 39.8,187.9 178.2,-37.8 37.7,178.2 187.9,-39.8 -37.8,-178.2 178.2,-37.7 -39.8,-187.9 -178.2,37.8 -37.7,-178.2" /></g><g
         id="g156"
         transform="scale(1.1266)"><path
           id="path154"
           fill="#0e2549"
           d="m 14993,12912 c -40.9,0 -78.7,-13 -112.8,-38.8 -84.9,-64.1 -133.4,-152 -143.9,-261.1 -41.1,-422.5 487.8,-1045.7 553.7,-1121.4 89.3,44.4 808.1,412.5 947.6,814 34.8,100.4 30.6,196 -12.5,284.3 -19.2,39.2 -50.1,64.7 -94.5,78 -207.2,62.2 -616.1,-177.2 -620.2,-179.6 l -11.1,-6.6 -6.9,11 c -2.4,3.7 -238.8,375.9 -461.5,416.6 -12.8,2.4 -25.4,3.6 -37.9,3.6 z m 290.4,-1454.1 -6.7,7.5 c -24.9,27.9 -611.7,689.6 -567,1149.3 11.4,116.8 63.3,210.9 154.5,279.8 50.6,38.2 108.3,51.7 171.5,40.1 214.8,-39.3 430.5,-353.9 472.3,-417.9 69.1,39.5 429.1,236.2 630.3,175.8 51.2,-15.3 88.4,-46.2 110.7,-91.8 46.4,-94.9 51,-197.4 13.7,-304.7 -151.7,-436.6 -936.9,-817.8 -970.3,-833.8 l -9,-4.3" /></g><g
         id="g160"
         transform="scale(1.0168)"><path
           id="path158"
           fill="#0e2549"
           d="m 14456,15990 -106.5,-149 -282.2,201.9 106.5,148.9 c 26.8,37.6 66.9,62.5 112.7,70.1 9.7,1.6 19.5,2.4 29.1,2.4 35.8,0 70.6,-11.1 100.2,-32.2 37.6,-26.9 62.5,-66.9 70,-112.8 7.7,-45.8 -2.9,-91.8 -29.8,-129.3 z m -230.1,-321.9 c -55.7,-77.8 -164.2,-95.9 -242,-40.3 -77.9,55.7 -95.9,164.3 -40.4,242.1 l 106.6,149 282.3,-201.9 z m 289.1,456.1 c -8.9,53.6 -38,100.5 -82,131.9 -43.9,31.4 -97.6,43.8 -151.3,34.9 -53.7,-8.9 -100.5,-38.1 -131.9,-82 l -230.3,-321.9 c -65.1,-91.1 -43.9,-218.1 47.2,-283.3 34.6,-24.7 75.4,-37.7 117.3,-37.7 11.3,0 22.6,1 34,2.8 53.6,9 100.5,38.1 131.9,82 l 230.1,321.9 c 31.5,44 43.9,97.7 35,151.4" /></g><g
         id="g168"><path
           id="path162"
           fill="#d2ebfc"
           d="m 2521.1,9835.5 58.28,-1154.8 770.36,267.1 -643.19,949.7 c -57.6,85.1 -190.63,40.6 -185.45,-62" /><path
           id="path164"
           fill="#0e2549"
           d="m 2623.5,9927.2 c -10.24,0 -20,-1.7 -28.5,-4.5 -28.73,-9.6 -61.4,-38 -58.96,-86.5 l 57.27,-1134.8 733.01,254.2 -632.23,933.5 c -19.14,28.3 -46.22,38.1 -70.59,38.1 z M 2565.36,8660 2506.08,9834.7 c -2.71,53.7 28.46,99.4 79.4,116.4 50.95,17.1 103.33,-0.7 133.45,-45.1 L 3373.08,8940.1 2565.36,8660" /><path
           id="path166"
           fill="#d2ebfc"
           d="m 5212.6,2332.2 c -253.72,-88 -530.73,46.4 -618.72,300.1 l -2011.3,5799.4 c -87.99,253.7 46.36,530.7 300.07,618.7 253.72,88 530.73,-46.4 618.72,-300.1 L 5512.67,2951 c 87.99,-253.8 -46.36,-530.8 -300.07,-618.8" /></g><g
         id="g176"
         fill="#0e2549"><path
           id="path170"
           d="m 3041.5,9062.3 c -51.11,0 -103.05,-8.4 -153.99,-26.1 -245.5,-85.1 -375.96,-354.1 -290.82,-599.6 l 2011.3,-5799.4 c 41.24,-118.9 126.33,-214.6 239.59,-269.6 113.25,-54.9 241.12,-62.4 360.04,-21.2 118.93,41.3 214.67,126.3 269.6,239.6 54.92,113.3 62.46,241.1 21.22,360 L 3487.14,8745.4 C 3419.67,8940 3236.7,9062.3 3041.5,9062.3 Z M 5052.8,2290.1 c -74.75,0 -149.09,17 -218.32,50.5 -120.47,58.5 -210.98,160.3 -254.84,286.8 l -2011.3,5799.4 c -90.56,261.1 48.2,547.2 309.33,637.8 261.12,90.5 547.24,-48.2 637.8,-309.4 l 2011.3,-5799.3 c 43.87,-126.5 35.86,-262.5 -22.57,-383 -58.42,-120.5 -160.27,-211 -286.75,-254.8 -53.8,-18.7 -109.34,-28 -164.65,-28" /><path
           id="path172"
           d="m 4213.2,6000.5 c -2.71,7.8 -11.25,11.9 -19.08,9.2 l -174.79,-60.6 -75.36,217.3 68.79,23.9 c 7.83,2.7 11.97,11.2 9.26,19 -2.72,7.9 -11.28,12 -19.09,9.3 l -68.79,-23.9 -75.37,217.4 174.99,60.6 c 7.83,2.7 11.97,11.3 9.25,19.1 -2.72,7.8 -11.25,12 -19.08,9.3 l -174.98,-60.7 -75.37,217.3 68.79,23.9 c 7.83,2.7 11.97,11.2 9.26,19 -2.72,7.9 -11.27,12 -19.09,9.3 l -68.79,-23.9 -75.36,217.3 174.89,60.7 c 7.82,2.7 11.96,11.3 9.25,19.1 -2.72,7.8 -11.25,12 -19.09,9.2 l -174.88,-60.6 -75.37,217.3 68.89,23.9 c 7.83,2.7 11.97,11.2 9.26,19.1 -2.72,7.8 -11.27,12 -19.09,9.2 l -68.89,-23.9 -75.36,217.3 175.09,60.8 c 7.82,2.7 11.96,11.2 9.25,19 -2.72,7.9 -11.26,12 -19.09,9.3 l -175.08,-60.7 -75.36,217.3 68.89,23.9 c 7.83,2.7 11.97,11.2 9.25,19.1 -2.71,7.8 -11.26,11.9 -19.08,9.2 l -68.89,-23.9 -75.36,217.3 174.98,60.7 c 7.83,2.7 11.97,11.3 9.26,19.1 -2.72,7.8 -11.25,12 -19.09,9.3 l -174.98,-60.7 -75.37,217.3 68.99,23.9 c 7.83,2.7 11.97,11.3 9.25,19.1 -2.71,7.8 -11.26,12 -19.08,9.2 l -68.99,-23.9 -75.36,217.3 175.18,60.8 c 7.83,2.7 11.97,11.2 9.25,19.1 -2.71,7.8 -11.25,11.9 -19.08,9.2 l -175.18,-60.7 -75.36,217.3 68.99,23.9 c 7.82,2.7 11.96,11.2 9.25,19.1 -2.72,7.8 -11.26,12 -19.09,9.2 l -68.98,-23.9 -138.8,400.2 c 33.84,34.3 47.45,86 30.58,134.7 l -130.54,376.4 c -23.67,68.2 -98.19,104.4 -166.43,80.7 -68.25,-23.7 -104.38,-98.2 -80.72,-166.4 l 130.56,-376.4 c 16.77,-48.4 59.1,-80.5 106.61,-86.8 l 138.9,-400.5 -68.32,-23.7 c -7.82,-2.7 -11.97,-11.2 -9.25,-19.1 2.15,-6.2 7.96,-10.1 14.17,-10.1 1.63,0 3.29,0.3 4.92,0.9 l 68.31,23.7 75.37,-217.3 -174.79,-60.7 c -7.83,-2.7 -11.97,-11.2 -9.25,-19 2.14,-6.2 7.95,-10.1 14.17,-10.1 1.63,0 3.28,0.2 4.91,0.8 l 174.79,60.6 75.36,-217.3 -68.32,-23.7 c -7.83,-2.7 -11.97,-11.2 -9.25,-19.1 2.14,-6.2 7.95,-10 14.17,-10 1.63,0 3.28,0.2 4.91,0.8 l 68.32,23.7 75.36,-217.3 -174.98,-60.7 c -7.83,-2.7 -11.97,-11.3 -9.25,-19.1 2.14,-6.2 7.95,-10.1 14.17,-10.1 1.63,0 3.28,0.3 4.91,0.8 l 174.98,60.7 75.37,-217.3 -68.42,-23.7 c -7.83,-2.7 -11.97,-11.3 -9.26,-19.1 2.15,-6.2 7.96,-10.1 14.17,-10.1 1.63,0 3.29,0.3 4.92,0.9 l 68.42,23.7 75.36,-217.3 -174.89,-60.7 c -7.83,-2.7 -11.97,-11.2 -9.25,-19.1 2.15,-6.2 7.96,-10 14.17,-10 1.63,0 3.29,0.2 4.92,0.8 l 174.88,60.6 75.36,-217.3 -68.42,-23.7 c -7.83,-2.7 -11.97,-11.3 -9.25,-19.1 2.15,-6.2 7.96,-10.1 14.17,-10.1 1.63,0 3.29,0.3 4.92,0.9 l 68.41,23.7 75.37,-217.3 -175.09,-60.7 c -7.82,-2.7 -11.97,-11.3 -9.25,-19.1 2.15,-6.2 7.96,-10.1 14.17,-10.1 1.63,0 3.29,0.3 4.92,0.8 l 175.07,60.8 75.37,-217.4 -68.52,-23.7 c -7.83,-2.7 -11.97,-11.3 -9.25,-19.1 2.15,-6.2 7.96,-10.1 14.17,-10.1 1.63,0 3.28,0.3 4.91,0.8 l 68.52,23.8 75.37,-217.3 -174.99,-60.7 c -7.83,-2.7 -11.97,-11.2 -9.26,-19.1 2.15,-6.2 7.96,-10.1 14.17,-10.1 1.63,0 3.29,0.3 4.92,0.9 l 174.99,60.7 75.36,-217.3 -68.52,-23.8 c -7.83,-2.7 -11.97,-11.3 -9.26,-19.1 2.15,-6.2 7.96,-10.1 14.17,-10.1 1.63,0 3.29,0.3 4.92,0.9 l 68.52,23.7 75.36,-217.3 -175.18,-60.8 c -7.83,-2.7 -11.97,-11.2 -9.26,-19 2.15,-6.2 7.96,-10.1 14.17,-10.1 1.63,0 3.29,0.2 4.92,0.8 l 175.18,60.8 75.36,-217.3 -68.08,-23.7 c -7.83,-2.7 -11.97,-11.2 -9.26,-19 2.15,-6.2 7.96,-10.1 14.17,-10.1 1.63,0 3.29,0.2 4.92,0.8 l 68.08,23.6 56.25,-162.2 109.84,38.1 -56.25,162.2 69.22,24 c 7.82,2.7 11.97,11.3 9.25,19.1 -2.71,7.8 -11.24,12 -19.09,9.3 l -69.21,-24.1 -75.37,217.4 174.79,60.6 c 7.83,2.7 11.97,11.2 9.25,19.1" /><path
           id="path174"
           d="m 5031.4,2920.2 -40.95,-14.2 -14.2,40.9 40.95,14.2 z m -140.34,272.4 40.94,14.2 75.37,-217.3 -40.95,-14.2 z m -85.19,245.6 40.94,14.2 75.36,-217.3 -40.94,-14.2 z m -85.2,245.7 40.95,14.2 75.36,-217.3 -40.95,-14.2 z m -85.19,245.6 40.94,14.2 75.37,-217.3 -40.95,-14.2 z m -85.19,245.7 40.94,14.2 75.36,-217.3 -40.94,-14.2 z m -85.2,245.6 40.94,14.2 75.37,-217.3 -40.94,-14.2 z m -85.19,245.6 40.94,14.2 75.36,-217.3 -40.94,-14.2 z m -85.19,245.7 40.94,14.2 75.36,-217.3 -40.94,-14.2 z m -85.2,245.6 40.94,14.2 75.37,-217.3 -40.94,-14.2 z m -85.19,245.7 40.94,14.2 75.36,-217.3 -40.94,-14.2 z m -372.74,1074.7 40.94,14.2 362.91,-1046.4 -40.94,-14.2 z m 1484.6,-3425.2 c -2.71,7.9 -11.26,12 -19.09,9.3 l -181.35,-62.9 -75.36,217.3 75.36,26.1 c 7.82,2.7 11.96,11.3 9.25,19.1 -2.72,7.8 -11.26,12 -19.09,9.3 l -75.35,-26.2 -75.37,217.3 181.56,63 c 7.82,2.7 11.97,11.3 9.25,19.1 -2.71,7.8 -11.26,12 -19.09,9.3 l -181.55,-63 -75.37,217.3 75.37,26.1 c 7.82,2.7 11.97,11.3 9.25,19.1 -2.71,7.8 -11.23,12 -19.08,9.3 l -75.36,-26.2 -75.37,217.3 181.37,62.9 c 7.82,2.8 11.96,11.3 9.25,19.1 -2.72,7.8 -11.26,12 -19.09,9.3 l -181.35,-62.9 -75.37,217.3 75.37,26.1 c 7.82,2.7 11.96,11.3 9.25,19.1 -2.72,7.8 -11.25,12 -19.09,9.3 l -75.36,-26.2 -75.36,217.3 181.56,63 c 7.82,2.7 11.96,11.3 9.25,19.1 -2.71,7.8 -11.26,12 -19.09,9.2 l -181.55,-62.9 -75.37,217.3 75.37,26.1 c 7.83,2.7 11.97,11.3 9.25,19.1 -2.71,7.8 -11.24,12 -19.08,9.3 l -75.37,-26.2 -75.36,217.3 181.13,62.8 c 7.82,2.8 11.96,11.3 9.25,19.1 -2.72,7.8 -11.25,12 -19.09,9.3 l -181.12,-62.8 -75.36,217.3 75.12,26 c 7.83,2.7 11.97,11.3 9.26,19.1 -2.72,7.8 -11.26,12 -19.09,9.3 l -75.12,-26.1 -75.37,217.3 181.33,62.9 c 7.82,2.7 11.96,11.3 9.25,19.1 -2.72,7.8 -11.25,12 -19.09,9.2 l -181.32,-62.8 -367.82,1060.5 -4.91,14.2 -97.63,-33.8 372.74,-1074.8 -180.86,-62.7 c -7.83,-2.7 -11.97,-11.3 -9.25,-19.1 2.15,-6.2 7.96,-10.1 14.17,-10.1 1.63,0 3.28,0.3 4.92,0.8 l 180.85,62.8 75.36,-217.4 -74.39,-25.8 c -7.83,-2.7 -11.97,-11.2 -9.25,-19 2.15,-6.2 7.96,-10.1 14.17,-10.1 1.63,0 3.29,0.2 4.92,0.8 l 74.38,25.8 75.36,-217.3 -181.05,-62.8 c -7.82,-2.7 -11.97,-11.2 -9.25,-19.1 2.15,-6.2 7.96,-10.1 14.17,-10.1 1.63,0 3.29,0.3 4.92,0.9 l 181.05,62.8 75.36,-217.3 -74.15,-25.8 c -7.83,-2.7 -11.97,-11.2 -9.26,-19 2.15,-6.2 7.96,-10.1 14.17,-10.1 1.63,0 3.29,0.2 4.92,0.8 l 74.15,25.7 75.36,-217.3 -180.62,-62.6 c -7.82,-2.7 -11.97,-11.3 -9.25,-19.1 2.15,-6.2 7.96,-10.1 14.17,-10.1 1.63,0 3.29,0.3 4.92,0.8 l 180.61,62.7 75.36,-217.3 -74.15,-25.8 c -7.82,-2.7 -11.97,-11.2 -9.25,-19 2.15,-6.2 7.96,-10.1 14.17,-10.1 1.63,0 3.29,0.2 4.92,0.8 l 74.14,25.7 75.37,-217.3 -180.82,-62.7 c -7.82,-2.7 -11.96,-11.2 -9.25,-19.1 2.15,-6.2 7.96,-10.1 14.17,-10.1 1.63,0 3.29,0.3 4.92,0.9 l 180.81,62.7 75.36,-217.3 -74.15,-25.7 c -7.82,-2.8 -11.97,-11.3 -9.25,-19.1 2.14,-6.2 7.95,-10.1 14.17,-10.1 1.63,0 3.28,0.3 4.91,0.8 l 74.15,25.7 75.36,-217.3 -180.62,-62.6 c -7.82,-2.7 -11.96,-11.3 -9.25,-19.1 2.15,-6.2 7.96,-10.1 14.17,-10.1 1.63,0 3.29,0.3 4.92,0.8 l 180.61,62.7 75.37,-217.3 -74.16,-25.7 c -7.82,-2.8 -11.96,-11.3 -9.25,-19.1 2.15,-6.2 7.96,-10.1 14.17,-10.1 1.63,0 3.29,0.3 4.92,0.8 l 74.15,25.7 75.36,-217.3 -180.82,-62.7 c -7.82,-2.7 -11.96,-11.2 -9.25,-19.1 2.15,-6.2 7.96,-10 14.17,-10 1.63,0 3.29,0.2 4.92,0.8 l 180.81,62.7 19.12,-55.1 4.91,-14.2 97.63,33.9 -24.03,69.2 181.36,62.9 c 7.83,2.8 11.97,11.3 9.25,19.1" /></g><g
         id="g204"><path
           id="path178"
           fill="#a1c5e2"
           d="m 10524,2332.5 c -173.3,105.7 -228.7,334 -123.1,507.3 l 403.7,662.4 c 105.7,173.3 333.9,228.7 507.3,123 173.3,-105.6 228.7,-333.9 123.1,-507.2 l -403.7,-662.4 c -105.7,-173.3 -333.9,-228.7 -507.3,-123.1" /><path
           id="path180"
           fill="#0e2549"
           d="m 11422,3125.8 -194,-318.4 -604.7,368.6 194.1,318.4 c 66.6,109.3 183.4,169.7 302.9,169.7 62.7,0 126.3,-16.7 183.7,-51.7 80.4,-49 137,-126.7 159.4,-218.9 22.3,-92.2 7.7,-187.3 -41.4,-267.7 z m -403.6,-662.4 c -101.6,-166.7 -319.9,-219.7 -486.7,-118 -80.4,49 -137,126.7 -159.3,218.9 -22.4,92.2 -7.8,187.3 41.3,267.7 l 194,318.4 604.7,-368.6 z m 474.1,937.1 c -24.2,100 -85.7,184.4 -172.9,237.5 -180.9,110.3 -417.6,52.8 -527.9,-128 L 10388,2847.6 c -53.1,-87.3 -69.1,-190.4 -44.8,-290.4 24.3,-99.9 85.7,-184.3 172.9,-237.5 62.3,-37.9 131.2,-56 199.3,-56 129.6,0 256.3,65.5 328.6,184.1 l 403.7,662.4 c 53.1,87.3 69.1,190.4 44.8,290.3" /><path
           id="path182"
           fill="#0e2549"
           d="m 11072,2522.1 c 0,0 -101.1,-194.4 -224.1,-218.7 -122.9,-24.2 -298.9,-51.6 -447.2,153.6 -148.2,205.2 51,465.7 51,465.7 l 151.3,248.3 630.3,-384.2 -161.3,-264.7" /><path
           id="path184"
           fill="#d2ebfc"
           d="m 12047,5024.3 v 832.4 h 1921.8 v -832.4 c 302.9,-31.8 539.6,-303.3 539.6,-633.5 V 2277 h -3000.9 v 2113.8 c 0,330.2 238,605.4 539.5,633.5" /><path
           id="path186"
           fill="#ffffff"
           d="m 11508,2827.6 h 1632.8 l 18.3,1305 H 11508 v -1305" /><path
           id="path188"
           fill="#0e2549"
           d="m 14494,2292 h -2970.9 v 520.6 h 1632.6 l 18.7,1335 h -1651.3 v 243.2 c 0,319.1 230.7,590.7 525.3,618.5 h 1527.5 v 30 h -67.3 v 802.4 h 445.8 v -830.9 l 13.4,-1.4 c 300,-31.5 526.2,-297.5 526.2,-618.6 z m -2970.9,1825.6 h 1620.8 l -17.8,-1275 h -1603 z m 539.5,1724.1 h 182.7 v -802.4 h -182.7 z m 212.7,0 h 200 v -802.4 h -200 z m 230,0 h 190 v -802.4 h -190 z m 220,0 h 183.3 v -802.4 h -183.3 z m 213.3,0 h 167.1 v -802.4 h -167.1 z m 197.1,0 h 150.5 v -802.4 h -150.5 z m 180.5,0 h 162.4 v -802.4 h -162.4 z m 668.2,-804 v 834 h -1951.8 v -833.9 c -303.6,-35.8 -539.5,-317.2 -539.5,-647 V 2262 H 14524 v 2128.8 c 0,331.7 -231.1,607.3 -539.6,646.9" /><path
           id="path190"
           fill="#ffffff"
           d="m 13411,2978.9 0.5,-314.1 h 435.2 l 36.3,298 -472,16.1" /><path
           id="path192"
           fill="#0e2549"
           d="m 13426,2679.8 h 406.9 l 32.7,268.6 -440.1,15 z m 433.5,-30 h -463.4 l -0.7,344.6 504,-17.2 -39.9,-327.4" /><path
           id="path194"
           fill="#8daec4"
           d="M 14943,6619.7 V 6007 l -535,32.7 77.3,555.1 457.7,24.9" /><path
           id="path196"
           fill="#e2474b"
           d="m 13388,2683.8 c 0,0 -629,-199.7 -650.7,-364.2 h 1127.8 v 364.2 H 13388" /><path
           id="path198"
           fill="#ffffff"
           d="m 15165,2972 11.8,-317.7 h 435.2 l 20.6,324.6 -467.6,-6.9" /><path
           id="path200"
           fill="#0e2549"
           d="m 15191,2669.3 h 406.6 l 18.7,294.4 -436.1,-6.4 z m 434.8,-30 h -463.7 l -13,347.5 499.2,7.3 -22.5,-354.8" /><path
           id="path202"
           fill="#e2474b"
           d="m 15153,2673.3 c 0,0 -629,-199.7 -650.7,-364.2 h 1127.8 v 364.2 H 15153" /></g><g
         id="g212"
         fill="#0e2549"><path
           id="path206"
           d="M 14461,2371.6 V 2277 h 1198.2 v 108.2 L 14461,2371.6" /><path
           id="path208"
           d="m 13900,2388.4 v -100.9 h -1198.2 v 108.2 l 1198.2,-7.3" /><path
           id="path210"
           d="m 15111,2539.5 c -1.4,0 -2.9,0.2 -4.3,0.6 l -217.4,65.1 c -8,2.4 -12.5,10.7 -10.1,18.6 2.4,8 10.8,12.4 18.6,10.1 l 217.5,-65 c 7.9,-2.4 12.4,-10.8 10,-18.7 -1.9,-6.5 -7.9,-10.7 -14.3,-10.7" /></g><path
         id="path214"
         fill="#e2474b"
         d="m 15214,10378 -27,13 c 2.1,4.5 215.8,454.6 103.6,678.6 -31.3,62.3 -86,101.7 -162.7,117.2 h -450.3 c -2.6,-0.2 -342.1,-21.8 -346.8,-225.4 -4.5,-198.2 39.5,-415.1 39.9,-417.2 l -29.4,-6.1 c -0.4,2.3 -45,222.5 -40.5,424 5.3,231.2 360.8,253.8 375.9,254.6 l 454.1,0.1 1.5,-0.3 c 87,-17.1 149.3,-62 185.1,-133.4 118.8,-237.3 -94.3,-686.1 -103.4,-705.1" /><g
         id="g228"
         fill="#0e2549"><path
           id="path216"
           d="m 15002,2474.4 c -1.5,0 -2.9,0.2 -4.3,0.6 l -217.5,65.1 c -7.9,2.4 -12.4,10.7 -10,18.7 2.3,7.9 10.7,12.4 18.6,10.1 l 217.5,-65.1 c 7.9,-2.4 12.4,-10.7 10,-18.7 -1.9,-6.5 -7.9,-10.7 -14.3,-10.7" /><path
           id="path218"
           d="m 14851,2409.4 c -1.4,0 -2.9,0.2 -4.3,0.6 l -217.4,65 c -7.9,2.4 -12.5,10.8 -10.1,18.7 2.4,8 10.8,12.4 18.7,10.1 l 217.4,-65.1 c 7.9,-2.3 12.5,-10.7 10.1,-18.6 -2,-6.5 -7.9,-10.7 -14.4,-10.7" /><path
           id="path220"
           d="m 13376,2572.1 c -1.4,0 -2.9,0.2 -4.3,0.7 l -217.4,65 c -8,2.4 -12.5,10.8 -10.1,18.7 2.4,7.9 10.7,12.4 18.7,10.1 l 217.4,-65.1 c 7.9,-2.4 12.4,-10.7 10.1,-18.7 -2,-6.5 -7.9,-10.7 -14.4,-10.7" /><path
           id="path222"
           d="m 13267,2507.1 c -1.4,0 -2.9,0.2 -4.3,0.6 l -217.4,65.1 c -8,2.3 -12.5,10.7 -10.1,18.6 2.4,8 10.7,12.4 18.6,10.1 l 217.5,-65.1 c 7.9,-2.3 12.4,-10.7 10.1,-18.6 -2,-6.5 -8,-10.7 -14.4,-10.7" /><path
           id="path224"
           d="m 13117,2442 c -1.4,0 -2.8,0.2 -4.3,0.6 l -217.4,65.1 c -7.9,2.4 -12.4,10.7 -10.1,18.7 2.4,7.9 10.8,12.3 18.7,10 l 217.4,-65 c 8,-2.4 12.5,-10.8 10.1,-18.7 -1.9,-6.5 -7.9,-10.7 -14.4,-10.7" /><path
           id="path226"
           d="m 15772,8465.7 -17.4,-1634.3 -10.3,-973.9 -31.3,-2943.2 h -692.6 l -309.8,3002.1 -46.6,451.7 -89.7,-444.4 -607.2,-3009.4 h -666.7 l 274.7,3009.4 v 0.1 l 126.7,1388.9 73.8,808.2 935.6,161.6 362.2,62.6 698.6,120.6" /></g><g
         id="g244"><path
           id="path230"
           fill="#ffffff"
           d="m 14588,11519 c 0,0 49,-514.5 7.8,-571.4 -41.1,-56.9 -278.7,-161.7 -278.7,-161.7 l 398.3,-1171.2 850.7,82.2 55.1,870.8 c 0,0 -388.2,316.3 -411.7,381.2 -32.4,89.9 -32.5,570.1 -32.5,570.1 h -589" /><path
           id="path232"
           fill="#0e2549"
           d="m 14705,9599 -406.6,1195.4 12.5,5.6 c 65.1,28.7 240.9,112.8 272.7,156.8 27.6,38.1 8.1,364.5 -10.6,561.2 -0.8,8.3 5.3,15.6 13.5,16.4 8.3,0.8 15.6,-5.3 16.4,-13.5 8.2,-86.9 47.3,-523.2 5,-581.7 -38.2,-52.7 -219,-137 -272.3,-161.1 l 390.1,-1147 826.1,79.9 53.9,850.3 c -60.8,49.6 -387.2,318.6 -410.4,382.9 -32.9,91.3 -33.4,555.5 -33.4,575.2 0,8.3 6.7,15 15,15 8.3,0 15,-6.7 15,-15 0,-4.7 0.5,-478.6 31.6,-565 16.2,-44.8 252.3,-248.6 407.1,-374.7 l 6,-4.9 -56.5,-891.2 -875.1,-84.6" /><path
           id="path234"
           fill="#ffffff"
           d="m 12253,10509 c 130.1,-73.5 646.7,-619.8 646.7,-619.8 l -370.7,-177 c 0,0 -300.8,561.8 -354,568.9 -100,13.5 -402.5,4.4 -500.1,69.8 -147.6,98.9 -223.9,224.9 -206.3,264.1 9.5,21.2 265.5,-132.3 321.6,-133.8 158.7,-4.1 370,80.2 462.8,27.8" /><path
           id="path236"
           fill="#0e2549"
           d="m 11480,10600 c 0.9,-37.4 65.9,-145.7 202.4,-237.1 67.2,-45.1 243.4,-53.3 372.1,-59.3 50.1,-2.3 93.4,-4.3 121.6,-8.1 13.2,-1.8 40.6,-5.5 207.9,-294.5 67,-115.7 130.1,-231.9 150.5,-269.6 l 339.2,162 c -83.9,88.1 -514.3,537.2 -629,602 -50.4,28.5 -144.9,11.8 -244.9,-5.8 -71.2,-12.6 -145,-25.6 -210.8,-23.9 -29.4,0.8 -92.7,31.2 -185.9,77.6 -43.2,21.5 -100.4,49.9 -123.1,56.7 z m 1041.6,-908 -6.8,12.6 c -142.2,265.7 -309.6,548.4 -343.6,561.4 -26,3.4 -68.7,5.4 -118.1,7.7 -132.2,6.1 -313.2,14.5 -387.4,64.2 -149,99.8 -234.7,231.6 -211.7,282.8 2,4.4 5.7,7.8 10.5,9.5 16,5.8 45,-6.9 152,-60.1 66.1,-32.8 148.3,-73.7 173.2,-74.4 62.8,-1.6 135.1,11.1 204.9,23.4 105.5,18.6 205.1,36.2 264.9,2.5 130.5,-73.8 629,-600.2 650.2,-622.6 l 14.2,-14.9 -402.3,-192.1" /><path
           id="path238"
           fill="#e2474b"
           d="m 14188,10832 c -257.2,-93.8 -195,-1466.9 -195,-1466.9 -42,-161.5 -140.9,-1026 -140.9,-1026 l 1802.1,-359.2 212.5,1079 c 0,0 133,1816.7 -573.1,1923.1 -67.7,10.2 -274.7,-86.6 -496,-65.2 -96,9.3 -144.9,-105.3 -192.6,62.8 0,0 -361.1,-127.2 -417,-147.6" /><path
           id="path240"
           fill="#091a33"
           d="m 15783,6769.7 -23.6,-913 -14.5,0.8 -1033.7,58.9 -46.6,451.7 -89.7,-444.4 h -999.2 v 0.1 l 126.7,1388.9 371,667.4 638.4,302.4 321.8,152.4 40.4,-89.8 681.2,-1513.7 27.8,-61.7" /><path
           id="path242"
           fill="#a1c5e2"
           d="m 14606,9186.6 -171.1,1763.1 c -117.9,0 -621.6,-317 -621.6,-317 -8,16.3 -429.8,-754.1 -546.1,-1040.9 -13.4,-33.1 -622.6,635.4 -619.1,595.9 0,0 -359.5,-109.5 -356.9,-172.3 2.6,-62.8 558.2,-1132.4 967.8,-1325.7 75.9,-35.9 507.9,240.3 530.5,651 l -55.7,-1012.8 -185,-2246.8 903.6,-1.4 131.5,2093.3 22.1,1013.6" /></g><g
         id="g248"
         transform="scale(1.002)"><path
           id="path246"
           fill="#a1c5e2"
           d="m 15219,10994 -654.4,-1863.6 c -1.7,-148.51 -34.6,-745.11 0,-1376.2 46.8,-857.18 165.3,-1778.1 165.3,-1726.9 0,20.76 1100.4,-48.61 1100.4,-48.61 l 53,1759.3 c 0,0 416.9,288.43 416.9,1105.2 0,915.17 -49.9,1226.1 -171.8,1685.4 -17.5,66.3 -669.9,465.5 -909.4,465.5" /></g><path
         id="path250"
         fill="#0e2549"
         d="m 14881,12515 c -107,2.3 -367.1,11.3 -391.3,-177.7 -27.7,-215.6 -26.9,-497.4 -23.9,-646.1 1.1,-58.7 45,-107.6 103.1,-115.1 l 650.9,-83.5 c 59.6,-7.6 115.5,30.7 129.9,89.2 48.5,196.9 147.4,614.3 131.9,681.1 -52.8,227.4 -431,248.5 -600.6,252.1" /><path
         id="path252"
         fill="#ffffff"
         d="m 15151,11358 c 39.9,32 72.5,174.6 97.6,338.9 0.8,4.8 3.9,8.7 8.2,10.6 46,20 114.8,66.5 123.5,148.5 7.5,71 -45.6,62.7 -88.7,45.1 -7.7,-3.2 -15.8,3.3 -14.8,11.8 22.3,199.1 33.7,374.7 33.7,374.7 l -773.4,99.3 c 0,0 -21.2,-177.4 -39.3,-377.1 -0.8,-9 -29.1,-487.1 -16,-532.4 7.1,-24.7 24,-46.5 48,-65.7 0,0 44.4,-46.9 325.5,-83 l 295.7,29.3" /><g
         id="g268"
         fill="#0e2549"><path
           id="path254"
           d="m 14856,11314 c -0.6,0 -1.2,0.1 -1.9,0.1 -265.5,34.1 -324.4,78.1 -333.5,86.6 -27.2,21.9 -44.9,46.3 -52.5,72.9 -14.2,49.1 15.1,533.4 15.5,537.9 17.9,197.6 39.1,375.7 39.3,377.5 l 1.8,15 802.4,-103 -0.9,-14 c -0.1,-1.8 -11.4,-174.5 -33.1,-369.2 37.2,14.1 65.2,14.3 83.3,0.7 16.2,-12.1 22.7,-33.6 19.5,-63.8 -10.3,-97 -95.1,-144.3 -131.8,-160.4 -31.2,-203.3 -64.8,-317.1 -103,-347.7 -6.4,-5.2 -15.9,-4.2 -21,2.3 -5.2,6.4 -4.2,15.9 2.3,21.1 17.7,14.3 53.3,76.1 92.1,329.5 1.5,9.9 7.9,18.1 17,22.1 31.5,13.6 105.9,54.4 114.6,136.3 1.3,13 1.1,30 -7.7,36.7 -9.7,7.2 -31.7,4.6 -60.4,-7.1 -8.5,-3.4 -17.9,-2.2 -25.2,3.3 -7.4,5.6 -11.3,14.6 -10.2,24.1 18.4,164.5 29.5,314.4 32.7,360 l -744.3,95.5 c -5.5,-47 -22.7,-197.6 -37.5,-361.7 -1.6,-18.7 -28.5,-485.8 -16.6,-526.8 5.9,-20.6 20.4,-40.2 42.9,-58.1 l 1.6,-1.5 c 0.1,-0.1 50.4,-44.3 316.5,-78.4 8.2,-1.1 14,-8.6 13,-16.8 -1,-7.6 -7.4,-13.1 -14.9,-13.1" /><path
           id="path256"
           d="m 14969,11869 c -0.7,0 -1.3,0 -2,0.1 -13.8,1 -24.1,13.1 -23,26.8 l 1.3,16.1 c 1,13.8 13.2,24.1 26.8,23 13.8,-1.1 24.1,-13.1 23,-26.9 l -1.2,-16.1 c -1.1,-13.1 -12,-23 -24.9,-23" /><path
           id="path258"
           d="m 14629,11902 c -1,0 -2,0.1 -3,0.2 -13.7,1.6 -23.5,14.1 -21.9,27.8 l 2.3,18.8 c 1.6,13.8 14,23.6 27.7,21.9 13.7,-1.6 23.5,-14 21.9,-27.7 l -2.2,-18.9 c -1.5,-12.7 -12.3,-22.1 -24.8,-22.1" /><path
           id="path260"
           d="m 15064,11988 c -2.5,0 -5,0.6 -7.3,1.9 -58.9,32.8 -121.9,14.2 -122.5,14 -7.9,-2.4 -16.3,2.1 -18.8,10 -2.4,7.9 2,16.3 9.9,18.7 3.1,0.9 75.6,22.7 146,-16.5 7.2,-4 9.8,-13.1 5.8,-20.4 -2.7,-4.9 -7.8,-7.7 -13.1,-7.7" /><path
           id="path262"
           d="m 14748,11693 c -1.6,0 -3.3,0.3 -5,0.9 -11.2,4 -67.4,25.5 -69.3,59.7 -1.4,25.5 2,31.8 43.6,108.1 9,16.5 19.8,36.3 32.9,60.5 6.1,14.1 21,54.3 19.2,79 -0.1,1 -2.8,6.3 -14.5,13.3 -33.5,20.2 -109.9,35.4 -158,14.5 -7.5,-3.3 -16.4,0.2 -19.7,7.8 -3.3,7.6 0.2,16.4 7.8,19.7 54.3,23.7 141.5,10.3 185.8,-16.5 18,-10.9 27.6,-23.2 28.5,-36.6 2.7,-37.7 -20.9,-91.6 -21.9,-93.9 l -0.5,-1 c -13.2,-24.5 -24.2,-44.6 -33.2,-61.1 -39.8,-73 -41,-75.6 -40,-92.1 0.4,-9 26.9,-25.2 49.3,-33.1 7.8,-2.8 11.9,-11.3 9.2,-19.1 -2.2,-6.2 -8,-10.1 -14.2,-10.1" /><path
           id="path264"
           d="m 15531,7649.8 c -3.1,0 -6.3,1 -9,3.1 l -497.5,377.9 c -6.6,5 -7.9,14.4 -2.9,21 5.1,6.6 14.5,7.8 21.1,2.8 l 497.4,-377.8 c 6.6,-5.1 7.9,-14.5 2.9,-21.1 -3,-3.8 -7.4,-5.9 -12,-5.9" /><path
           id="path266"
           d="m 13780,7738.7 c -5.4,0 -10.7,3 -13.4,8.2 -3.7,7.4 -0.8,16.4 6.6,20.2 l 535.2,271.6 c 7.4,3.8 16.5,0.8 20.2,-6.6 3.8,-7.3 0.8,-16.4 -6.6,-20.1 l -535.2,-271.7 c -2.2,-1.1 -4.5,-1.6 -6.8,-1.6" /></g><g
         id="g292"><path
           id="path270"
           fill="#ffffff"
           d="m 14450,11002 -359.5,-397.1 291.4,-117 -167.5,-439.6 385,-808.7 c 1.5,-3 6,-1.7 5.7,1.6 L 14450,11002" /><path
           id="path272"
           fill="#0e2549"
           d="m 14230,10049 353.6,-742.6 -146.2,1660.1 -322,-355.7 285,-114.5 z m 359.4,-809.1 v -0.1 z m 12,-17 c -6.8,0 -13.2,3.9 -16.2,10.3 l -387.8,814.5 164.5,431.8 -297.6,119.6 396.9,438.4 158.1,-1795 c 0.8,-8.6 -4.7,-16.6 -13.1,-18.9 -1.6,-0.4 -3.2,-0.7 -4.8,-0.7" /><path
           id="path274"
           fill="#ffffff"
           d="m 15249,11016 347.4,-526.6 -391.9,-34.1 88,-466.2 -664.9,-740.8 c -4.5,-5 -12.4,-0.1 -10.1,6.1 L 15249,11016" /><path
           id="path276"
           fill="#0e2549"
           d="m 15253,10983 -605.9,-1690.2 629.3,701.1 -89.7,475.2 383.3,33.4 z m -621.2,-1733.1 -0.1,-0.3 c 0,0.1 0,0.2 0.1,0.3 z m -8.6,-18.4 c -3.8,0 -7.6,1 -11,3.2 -8.8,5.3 -12.3,15.8 -8.7,25.4 l 641.5,1789.5 377.8,-572.7 -400.5,-34.8 86.3,-457.2 -669.9,-746.4 c -4.1,-4.6 -9.7,-7 -15.5,-7" /><path
           id="path278"
           fill="#0e2549"
           d="m 15817,5975.9 c -0.2,0 -0.5,0 -0.7,0.1 l -1067,49 -3.8,8.5 c -93.4,210.1 -174.3,1922.6 -177.7,1995.4 l 21.8,1212.6 c 0.1,8.3 7.2,14.8 15.3,14.7 8.2,-0.2 14.8,-7 14.7,-15.3 l -21.9,-1211.6 c 0.8,-16.6 82,-1734.7 171.8,-1975.2 l 1048.2,-48.2 c 8.2,-0.4 14.6,-7.4 14.3,-15.7 -0.4,-8 -7,-14.3 -15,-14.3" /><path
           id="path280"
           fill="#ffffff"
           d="m 14706,8517.3 c 0,-24.4 19.8,-44.1 44.2,-44.1 24.3,0 44.1,19.7 44.1,44.1 0,24.4 -19.8,44.1 -44.1,44.1 -24.4,0 -44.2,-19.7 -44.2,-44.1" /><path
           id="path282"
           fill="#0e2549"
           d="m 14750,8546.4 c -16.1,0 -29.2,-13 -29.2,-29.1 0,-16.1 13.1,-29.1 29.2,-29.1 16,0 29.1,13 29.1,29.1 0,16.1 -13.1,29.1 -29.1,29.1 z m 0,-88.2 c -32.6,0 -59.2,26.5 -59.2,59.1 0,32.6 26.6,59.1 59.2,59.1 32.6,0 59.1,-26.5 59.1,-59.1 0,-32.6 -26.5,-59.1 -59.1,-59.1" /><path
           id="path284"
           fill="#0e2549"
           d="m 14413,6066.1 h -880.5 l 1.2,16.1 270.3,3615.3 c 0.6,8.2 8,14.4 16,13.8 8.3,-0.6 14.5,-7.8 13.9,-16.1 l -269.1,-3599.1 h 848.2 c 8.3,0 15,-6.7 15,-15 0,-8.3 -6.7,-15 -15,-15" /><path
           id="path286"
           fill="#e2474b"
           d="m 15438,10930 -208.9,162.8 -431.9,-175.6 138.5,-165.3 502.3,178.1" /><path
           id="path288"
           fill="#0e2549"
           d="m 14822,10911 118.6,-141.5 466.7,165.5 -180.5,140.6 z m 109,-176.7 -158.4,189 459,186.6 237.3,-184.9 -537.9,-190.7" /><path
           id="path290"
           fill="#e2474b"
           d="m 14320,10911 145.6,154.4 331.4,-148.6 -124.9,-152.4 -352.1,146.6" /></g><g
         id="g302"
         fill="#0e2549"><path
           id="path294"
           d="m 14346,10917 321.7,-134 105.5,128.6 -303.8,136.2 z m 330.8,-170.3 -382.5,159.3 167.9,177.9 359,-161 -144.4,-176.2" /><path
           id="path296"
           d="m 14936,10752 -138.5,165.3 -137.7,-165.3 60.2,-70.9 -161,-881.3 59,-544.8 223.3,622.7 -5.8,789.8 100.5,84.5" /><path
           id="path298"
           d="m 14000,2879.5 h -757.1 v 215 h 757.1 v -215" /><path
           id="path300"
           d="m 15759,2914.3 h -757.1 v 215 h 757.1 v -215" /></g><g
         id="g314"><path
           id="path304"
           fill="#a1c5e2"
           d="m 14004,3079.5 c -1,0 -2,0.1 -3,0.3 -8.1,1.6 -13.3,9.6 -11.7,17.7 l 336.6,1668.5 c -71.2,-16.9 -269.8,-58.5 -335.6,-16.2 -13.1,8.3 -21.3,20 -23.7,33.7 -2.2,12.3 1,24.6 9.3,35.5 36.9,49 183,74.5 254.6,84.2 -62.2,48 -89.6,82.6 -81.5,102.9 7.9,20 36.6,16.2 46,15 74.3,-10 136.3,-51.5 166.7,-75.4 l 82.3,405.6 c 1.7,8.2 9.6,13.4 17.7,11.8 8.1,-1.7 13.4,-9.6 11.7,-17.7 l -92.8,-457.1 -19.6,18.7 c -0.8,0.7 -76.2,71.8 -170,84.3 -4.9,0.7 -8.7,0.6 -11.1,0.9 10.6,-16.9 52,-53.9 98.4,-87.2 l 32.1,-23 -39.3,-4.1 c -64.3,-6.6 -238.4,-33.3 -271.3,-76.9 -4.2,-5.7 -4.1,-9.7 -3.7,-12.2 0.6,-3.4 2.4,-8.7 10.4,-13.8 55.2,-35.4 260.6,6.5 335.1,25.7 l 23.2,6 -346.1,-1715.2 c -1.4,-7.1 -7.7,-12 -14.7,-12" /><path
           id="path306"
           fill="#a1c5e2"
           d="m 15725,3127 h -0.1 c -8.3,0 -15,6.7 -14.9,15 l 8,1702.1 c -66.6,-30.3 -253.5,-109.5 -326.2,-80.7 -14.5,5.7 -24.7,15.5 -29.8,28.5 -4.5,11.6 -3.7,24.3 2.3,36.7 26.7,55.1 165.2,108.4 233.5,131.7 -70.3,35.2 -103.8,63.8 -99.8,85.3 3.9,21.1 32.7,22.9 42.2,23.5 74.9,4.7 143.7,-24.1 178.1,-41.7 l 2.5,413.9 c 0,8.3 7.1,15.1 15.1,14.9 8.3,-0.1 14.9,-6.8 14.9,-15.1 l -2.8,-466.4 -22.9,14.6 c -0.8,0.5 -88.7,55.8 -183,49.9 -5,-0.4 -8.6,-0.9 -11.1,-1.4 13.7,-14.5 61.5,-42.7 113.4,-66.4 l 35.9,-16.5 -37.8,-11.5 c -61.8,-19 -227.5,-78.8 -251.2,-127.9 -3.1,-6.4 -2.3,-10.3 -1.4,-12.7 1.3,-3.3 4,-8 12.9,-11.5 61.1,-24.1 254.4,56.7 323.8,89.9 l 21.6,10.4 -8.2,-1749.7 c -0.1,-8.3 -6.8,-14.9 -15,-14.9" /><path
           id="path308"
           fill="#0e2549"
           d="m 15322,12231 c 0,0 -777.6,-60.7 -1031.9,142.9 -145.2,116.2 34.8,382.4 167.9,399.2 100.2,12.6 204.9,-138 310.3,-150.2 81,-9.4 271.6,-48.3 376.2,-69.4 212.1,-42.8 287.2,-227.6 177.5,-322.5" /><path
           id="path310"
           fill="#ffffff"
           d="m 15898,8106.4 -936.4,-414.6 319,-651.9 920.8,417.4 -303.4,649.1" /><path
           id="path312"
           fill="#0e2549"
           d="m 14982,7684.4 305.7,-624.8 893.7,405.1 -290.8,622 z m 291.6,-664.2 -332.3,679 964.1,426.8 316,-676.1 -947.8,-429.7" /></g><g
         id="g318"
         transform="scale(1.0096)"><path
           id="path316"
           fill="#ffffff"
           d="m 15633,7904.4 c -17.7,-153.93 -129.2,-426.32 -210.9,-542.71 -40.1,-57.15 -174.1,-264.96 -188.5,-317.85 -8.8,-32.09 152.5,46.65 160,48.53 l 9.9,-60.52 c 0,0 32,-30.9 60.3,-18.82 24.2,10.3 36.3,48.54 59.6,54.28 2.1,0.6 46.8,-6.63 62.4,-2.77 19.8,4.85 35,44.77 49.4,56.86 10.6,8.91 48.8,-6.74 65.8,4.45 27.4,17.93 16.9,56.06 36,69.24 18,12.38 45.5,-13.67 76,9.51 29.8,22.58 -94.8,200.28 -92.6,240.59 8.4,141.15 579.5,928.22 296.7,1469 -126.8,242.47 -324.2,-489.12 -384.1,-1009.8" /></g><g
         id="g322"
         transform="scale(1.0062)"><path
           id="path320"
           fill="#0e2549"
           d="m 15469,7063.2 c 7.6,-6.17 26.3,-19.19 40.8,-13.03 8.2,3.48 15.8,13.42 23.3,23.06 10.6,13.72 21.6,27.93 38.8,32.2 3.2,0.8 5,0.6 14.9,-0.59 10.7,-1.2 38.9,-4.48 47.7,-2.29 6.5,1.59 16.9,17.99 23.3,27.73 6.7,10.33 12.9,20.17 20.3,26.34 9.8,8.24 24.1,6.75 39.2,5.06 9.4,-0.99 23.6,-2.58 28.2,0.5 10,6.46 12.6,17.89 15.7,31.01 3.1,13.61 6.6,28.92 20.1,38.16 12.7,8.84 26.6,6.36 38.8,4.17 12.7,-2.28 23.7,-4.27 35.6,4.08 3.1,16.1 -30.5,80 -50.7,118.56 -29.7,56.65 -47.8,92.33 -46.6,112.8 2.2,38.46 39.7,114.59 91.6,219.93 145.7,295.77 416.8,846.24 207.6,1246.3 -15.2,29.12 -30.7,42.44 -46.3,39.55 -48.3,-8.94 -114.4,-144.3 -176.6,-362.15 -58.2,-203.63 -108.5,-459.94 -134.5,-685.44 -18.3,-158.71 -133,-435.89 -214.2,-551.37 -44.4,-63.21 -156.5,-239.31 -182.5,-301.92 16,3.57 49.5,15.5 117.7,46.01 15.1,6.76 18,8.05 20.3,8.65 l 15.8,3.97 z m 32.8,-44.43 c -29.8,0 -55.7,24.65 -57,25.84 l -3.6,3.48 -7.6,46.71 c -0.1,-0.1 -0.2,-0.1 -0.2,-0.1 -116.7,-52.37 -143.7,-56.15 -157.2,-44.53 -5.9,5.08 -8.2,12.92 -5.9,21.07 15.7,57.65 156.7,274.4 191.3,323.59 79.2,112.7 191.1,383.02 209,537.66 l 14.8,-1.69 -14.8,1.69 c 48.6,422.38 196,1047.7 335.2,1073.5 29.8,5.57 56.3,-12.92 78.2,-55.06 216.2,-413.43 -59.3,-972.75 -207.3,-1273.2 -48.5,-98.38 -86.7,-176.1 -88.6,-208.6 -0.8,-13.22 24.7,-61.72 43.3,-97.09 45.1,-86.07 69.5,-135.66 43.5,-155.34 -22.7,-17.29 -45.2,-13.22 -60.1,-10.64 -7.1,1.3 -14,2.59 -16.6,0.7 -4,-2.68 -5.9,-11.23 -8,-20.27 -3.5,-15.31 -8.4,-36.18 -28.4,-49.29 -13.5,-8.95 -31.7,-6.96 -47.7,-5.17 -5.8,0.59 -14.4,1.49 -17.7,0.99 -3.8,-3.78 -9,-11.73 -13.6,-18.88 -10.8,-16.9 -23.1,-36.08 -41.1,-40.55 -12.9,-3.18 -35.9,-0.99 -58.2,1.59 -2.5,0.3 -4.6,0.6 -6.1,0.7 -6.7,-2.79 -13.8,-11.93 -20.7,-20.87 -9.3,-12.13 -20,-25.84 -35.3,-32.3 -6.5,-2.79 -13.2,-3.98 -19.6,-3.98" /></g><g
         id="g326"
         transform="scale(1.0141)"><path
           id="path324"
           fill="#a1c5e2"
           d="m 15723,7458.4 c 0,0 432.4,279.76 504.7,877.95 72.3,598.28 -187.8,1598.4 -187.8,1598.4 l -522.1,-514.11 c 0,0 118.2,-811.49 78.8,-997.18 -39.5,-185.68 -319.8,-965.02 -319.8,-965.02 h 446.2" /></g><g
         id="g336"><path
           id="path328"
           fill="#0e2549"
           d="m 15944,7548.3 h -472 l 5,18.8 c 47,177.5 107.9,330.6 166.9,478.7 80.5,202.4 150.1,377.1 164.1,563.6 42.5,566.1 -145.9,1033.4 -147.8,1038.1 -3.2,7.6 0.5,16.4 8.1,19.5 7.7,3.1 16.5,-0.5 19.6,-8.2 1.9,-4.7 193,-478.5 150,-1051.7 -14.4,-191 -88.1,-376.2 -166.1,-572.4 -56.6,-141.9 -114.9,-288.6 -160.8,-456.4 h 433 c 8.3,0 15,-6.7 15,-15 0,-8.3 -6.7,-15 -15,-15" /><path
           id="path330"
           fill="#ffffff"
           d="m 15107,9677 v -300.4 l 461.7,-0.9 V 9677 H 15107" /><path
           id="path332"
           fill="#0e2549"
           d="m 15122,9391.6 431.7,-0.8 V 9662 H 15122 Z m 461.7,-30.9 -491.7,1 V 9692 h 491.7 v -331.3" /><path
           id="path334"
           fill="#ffffff"
           d="m 15436,9677 h -188.6 c 0,40.3 32.7,73 73,73 h 42.6 c 40.3,0 73,-32.7 73,-73" /></g><g
         id="g344"
         fill="#0e2549"><path
           id="path338"
           d="m 15264,9692 h 154.8 c -6.7,24.7 -29.3,43 -56.1,43 h -42.6 c -26.8,0 -49.4,-18.3 -56.1,-43 z m 186.7,-30 h -218.6 v 15 c 0,48.5 39.5,88 88,88 h 42.6 c 48.5,0 88,-39.5 88,-88 v -15" /><path
           id="path340"
           d="m 15489,9568.6 h -290 c -8.3,0 -15,6.7 -15,15 0,8.3 6.7,15 15,15 h 290 c 8.3,0 15,-6.7 15,-15 0,-8.3 -6.7,-15 -15,-15" /><path
           id="path342"
           d="m 15436,9488.6 h -194.2 c -8.3,0 -15,6.7 -15,15 0,8.3 6.7,15 15,15 h 194.2 c 8.3,0 15,-6.7 15,-15 0,-8.3 -6.7,-15 -15,-15" /></g><path
         id="path346"
         fill="#ebf4fe"
         d="m 15311,10274 c 0,-60.9 -49.4,-110.2 -110.2,-110.2 -60.9,0 -110.2,49.3 -110.2,110.2 0,60.9 49.3,110.2 110.2,110.2 60.8,0 110.2,-49.3 110.2,-110.2" /><g
         id="g360"
         fill="#e2474b"><path
           id="path348"
           d="m 15200,10370 c -52.5,0 -95.2,-42.7 -95.2,-95.2 0,-52.5 42.7,-95.2 95.2,-95.2 52.5,0 95.2,42.7 95.2,95.2 0,52.5 -42.7,95.2 -95.2,95.2 z m 0,-220.4 c -69.1,0 -125.2,56.2 -125.2,125.2 0,69 56.1,125.2 125.2,125.2 69,0 125.2,-56.2 125.2,-125.2 0,-69 -56.2,-125.2 -125.2,-125.2" /><path
           id="path350"
           d="m 14466,9837.8 -29,7.8 c 15.9,58.6 10.3,490.4 -106.8,635.1 -26.3,32.6 -55.4,47.5 -89,45.7 -29.5,-1.6 -54.6,-14.6 -76.8,-39.7 -118.7,-134 -92.2,-546.3 -91.9,-550.5 l -29.9,-2 c -1.2,17.4 -27.6,429 99.3,572.4 27.4,31 60.3,47.7 97.7,49.7 43.2,2.4 81.6,-16.7 114,-56.7 125.2,-154.8 129.4,-598.9 112.4,-661.8" /><path
           id="path352"
           d="m 14446,9838 c -2,0 -3.7,-1.6 -3.7,-3.6 0,-2 1.7,-3.7 3.7,-3.7 2,0 3.6,1.7 3.6,3.7 0,2 -1.6,3.6 -3.6,3.6 z m 0,-37.3 c -18.6,0 -33.7,15.1 -33.7,33.7 0,18.5 15.1,33.6 33.7,33.6 18.5,0 33.6,-15.1 33.6,-33.6 0,-18.6 -15.1,-33.7 -33.6,-33.7" /><path
           id="path354"
           d="m 14054,9924.2 c -2,0 -3.7,-1.7 -3.7,-3.7 0,-2 1.7,-3.6 3.7,-3.6 2,0 3.6,1.6 3.6,3.6 0,2 -1.6,3.7 -3.6,3.7 z m 0,-37.3 c -18.6,0 -33.7,15.1 -33.7,33.6 0,18.6 15.1,33.7 33.7,33.7 18.5,0 33.6,-15.1 33.6,-33.7 0,-18.5 -15.1,-33.6 -33.6,-33.6" /><path
           id="path356"
           d="m 14254,10537 -28.6,9.3 c 0.8,2.2 70.6,218.7 75,416.3 2.1,88.5 51.9,202.1 278.1,240.4 l 5,-29.6 c -165.4,-28 -250.5,-99.2 -253.1,-211.5 -4.5,-202 -75.7,-422.7 -76.4,-424.9" /><path
           id="path358"
           d="m 15214,10378 -27,13 c 2.8,6 284.6,600.5 28.9,762 l 16,25.3 c 278.2,-175.6 -5.7,-774.9 -17.9,-800.3" /></g><path
         id="path362"
         fill="#0e2549"
         d="m 14470,11824 c 0,0 -79,-326.9 14.5,-411.2 93.5,-84.3 491.3,-130.5 562.7,-98.7 71.4,31.7 197.2,401.1 197.2,401.1 0,0 -158.7,-60 -246.7,-59.4 -88,0.5 -306.4,-2.6 -405.7,58.9 -69.1,42.8 -122,109.3 -122,109.3" /><path
         id="path364"
         fill="#ffffff"
         d="m 14837,11618 c 5.2,-23.7 -64.7,-95.2 -124.7,-84.4 -98,17.6 -106,122.3 -83.6,112.4 8.8,-3.8 38,-38.3 97.1,-47.1 63.7,-9.5 107.7,34.9 111.2,19.1" /><g
         id="g368"
         transform="scale(1.1653)"><path
           id="path366"
           fill="#0e2549"
           d="M 16287,1939.6 H 1328 c -7.11,0 -12.87,5.75 -12.87,12.87 0,7.04 5.76,12.87 12.87,12.87 h 14959 c 7.1,0 12.9,-5.83 12.9,-12.87 0,-7.12 -5.8,-12.87 -12.9,-12.87" /></g><g
         id="g380"><path
           id="path370"
           fill="#ffffff"
           d="m 5245.5,9810.4 22.59,412.1 h 446.81 l 131.02,-479.8 -600.42,67.7" /><path
           id="path372"
           fill="#ffffff"
           d="m 3922.1,4271.9 -337.75,-1457.1 -467.14,-427.7 776.78,130.2 -34.91,318.6 776.81,1461 -713.79,-25" /><path
           id="path374"
           fill="#0e2549"
           d="m 3934.1,4257.3 -336.22,-1450.5 -433.16,-396.5 712.8,119.4 -33.88,309.1 2.17,4.1 764.61,1438.1 z m -864.44,-1893.4 501.1,458.8 339.3,1463.8 751.25,26.3 -786.84,-1479.9 35.96,-328.1 -840.77,-140.9" /><path
           id="path376"
           fill="#ffffff"
           d="m 6088.2,4296.9 -75.92,-1482.1 467.12,-427.7 -776.78,130.2 34.92,318.6 -197.91,1461 h 548.57" /><path
           id="path378"
           fill="#0e2549"
           d="m 5719.1,2529.7 712.8,-119.4 -434.95,398.2 75.49,1473.4 h -515.62 l 195.85,-1445.8 z m 807.85,-165.8 -840.76,140.9 36.26,330.9 -199.96,1476.2 h 581.52 L 6027.64,2821 6526.95,2363.9" /></g><g
         id="g388"
         fill="#e2474b"><path
           id="path382"
           d="m 5684.3,2732 c -37.63,-278.6 45.06,-454.6 45.06,-454.6 h 71.25 l 21.06,206.5 267.54,-208.2 574.4,1.5 v 64.9 c 0,0 -200.28,137.8 -221.84,93.7 -66.45,-135.8 -736.28,453.1 -757.47,296.2" /><path
           id="path384"
           d="m 6600.4,3989.1 -3368.9,49.6 c 0,0 1355.3,3061.7 1526.8,3750.7 48.19,193.7 96.9,332.8 141.9,432.6 115.29,255.1 207.1,253.9 207.1,253.9 L 6178,8465.5 c 0,0 195.6,-104.6 294.31,-594.9 3.1,-15.6 6.2,-31.5 9.1,-47.9 95.3,-531.5 119,-3833.6 119,-3833.6" /><path
           id="path386"
           d="m 3912.3,2732 c 37.63,-278.6 -44.97,-454.6 -44.97,-454.6 h -71.24 l -21.16,206.5 -263.16,-208.2 -578.79,1.5 v 64.9 c 0,0 200.29,137.8 221.85,93.7 66.44,-135.8 736.28,453.1 757.47,296.2" /></g><g
         id="g406"><path
           id="path390"
           fill="#0e2549"
           d="m 5608.6,11853 c 0,0 281.34,-39.9 436.34,-312.2 155.01,-272.4 133.64,-315.1 58.11,-483.3 -75.53,-168.1 -116.73,-258.8 -3.83,-365 72.38,-68.1 49.49,-223.2 2.36,-273.7 -67.38,-72.1 -188.56,-220 -169.54,-301.1 68.68,-293 264.91,-390.3 264.91,-390.3 l -1657.2,-1.9 c 0,0 -433.34,174.1 -173.53,696.4 42.48,85.4 259.55,185.3 291.25,290.7 21.65,72 -48.51,278.2 13.15,358.1 112.5,145.8 192.73,132.6 191.36,311.2 -0.74,95.7 152,618.2 746.65,471.1" /><path
           id="path392"
           fill="#ffffff"
           d="m 5974.6,10396 c 0,0 -413.07,155.6 -539.95,161.9 -126.88,6.4 4.17,-161.9 4.17,-161.9 l 456.92,-204.4 78.86,204.4" /><path
           id="path394"
           fill="#0e2549"
           d="m 5448.4,10408 439.04,-196.5 67.71,175.6 c -73.48,27.1 -411.23,150.2 -521.25,155.7 -13.96,0.7 -31.84,-0.7 -37.24,-11 -12.03,-23.2 22.34,-85.2 51.74,-123.8 z m 455.65,-236.8 -474.77,212.5 -2.3,2.9 c -13.98,18 -82.42,110 -56.94,159 10.23,19.7 32.16,28.8 65.36,27.1 127.75,-6.4 527.53,-156.5 544.49,-162.8 l 14.15,-5.4 -89.99,-233.3" /><path
           id="path396"
           fill="#ffffff"
           d="m 5198.9,10924 c 0,0 21.27,-522.7 1.31,-550.2 -68.31,-94.1 -270.69,-177 -316.88,-189.4 -46.19,-12.4 755.33,-318.2 755.33,-318.2 l 384.82,188.6 -148.33,133.8 c 0,0 -124.69,62.7 -179.48,119.3 -54.8,56.6 -81.44,588.5 -81.44,588.5 l -415.33,27.6" /><path
           id="path398"
           fill="#0e2549"
           d="m 4912.8,10179 c 92.03,-48.9 475.79,-200.6 725.05,-295.7 l 359.05,175.9 -130.38,117.7 c -16.34,8.3 -128.79,66.7 -181.7,121.3 -53.83,55.6 -79.85,489.6 -84.94,584.8 l -385.39,25.7 c 6.61,-166.7 17.87,-515.4 -2.21,-543 -62.35,-85.9 -227.1,-160.5 -299.48,-186.7 z m 726.54,-328.4 -6.09,2.3 c -1.9,0.7 -191.94,73.3 -379.37,148.2 -388.92,155.4 -388.3,167.6 -387.52,183.1 0.37,7.3 5.48,13.3 13,15.4 52.38,14.1 244.14,95.8 308.12,183 12.11,31.6 4.22,348.3 -3.64,541.5 l -0.68,16.7 445.32,-29.7 0.66,-13.3 c 10.2,-203.4 40.18,-540.4 77.24,-578.7 52.37,-54.1 174.22,-115.8 175.45,-116.4 l 1.8,-0.9 166.29,-150 -410.58,-201.2" /><path
           id="path400"
           fill="#ffffff"
           d="m 5216.6,10866 c -54.38,49.7 -148.13,147.9 -138.54,227.8 9.58,79.9 98.79,56.5 124.51,39.6 17.12,-11.3 60.54,389.3 60.54,389.3 l 620.35,-63.4 c 0,0 37.65,-356.1 -18.71,-572.1 -56.6,-217 -166.58,-258.2 -328.08,-240.3 -79.99,8.9 -139.71,35.9 -185.16,68.8 L 5216.6,10866" /><path
           id="path402"
           fill="#0e2549"
           d="m 5600.2,10628 c -21.52,0 -43.36,1.6 -65.23,4 -73.3,8.2 -138,32.2 -192.31,71.6 -6.7,4.8 -8.2,14.2 -3.34,20.9 4.86,6.7 14.24,8.2 20.94,3.4 50.05,-36.3 109.94,-58.5 178.02,-66.1 151.29,-16.8 256.23,15.7 311.9,229.1 49.24,188.8 25.31,490.8 19.48,554.7 l -593.3,60.6 c -41.01,-374.6 -57.31,-382.3 -66.12,-386.5 -5.2,-2.4 -11.16,-2 -15.96,1.1 -14.63,9.6 -53.13,21 -77.84,9.6 -13.5,-6.3 -21.2,-18.9 -23.54,-38.4 -6.36,-53 42.4,-131.3 133.78,-215 6.11,-5.5 6.53,-15 0.94,-21.1 -5.59,-6.1 -15.08,-6.6 -21.2,-1 -70.77,64.8 -153.09,159.1 -143.31,240.7 4.52,37.7 24.62,54.5 40.69,62 29.26,13.5 67.67,6.7 92.69,-4.1 12.47,46.2 35,217.1 51.65,370.8 l 1.61,14.8 647.3,-66.1 1.28,-12.1 c 1.55,-14.7 37.29,-361.3 -19.11,-577.5 -54.49,-208.9 -162.14,-255.4 -279.02,-255.4" /><path
           id="path404"
           fill="#2e6b99"
           d="m 6247.4,10151 c 226.34,-179.4 826.14,-1053 810.56,-1131 -79.67,-399.1 -778.27,-585.1 -778.27,-585.1 l -178.1,281.3 353.95,205.3 -236.02,323.8 -41.59,-779.7 -415.86,-7.3 c 0,0 -821.23,-41.2 -1023.5,118.2 -301.31,237.5 -438.57,1198.9 -116.13,1530.3 109.16,112.2 205.67,123.7 258.91,123.8 160.23,0.2 861.6,-649.5 1059.6,-8 28.47,92.2 245.29,-23.1 306.48,-71.6" /></g><g
         id="g416"
         fill="#0e2549"><path
           id="path408"
           d="m 5759.7,11061 h -0.62 c -13.8,0.4 -24.71,11.8 -24.38,25.6 l 0.5,20.4 c 0.33,13.6 11.46,24.4 24.98,24.4 h 0.62 c 13.8,-0.3 24.72,-11.8 24.38,-25.6 l -0.5,-20.4 c -0.32,-13.6 -11.45,-24.4 -24.98,-24.4" /><path
           id="path410"
           d="m 5484.3,11092 h -0.62 c -13.8,0.3 -24.72,11.8 -24.38,25.6 l 0.5,20.4 c 0.34,13.8 11.44,25 25.6,24.4 13.8,-0.4 24.72,-11.8 24.38,-25.6 l -0.5,-20.5 c -0.33,-13.5 -11.45,-24.3 -24.98,-24.3" /><path
           id="path412"
           d="m 5405.6,11198 c -5.84,0 -11.4,3.5 -13.82,9.2 -3.22,7.6 0.34,16.4 7.97,19.7 64.36,27.2 124.96,1.6 127.52,0.5 7.6,-3.2 11.1,-12.1 7.82,-19.7 -3.28,-7.6 -12.1,-11.1 -19.67,-7.8 -0.52,0.2 -51.73,21.4 -103.98,-0.7 -1.91,-0.8 -3.89,-1.2 -5.84,-1.2" /><path
           id="path414"
           d="m 5662.5,10956 c -0.06,-0.5 -0.13,-0.9 -0.23,-1.4 0.1,0.5 0.17,1 0.23,1.4 z m -0.23,-1.4 h -0.01 z m 6.94,-16.4 c -13.51,0 -25.44,3.2 -30.26,6.9 l -7.54,5.8 1.53,10 c 1.74,8.1 9.69,13.3 17.82,11.5 2.34,-0.5 4.42,-1.5 6.17,-2.9 6.06,-1.6 22.39,-3.1 31.98,3.5 3.54,2.5 8.19,7.3 7.77,20.3 -0.41,12.7 -4.35,28.8 -9.34,49.1 -3.23,13.3 -6.9,28.2 -10.41,45.5 -10.69,52.7 -10.48,80.9 0.7,97.3 9.04,13.3 22.64,15.8 33.57,17.7 1.66,0.3 3.35,0.6 5.06,1 40.86,8.3 109.18,-18.1 116.84,-21.2 7.69,-3 11.46,-11.8 8.4,-19.5 -3.05,-7.7 -11.75,-11.4 -19.47,-8.4 -18.52,7.4 -72.51,25.3 -99.8,19.7 -1.94,-0.4 -3.87,-0.8 -5.76,-1.1 -8.59,-1.5 -12.27,-2.4 -14.03,-5 -3.23,-4.8 -7.01,-20.8 3.9,-74.5 3.38,-16.7 6.97,-31.4 10.14,-44.3 5.41,-22.1 9.67,-39.5 10.18,-55.3 0.74,-22.7 -8.62,-40.2 -26.35,-49.3 -9.66,-5 -20.83,-6.8 -31.1,-6.8" /></g><path
         id="path418"
         fill="#ffffff"
         d="m 5840.9,8121.4 521.53,-81 -521.53,81" /><g
         id="g426"
         fill="#0e2549"><path
           id="path420"
           d="m 6362.4,8025.4 c -0.76,0 -1.54,0.1 -2.32,0.2 l -521.54,80.9 c -8.18,1.3 -13.79,9 -12.52,17.2 1.27,8.2 8.96,13.7 17.12,12.5 l 521.54,-81 c 8.19,-1.2 13.8,-8.9 12.53,-17.1 -1.16,-7.4 -7.54,-12.7 -14.81,-12.7" /><path
           id="path422"
           d="m 5747.8,8941.1 c -0.82,0 -1.65,0.1 -2.48,0.2 -8.17,1.3 -13.7,9.1 -12.34,17.2 98.53,592.7 -111.47,946.3 -113.6,949.8 -4.31,7.1 -2.07,16.3 5.01,20.6 7.07,4.3 16.29,2.1 20.61,-5 2.19,-3.6 217.92,-366.8 117.57,-970.3 -1.22,-7.3 -7.57,-12.5 -14.77,-12.5" /><path
           id="path424"
           d="m 5968.4,11456 c 0,0 -619.29,-67.4 -765.63,-335.6 0,0 -19.88,12.8 -46.14,13.8 -33.84,1.2 -50.04,-8.3 -50.04,-8.3 l 94.57,468.4 767.24,-138.3" /></g><g
         id="g490"><path
           id="path428"
           fill="#e2474b"
           d="m 5498.1,10885 c 0,0 120.32,-139.8 206.02,-18.2 0,0 -30.49,26.8 -78.62,10.9 0,0 -46.91,22.8 -127.4,7.3" /><path
           id="path430"
           fill="#ffffff"
           d="m 5212.7,10533 c 0,0 119.26,-148.9 80.05,-140.3 -21.46,4.7 -43.4,13.7 -58.86,20.9 -5.19,2.4 -10.17,-3.6 -6.84,-8.3 26.05,-36.3 74.84,-114.1 34.13,-139.1 -53.74,-32.9 -179.53,37.5 -182.98,108.7 -3.14,64.8 -5.1,135 134.5,158.1" /><path
           id="path432"
           fill="#0e2549"
           d="m 5206.6,10517 c -119.11,-22.2 -116.3,-80 -113.34,-141 1.4,-28.7 30.23,-62.8 71.76,-84.7 35.12,-18.6 69.81,-23.2 88.4,-11.9 4.39,2.7 6.82,6.3 7.88,11.5 4.1,20.3 -13.23,59.9 -46.35,106.1 -5.53,7.7 -5.19,17.8 0.86,25.1 6.04,7.3 15.86,9.5 24.48,5.5 10.49,-4.9 24.8,-11 39.82,-15.6 -12.45,23.4 -43.48,67 -73.51,105 z m 20.7,-273.8 c -22.94,0 -49.35,7.3 -76.31,21.5 -38.99,20.7 -85.36,61.8 -87.69,109.9 -3.04,62.5 -7.2,148.1 147.04,173.6 l 8.66,1.4 5.49,-6.9 c 104.26,-130.1 93.42,-147.6 88.22,-156 -1.72,-2.7 -8.44,-11.5 -23.08,-8.3 -11.1,2.4 -22.25,5.9 -32.57,9.7 21.45,-34.2 39.58,-73.7 33.65,-103.1 -2.7,-13.4 -10.17,-24.1 -21.61,-31.2 -11.59,-7.1 -25.86,-10.6 -41.8,-10.6" /><path
           id="path434"
           fill="#c13344"
           d="m 6472.3,7870.6 c -30.81,-15.5 -64.51,-48.9 -96.21,-114.2 -96.79,-198.8 -201.99,-110.3 -201.99,-110.3 l 3.89,212.8 h -76.29 c 0,0 -108.6,44.1 -167,-62.5 -58.41,-106.7 -171.91,-120 -202,-120.6 -30.1,-0.5 49.23,670.5 49.23,670.5 l -819.17,-5.1 c 76.09,134.7 144.54,134.7 144.54,134.7 L 6178,8465.5 c 0,0 195.6,-104.6 294.31,-594.9" /><path
           id="path436"
           fill="#1e5272"
           d="m 6883.8,9371.9 c 0,0 170.29,-286.4 105.59,-392.3 -215.81,-353.3 -591.11,-420.7 -591.11,-420.7 0,0 -113.54,420.8 -98.54,435.8 15,15 584.06,377.2 584.06,377.2" /><path
           id="path438"
           fill="#0e2549"
           d="m 6174,8014.5 c 0,0 -112.89,-332.7 0,-368.4 112.88,-35.6 202.01,368.4 202.01,368.4 H 6174" /><path
           id="path440"
           fill="#0e2549"
           d="m 5732.7,8044.2 c 0,0 -112.89,-332.7 0,-368.4 112.89,-35.6 202.01,368.4 202.01,368.4 H 5732.7" /><path
           id="path442"
           fill="#a1c5e2"
           d="m 6146,9357.3 c 0,0 -469.38,-267.4 -463.44,-505.1 5.95,-237.6 23.77,-849.6 23.77,-849.6 h 314.9 v -47.5 h 451.55 c 0,0 -83.18,600.1 0,748.6 83.18,148.5 326.09,272 326.09,295.7 0,23.8 16.67,372.5 16.67,372.5 L 6146,9357.3" /><path
           id="path444"
           fill="#0e2549"
           d="m 6540.7,11165 c -75.91,7.5 -260.08,27.9 -287.54,-105 -31.31,-151.6 -45.99,-351.7 -51.96,-457.5 -2.35,-41.7 26.17,-78.8 67.02,-87.3 l 457.63,-94.5 c 41.92,-8.7 83.68,15.5 97.08,56.3 45.07,137.2 137.91,428.2 130.52,476.5 -25.15,164.3 -292.56,199.7 -412.75,211.5" /><path
           id="path446"
           fill="#ffffff"
           d="m 6424.1,10552 c 0,0 -17.25,-248.8 -86.87,-308.2 -69.62,-59.4 -155.55,-78.3 -173.38,-84.2 -17.82,-6 86.13,-190.2 86.13,-190.2 l 567.44,118.9 c 0,0 -166.36,112.9 -160.42,175.2 5.94,62.4 100.23,288.5 100.23,288.5 H 6424.1" /><path
           id="path448"
           fill="#0e2549"
           d="m 6178.1,10148 c 7.31,-25.4 43.9,-97.9 79.55,-161.8 l 523.09,109.5 c -51.44,38.1 -143.89,114.5 -138.69,169.1 5.06,53.1 69.14,214.1 92.77,272 h -296.91 c -4.87,-54.6 -26.54,-249.6 -90.96,-304.6 -63.1,-53.9 -139.77,-75.9 -168.85,-84.2 z m 64.19,-195.7 -5.39,9.6 c -98.77,175 -91.19,194.7 -88.7,201.2 1.95,5 5.91,8.8 10.89,10.5 2.4,0.8 5.98,1.8 10.55,3.1 29.79,8.6 99.55,28.6 157.84,78.3 53.14,45.4 76.95,230.4 81.64,297.9 l 0.97,13.9 h 369.63 l -8.66,-20.8 c -0.94,-2.2 -93.49,-224.6 -99.15,-284.1 -3.52,-36.9 87.89,-116.6 153.91,-161.4 l 29.24,-19.9 -612.77,-128.3" /><path
           id="path450"
           fill="#e2474b"
           d="m 6646.5,10181 c -71.31,-73.4 -280.53,-149.7 -351.83,-7.1 -71.3,142.6 -360.86,273.5 -360.86,273.5 l -126.21,-215.8 124.47,-113.5 c 0,0 53.48,-772.4 181.22,-831.8 127.74,-59.4 743.16,-35.6 743.16,-35.6 l -27.38,470.3 249.71,4.9 c 0,0 -94.38,443 -181.64,496.9 -147.47,91.1 -216.44,-6.6 -250.64,-41.8" /><path
           id="path452"
           fill="#ffffff"
           d="m 6769.8,9757.3 c 0,0 72.23,-228.2 64.63,-376.3 -8.25,-160.7 -76.44,-241.6 -108.82,-268.2 -41.23,-34 -217.8,-59.6 -204.09,-108.8 13.71,-49.3 71.16,4.3 93.39,-2.9 10.8,-3.5 -201.47,-112 -93.95,-159.5 107.51,-47.6 334.72,170.9 354.53,214.5 9.67,21.3 126.02,104.5 163.66,277.4 39.43,181.1 0,451.6 0,451.6 l -269.35,-27.8" /><path
           id="path454"
           fill="#0e2549"
           d="m 6610.3,9016.8 c 3.18,0 6.27,-0.5 9.29,-1.4 l 8.9,-2.9 1.74,-9.7 c 1.57,-10.9 -4.16,-14.8 -28.25,-31.2 -27.08,-18.5 -99,-67.5 -96.38,-96.3 0.67,-7.3 7.9,-14 21.49,-20 94.5,-41.8 315.47,164.4 334.81,207 3.22,7.1 10.79,15 23.32,28.1 36.04,37.8 111.04,116.3 139.35,246.3 33.3,152.9 9,374.1 1.7,431.9 l -236.75,-24.3 c 16.82,-56.9 66.46,-237.3 59.96,-364.1 -9.21,-179.2 -89.79,-258.9 -114.26,-279 -17.84,-14.7 -54.19,-26.8 -92.68,-39.6 -36.08,-11.9 -111.16,-36.8 -106.49,-53.6 0.97,-3.5 2.72,-8 5.47,-9.4 6.48,-3.1 22.69,3.6 34.55,8.4 12.05,5 23.59,9.8 34.23,9.8 z m -55.86,-196.7 c -14.14,0 -27.4,2.4 -39.48,7.7 -24.3,10.8 -37.5,25.8 -39.23,44.8 -2.95,32.3 29.59,65 69.37,95.3 -5.74,0 -11.37,1.2 -16.75,3.8 -10.25,5 -17.39,14.5 -21.21,28.2 -12.32,44.3 54.84,66.6 125.95,90.2 34.18,11.4 69.53,23.1 83.05,34.2 15.73,13 94.58,86.2 103.38,257.5 7.37,143.6 -63.23,368.7 -63.94,371 l -5.55,17.6 301.96,31.1 2.08,-14.3 c 1.62,-11.1 39.36,-275.2 -0.19,-456.9 -30.1,-138.2 -109.04,-220.9 -146.97,-260.6 -7.6,-8 -16.21,-17 -17.74,-19.9 -18.6,-40.9 -210,-229.7 -334.73,-229.7" /><path
           id="path456"
           fill="#0e2549"
           d="m 6021.2,7940.1 c -8.18,0 -14.87,6.5 -14.99,14.8 -0.09,5.9 -8.91,594.4 2.23,851.8 11.54,266.7 263.24,368.9 265.78,369.9 7.69,3.1 16.4,-0.7 19.44,-8.4 3.05,-7.7 -0.73,-16.4 -8.43,-19.5 -2.35,-0.9 -236.14,-96.4 -246.82,-343.3 -11.1,-256.6 -2.3,-844.2 -2.2,-850.1 0.12,-8.3 -6.49,-15.1 -14.77,-15.2 h -0.24" /><path
           id="path458"
           fill="#ffffff"
           d="m 6045.5,8806.1 c 0,0 180,-46.7 280,0 100,46.7 86.84,130.6 130.05,115.3 43.2,-15.3 5.92,-107.3 5.92,-107.3 0,0 60.69,-9.3 214.44,119.5 20.01,16.7 46.25,-134.9 -3.75,-194.2 -50,-59.2 -133.33,-140 -273.33,-143.3 -140,-3.3 -403.33,-20 -403.33,-20 l 50,230" /><path
           id="path460"
           fill="#0e2549"
           d="m 6056.9,8788 -42.54,-195.7 c 64.02,3.9 267.7,16 384.1,18.8 133.35,3.1 213.52,80.3 262.23,138 35.1,41.6 26.37,136.2 15.82,165.5 -147.99,-121.7 -210.56,-116.4 -217.32,-115.3 l -18.73,2.9 7.1,17.6 c 8.57,21.2 19.1,61.7 10.88,79.9 -1.77,3.9 -4.21,6.3 -7.91,7.6 -6.3,2.2 -8.02,2.8 -22.16,-21.7 -15.14,-26.2 -38.03,-65.8 -96.54,-93.1 -87.48,-40.8 -228.43,-14.8 -274.93,-4.5 z m -80.29,-228.1 57.53,264.6 15.11,-3.9 c 1.75,-0.4 175.99,-44.7 269.89,-0.9 49.95,23.3 69.19,56.6 83.25,80.9 12.48,21.6 26.63,46.1 58.15,35 11.41,-4.1 20.14,-12.2 25.26,-23.6 10.48,-23.3 4.09,-57.2 -2.43,-79.9 27.74,7.4 86.1,31.9 182.9,113 8.3,6.9 19.7,6.2 27.69,-1.8 23.02,-23.1 38.78,-155.3 -10.34,-213.6 -52.45,-62.1 -139,-145.1 -284.45,-148.6 -138.1,-3.3 -400.1,-19.8 -402.74,-20 l -19.82,-1.2" /><path
           id="path462"
           fill="#2e6b99"
           d="m 5567.2,8922.8 -21.48,-469.3 632.26,12 v 415.6 l -610.78,41.7" /><path
           id="path464"
           fill="#0e2549"
           d="m 6178,8866.1 h -1.05 c -101.1,7.1 -990.03,70.9 -1071.5,145.6 -82.83,75.9 -68.31,395.6 -66.38,431.9 0.45,8.2 7.69,14.4 15.78,14.1 8.27,-0.4 14.62,-7.5 14.18,-15.7 -5.02,-94.5 -4.62,-352 56.69,-408.2 55.86,-51.2 660.54,-110.4 1053.4,-137.8 8.27,-0.5 14.5,-7.7 13.92,-16 -0.55,-7.9 -7.13,-13.9 -14.95,-13.9" /><path
           id="path466"
           fill="#e2474b"
           d="m 6715.5,9982.6 c 6.66,-23.2 0,-239.9 0,-239.9 l 363.27,-17.1 -85.08,313.8 -278.19,-56.8" /><path
           id="path468"
           fill="#0e2549"
           d="m 7078.8,9710.6 c -0.22,0 -0.44,0 -0.66,0.1 l -406.88,17.7 49.46,296.8 c 1.36,8.2 9.1,13.8 17.26,12.4 8.17,-1.4 13.69,-9.1 12.33,-17.3 l -43.88,-263.4 373.02,-16.3 c 8.27,-0.3 14.69,-7.3 14.33,-15.6 -0.35,-8.1 -6.99,-14.4 -14.98,-14.4" /><path
           id="path470"
           fill="#ffffff"
           d="m 6692.8,8912.3 c 0,0 -62.28,-139.1 -212.28,-156.8 l 212.28,156.8" /><path
           id="path472"
           fill="#0e2549"
           d="m 6480.5,8740.5 c -7.5,0 -13.98,5.6 -14.88,13.2 -0.97,8.2 4.91,15.7 13.14,16.7 139.43,16.4 199.77,146.8 200.36,148.1 3.41,7.5 12.29,10.9 19.83,7.5 7.54,-3.4 10.92,-12.2 7.54,-19.8 -2.68,-6 -67.56,-147.1 -224.21,-165.6 -0.6,-0.1 -1.2,-0.1 -1.78,-0.1" /><path
           id="path474"
           fill="#ffffff"
           d="m 6701,8843.6 c 0,0 -76.82,-133.8 -210.92,-146.3 L 6701,8843.6" /><path
           id="path476"
           fill="#0e2549"
           d="m 6490,8682.3 c -7.65,0 -14.19,5.9 -14.91,13.6 -0.77,8.3 5.3,15.6 13.54,16.4 124.91,11.6 198.57,137.5 199.3,138.8 4.13,7.1 13.31,9.6 20.48,5.5 7.18,-4.1 9.66,-13.3 5.53,-20.5 -3.29,-5.7 -82.29,-140.6 -222.52,-153.7 -0.48,0 -0.95,-0.1 -1.42,-0.1" /><path
           id="path478"
           fill="#ffffff"
           d="m 6726,10478 c 56.17,27.9 155.88,86 166.87,153.7 10.97,67.5 -67.47,69.3 -92.47,61.6 -16.64,-5.2 42.14,332.4 42.14,332.4 l -521.96,94.2 c 0,0 -114.58,-282.1 -119.37,-472 -4.8,-190.7 75.39,-250.2 211.62,-273.6 67.48,-11.5 122.64,-3.5 167.54,12.7 l 145.63,91" /><path
           id="path480"
           fill="#0e2549"
           d="m 6474.8,10354 c -21.05,0 -42.56,1.9 -64.5,5.6 -119.64,20.5 -229.6,69.7 -224.08,288.8 4.8,190.4 115.75,465.7 120.47,477.3 l 4.58,11.3 548.62,-99.1 -2.56,-14.6 c -22.33,-128.3 -43.39,-269.3 -44.92,-312.4 23.39,2.5 55.42,-1.5 75.86,-19.3 11.81,-10.2 24.76,-29.4 19.41,-62.3 -11.36,-69.9 -101.44,-128.1 -175,-164.6 -7.42,-3.7 -16.42,-0.6 -20.1,6.8 -3.68,7.4 -0.65,16.4 6.77,20.1 93.7,46.5 151.55,98.5 158.72,142.6 2.54,15.6 -0.55,27 -9.48,34.8 -16.63,14.4 -50.34,14.2 -63.73,10.1 -5.44,-1.7 -11.19,-0.5 -15.45,3.3 -6.99,6.1 -18.62,16.3 35.82,331.3 l -495.2,89.4 c -21.06,-54.3 -109.69,-291.8 -113.81,-455.5 -4.69,-185.9 72.72,-236.7 199.15,-258.4 57.06,-9.8 110.85,-5.7 159.91,12 7.78,2.8 16.39,-1.2 19.2,-9 2.82,-7.8 -1.21,-16.4 -9.01,-19.2 -34.97,-12.7 -72.01,-19 -110.67,-19" /><path
           id="path482"
           fill="#0e2549"
           d="m 6331.9,10995 c -68.59,18.4 -194.02,72.3 -151.71,206.3 42.31,133.9 58.6,78.8 58.6,78.8 0,0 22.03,-36.5 32.61,-40.1 10.57,-3.5 -13.4,-6.4 47.1,99.3 0,0 106.97,-2.3 137.51,-76.4 30.53,-74 70,-44.7 93.61,-15.8 20.06,24.5 55.72,-20.4 58.09,-50.3 9.21,-35 170.48,-52 212.15,-85.5 65.95,-52.9 88.15,-74 65.54,-171.4 -4.34,-18.7 -72.59,-195.6 -72.59,-195.6 l -18.84,204.8 c 0,0 -349.95,15.8 -462.07,45.9" /><path
           id="path484"
           fill="#ffffff"
           d="m 5632.2,9584.4 c 0,-30.4 -24.62,-55 -55,-55 -30.37,0 -55,24.6 -55,55 0,30.4 24.63,55 55,55 30.38,0 55,-24.6 55,-55" /><path
           id="path486"
           fill="#0e2549"
           d="m 5577.2,9624.4 c -22.05,0 -40,-17.9 -40,-40 0,-22 17.95,-40 40,-40 22.06,0 40,18 40,40 0,22.1 -17.94,40 -40,40 z m 0,-110 c -38.6,0 -70,31.4 -70,70 0,38.6 31.4,70 70,70 38.6,0 70,-31.4 70,-70 0,-38.6 -31.4,-70 -70,-70" /><path
           id="path488"
           fill="#ffffff"
           d="m 5664.6,9280.7 c 0,-30.4 -24.62,-55 -55,-55 -30.38,0 -55,24.6 -55,55 0,30.3 24.62,55 55,55 30.38,0 55,-24.7 55,-55" /></g><g
         id="g506"
         fill="#0e2549"><path
           id="path492"
           d="m 5609.6,9320.7 c -22.05,0 -40,-18 -40,-40 0,-22.1 17.95,-40 40,-40 22.06,0 40,17.9 40,40 0,22 -17.94,40 -40,40 z m 0,-110 c -38.6,0 -70,31.4 -70,70 0,38.6 31.4,70 70,70 38.6,0 70,-31.4 70,-70 0,-38.6 -31.4,-70 -70,-70" /><path
           id="path494"
           d="m 6311.6,10736 c -1.95,0 -3.92,0.3 -5.88,0.9 -10.56,3.2 -16.49,14.4 -13.25,24.9 l 5.18,16.9 c 3.24,10.6 14.42,16.5 24.99,13.3 10.55,-3.3 16.48,-14.5 13.25,-25 l -5.18,-16.9 c -2.64,-8.6 -10.56,-14.1 -19.11,-14.1" /><path
           id="path496"
           d="m 6545.9,10686 c -1.94,0 -3.91,0.3 -5.87,0.9 -10.56,3.2 -16.49,14.4 -13.25,25 l 5.17,16.8 c 3.25,10.6 14.42,16.5 24.99,13.3 10.56,-3.2 16.49,-14.4 13.26,-25 l -5.18,-16.9 c -2.64,-8.6 -10.56,-14.1 -19.12,-14.1" /><path
           id="path498"
           d="m 6636.6,10764 c -3.52,0 -7.06,1.2 -9.91,3.7 -36.46,32.2 -83.05,28.6 -83.53,28.5 -8.3,-0.5 -15.52,5.5 -16.22,13.7 -0.71,8.3 5.41,15.5 13.66,16.2 2.43,0.2 59.94,4.7 105.92,-35.8 6.22,-5.5 6.82,-15 1.34,-21.2 -2.96,-3.4 -7.1,-5.1 -11.26,-5.1" /><path
           id="path500"
           d="m 6396.2,10639 h 0.09 z m -2.36,-29.4 c -17.16,0 -43.78,25.9 -44.06,26.2 -16.97,17.7 -16.31,32.3 -12.77,41.5 5.34,13.7 15.47,18.5 23.61,22.2 8.25,3.9 16.02,7.5 24.64,22.5 4.13,7.1 13.31,9.6 20.48,5.5 7.18,-4.2 9.65,-13.3 5.51,-20.5 -13.34,-23.2 -28.16,-30.1 -37.97,-34.7 -6.82,-3.1 -7.45,-3.7 -8.29,-5.9 -0.49,-6.1 19.31,-22.2 29.48,-26.7 0.28,0 0.57,0 0.87,-0.1 8.23,-0.9 14.16,-8.3 13.24,-16.5 -0.65,-5.8 -4.81,-11 -10.33,-12.8 -1.37,-0.5 -2.86,-0.7 -4.41,-0.7" /><path
           id="path502"
           d="m 6398.3,10829 c -2.6,0 -5.24,0.6 -7.64,2.1 -48.41,28.7 -83.05,21.8 -83.37,21.7 -8.09,-1.8 -16.13,3.2 -17.99,11.3 -1.87,8.1 3.17,16.1 11.24,18 1.85,0.4 46.01,10 105.43,-25.2 7.13,-4.3 9.47,-13.5 5.25,-20.6 -2.81,-4.7 -7.8,-7.3 -12.92,-7.3" /><path
           id="path504"
           d="m 6444.8,10552 c 3.54,-15.8 -50.86,-53.7 -96.35,-39.7 -74.22,22.7 -78.46,91 -61.57,82.1 6.62,-3.5 28.24,-29.1 73,-41.7 48.29,-13.5 82.54,10 84.92,-0.7" /></g></g></g></svg>
