<svg xmlns="http://www.w3.org/2000/svg" fill="currentColor" viewBox="0 0 15.992 15.345"><path d="M10.672,3a7.672,7.672,0,0,0,0,15.345,7.594,7.594,0,0,0,4.382-1.395.64.64,0,0,0-.736-1.047,6.3,6.3,0,0,1-3.646,1.163,6.394,6.394,0,0,1,0-12.787,6.3,6.3,0,0,1,3.646,1.163.64.64,0,0,0,.736-1.046A7.593,7.593,0,0,0,10.672,3Zm5.109,4.469a.639.639,0,0,0-.446,1.1L16.8,10.033H10.033a.639.639,0,1,0,0,1.279H16.8l-1.466,1.466a.639.639,0,1,0,.9.9l2.5-2.5a.639.639,0,0,0,0-1.018l-2.5-2.5a.639.639,0,0,0-.458-.194Z" transform="translate(-3 -3)"/></svg>
