<svg xmlns="http://www.w3.org/2000/svg" width="40.336" height="47.67" viewBox="0 0 40.336 47.67"><defs><style>.up-a{fill:#8f8f8f;}</style></defs><path class="up-a" d="M7.667,3A3.666,3.666,0,0,0,4,6.667V37.836A3.666,3.666,0,0,0,7.667,41.5H22.335V18.427l-4.2,4.2a1.833,1.833,0,0,1-2.593-2.593L22.872,12.7a1.833,1.833,0,0,1,2.593,0L32.8,20.038a1.833,1.833,0,0,1-2.593,2.593l-4.2-4.2V41.5H40.669a3.666,3.666,0,0,0,3.667-3.667V6.667A3.666,3.666,0,0,0,40.669,3ZM26,41.5H22.335v7.334a1.833,1.833,0,1,0,3.667,0Z" transform="translate(-4 -3)"/></svg>
