<svg xmlns="http://www.w3.org/2000/svg" width="57.702" height="54.764" viewBox="0 0 57.702 54.764"><defs><style>.a{fill:#0e69a5;}.b{fill:#c82127;}</style></defs><g transform="translate(0 0)"><path class="a" d="M36.107,302.126H21.594a4.552,4.552,0,0,1-4.544-4.546v-12.5H4.547A4.551,4.551,0,0,1,0,280.533v-4.169a.874.874,0,0,1,.874-.874h8.59a.874.874,0,0,1,0,1.748H1.749v3.295a2.8,2.8,0,0,0,2.8,2.8H17.922a.875.875,0,0,1,.875.874V297.58a2.8,2.8,0,0,0,2.8,2.8H36.107a2.8,2.8,0,0,0,2.8-2.8V284.2a.874.874,0,0,1,.874-.874H53.154a2.8,2.8,0,0,0,2.8-2.8v-3.295h-8.8a.874.874,0,0,1,0-1.748h9.677a.875.875,0,0,1,.875.874v4.169a4.552,4.552,0,0,1-4.547,4.546h-12.5v12.5A4.551,4.551,0,0,1,36.107,302.126Z" transform="translate(0.001 -247.362)"/><path class="b" d="M56.822,26.637a.875.875,0,0,1-.874-.875V21.594a2.8,2.8,0,0,0-2.8-2.8H39.775a.875.875,0,0,1-.874-.875V4.547a2.8,2.8,0,0,0-2.8-2.8H21.59a2.8,2.8,0,0,0-2.8,2.8V17.922a.875.875,0,0,1-.875.875H4.542a2.8,2.8,0,0,0-2.8,2.8v4.168a.875.875,0,1,1-1.749,0V21.594a4.552,4.552,0,0,1,4.547-4.544h12.5V4.547A4.552,4.552,0,0,1,21.59,0H36.1a4.551,4.551,0,0,1,4.546,4.547v12.5h12.5A4.553,4.553,0,0,1,57.7,21.6v4.168A.875.875,0,0,1,56.822,26.637Z" transform="translate(0.005 0)"/><path class="b" d="M164.544,156.577h-.067a.874.874,0,0,1-.8-.727l-4.588-27.294-4.052,12a.874.874,0,0,1-.828.594h-5.235a.875.875,0,0,1,0-1.749h4.607l4.965-14.7a.874.874,0,0,1,1.69.135l4.582,27.252,3.99-12.021a.873.873,0,0,1,.829-.6h5.1a.874.874,0,0,1,0,1.748h-4.464l-4.9,14.767a.875.875,0,0,1-.83.6Z" transform="translate(-133.008 -111.431)"/></g></svg>